<?xml version="1.0" standalone="no"?>
<!DOCTYPE svg PUBLIC "-//W3C//DTD SVG 1.1//EN" "http://www.w3.org/Graphics/SVG/1.1/DTD/svg11.dtd" >
<svg xmlns="http://www.w3.org/2000/svg">
<metadata>
This is a custom SVG webfont generated by Font Squirrel.
Designer    : Tomas Brousil
Foundry     : Tomas Brousil
</metadata>
<defs>
<font id="webfontvAP0SPOv" horiz-adv-x="335" >
<font-face units-per-em="2048" ascent="1638" descent="-410" />
<missing-glyph horiz-adv-x="593" />
<glyph unicode=" "  horiz-adv-x="593" />
<glyph unicode="&#x09;" horiz-adv-x="593" />
<glyph unicode="&#xa0;" horiz-adv-x="593" />
<glyph unicode="!" horiz-adv-x="385" d="M180 10.5q0 12.5 12.5 12.5t12.5 -12.5t-12.5 -12.5t-12.5 12.5zM188 319v1119h9v-1116z" />
<glyph unicode="&#x22;" horiz-adv-x="290" d="M72 1069v369h8v-369h-8zM211 1069v369h8v-369h-8z" />
<glyph unicode="#" horiz-adv-x="1167" d="M0 442l2 9h197l166 536h-234l2 8h234l137 447l8 -2l-137 -445h588l137 447l8 -2l-137 -445h196l-2 -8h-196l-166 -536h233l-2 -9h-233l-137 -446l-9 2l138 444h-588l-137 -446l-9 2l138 444h-197zM207 451h588l166 536h-588z" />
<glyph unicode="$" horiz-adv-x="1101" d="M143 1133q0 160 108.5 241.5t295.5 83.5v228l8 2v-230q197 0 350 -92l-2 -8q-160 92 -350 92q-184 0 -292.5 -80t-108.5 -237q0 -86 44 -155t115.5 -115t157.5 -88l172 -83q86 -41 157.5 -88t115.5 -115.5t44 -154.5q0 -162 -113.5 -253t-289.5 -101v-228l-8 -2v230 q-193 -4 -383 88l2 10q186 -90 360 -90q180 0 302 91t122 255q0 115 -83 199.5t-201 140.5l-238 110q-119 55 -202 142.5t-83 206.5z" />
<glyph unicode="%" horiz-adv-x="1501" d="M61 1057q0 209 87.5 305t238.5 96q143 0 230.5 -96t87.5 -305q0 -207 -87.5 -304.5t-230.5 -97.5q-152 0 -239 97.5t-87 304.5zM70 1057q0 -203 85 -298t232 -95q141 0 225 95t84 298t-84 298t-225 95q-317 0 -317 -393zM260 0l971 1438h10l-971 -1438h-10zM797 381 q0 209 87 305t238 96q143 0 230.5 -96t87.5 -305q0 -207 -87 -304t-231 -97q-152 0 -238.5 97t-86.5 304zM805 381q0 -203 85 -298t232 -95q141 0 225.5 95t84.5 298t-84 298t-226 95q-317 0 -317 -393z" />
<glyph unicode="&#x26;" horiz-adv-x="1323" d="M141 307q0 133 77 229.5t220 204.5q-217 258 -217 412q0 141 79 223t212 82q125 0 208 -75.5t83 -206.5q0 -119 -84 -210.5t-268 -226.5q195 -227 522 -495q125 150 225 360l8 -4q-102 -215 -225 -362q154 -125 342 -261l-4 -8q-168 119 -344 262q-217 -252 -471 -251 q-168 0 -265.5 91t-97.5 236zM150 307q0 -141 95 -230t259 -89q248 0 463 250q-326 264 -525 495q-90 -68 -145 -120t-101 -135t-46 -171zM229 1153q0 -147 215 -405l112 81q32 23 90.5 74t82 86t45 85t21.5 102q0 129 -80 201.5t-203 72.5q-129 0 -206 -80t-77 -217z" />
<glyph unicode="'" horiz-adv-x="151" d="M72 1069v369h8v-369h-8z" />
<glyph unicode="(" horiz-adv-x="581" d="M82 776.5q0 325.5 127 559t369 354.5l4 -9q-240 -121 -366 -352t-126 -552.5t126 -553t366 -352.5l-4 -8q-242 121 -369 354.5t-127 559z" />
<glyph unicode=")" horiz-adv-x="581" d="M0 -129q240 121 366 352.5t126 553t-126 553t-366 351.5l4 9q242 -121 369 -354.5t127 -559t-127 -559t-369 -354.5z" />
<glyph unicode="*" horiz-adv-x="866" d="M61 1165l2 9l365 -119v383l8 2v-385l365 116l4 -6l-365 -118l226 -312l-7 -6l-227 313l-227 -311l-6 2l225 314z" />
<glyph unicode="+" horiz-adv-x="1150" d="M102 715l2 8h467v467l9 2v-469h469l-2 -8h-467v-467l-9 -2v469h-469z" />
<glyph unicode="," horiz-adv-x="241" d="M78 -244q39 84 56.5 142.5t17.5 124t-25 139.5l8 2q35 -121 21.5 -205t-70.5 -205z" />
<glyph unicode="-" horiz-adv-x="464" d="M61 473l2 8h340l-2 -8h-340z" />
<glyph unicode="." horiz-adv-x="229" d="M102 10.5q0 12.5 12.5 12.5t12.5 -12.5t-12.5 -12.5t-12.5 12.5z" />
<glyph unicode="/" horiz-adv-x="524" d="M-82 -156l680 1872l8 -2l-680 -1872z" />
<glyph unicode="0" horiz-adv-x="1294" d="M143 721q0 383 137.5 560t368.5 177q229 0 365.5 -178t136.5 -559q0 -385 -136 -563t-366 -178q-231 0 -368.5 178t-137.5 563zM152 721q0 -381 134 -557t363 -176q225 0 359.5 176t134.5 557q0 377 -134.5 553t-359.5 176q-229 0 -363 -175t-134 -554z" />
<glyph unicode="1" horiz-adv-x="634" d="M61 1278v10l402 150h8v-1438h-8v1430z" />
<glyph unicode="2" horiz-adv-x="995" d="M82 10l197 198l164 171q101 106 149 164l110 141q63 84 90 141.5t47.5 123t20.5 126.5q0 193 -109.5 284t-277.5 91q-197 0 -356 -92l-4 6q166 94 360 94q172 0 283.5 -93t111.5 -290q0 -82 -35.5 -174t-89 -174t-157.5 -201l-196 -214l-251 -255l-49 -49h823l-2 -8h-827 z" />
<glyph unicode="3" horiz-adv-x="983" d="M82 1370q158 88 350 88q174 0 291 -91t117 -269q0 -211 -183 -383q111 -63 167.5 -160.5t56.5 -198.5q0 -195 -122 -285.5t-302 -90.5q-186 0 -373 88l4 8q186 -88 369 -88q176 0 295.5 89t119.5 279q0 98 -55 192.5t-166 160.5h-364l2 8h360q182 178 182 381 q0 174 -114.5 263t-284.5 89q-190 0 -346 -86z" />
<glyph unicode="4" horiz-adv-x="1130" d="M61 436q190 221 275.5 461t85.5 541h8q0 -305 -86 -544t-274 -460h624v430l8 4v-434h367l-2 -8h-365v-426h-8v426h-631z" />
<glyph unicode="5" horiz-adv-x="962" d="M102 72l4 6q162 -90 355 -90q180 0 295.5 92t115.5 293q0 109 -23.5 177t-89 122.5t-190.5 78t-321 23.5h-88v664h649l-2 -8h-639v-648q184 4 313 -12t207 -47t121 -85t57.5 -114.5t14.5 -150.5q0 -205 -119 -299t-301 -94q-197 0 -359 92z" />
<glyph unicode="6" horiz-adv-x="1087" d="M123 657q0 406 138 603.5t362 197.5q150 0 323 -90l-4 -8q-174 90 -319 90q-221 0 -356.5 -195.5t-135.5 -597.5v-14q295 164 510 164q178 0 271.5 -109.5t93.5 -298.5q0 -178 -119 -298.5t-318 -120.5q-203 0 -324.5 170.5t-121.5 506.5zM131 635q4 -319 123 -483 t315.5 -164t312 117.5t115.5 293.5q0 186 -91 293t-265 107q-215 0 -510 -164z" />
<glyph unicode="7" horiz-adv-x="915" d="M41 1430l2 8h829l2 -11q-291 -352 -404.5 -671.5t-113.5 -755.5h-8q0 438 112.5 758.5t403.5 671.5h-823z" />
<glyph unicode="8" horiz-adv-x="1142" d="M102 319q0 63 29 119t64.5 93.5t109.5 82.5t119 67l137 64q-100 45 -158.5 78t-127 82t-100.5 107.5t-32 128.5q0 143 113 230t315.5 87t315 -87t112.5 -230q0 -70 -31.5 -128.5t-100 -107.5t-127 -81.5t-158.5 -78.5l137 -64q45 -22 118.5 -67t109.5 -82.5t64.5 -93 t28.5 -119.5q0 -156 -119.5 -247.5t-349 -91.5t-349.5 91.5t-120 247.5zM111 319q0 -154 117.5 -242.5t343 -88.5t343 89t117.5 242q0 51 -15.5 96.5t-56 86.5t-70.5 67.5t-101.5 64.5t-101.5 52l-116 55l-115 -55q-30 -14 -101.5 -52t-101.5 -64.5t-71 -67.5t-56 -86.5 t-15 -96.5zM152 1141q0 -70 31.5 -127.5t101 -106.5t127 -79.5t159.5 -77.5q104 47 159.5 76.5t126.5 79.5t102.5 107.5t31.5 127.5q0 139 -111.5 224t-308 85t-308 -85t-111.5 -224z" />
<glyph unicode="9" horiz-adv-x="1087" d="M82 1038q0 178 118.5 299t317.5 121q203 0 325 -171t122 -507q0 -406 -138.5 -603t-361.5 -197q-150 0 -324 90l4 8q174 -90 320 -90q221 0 356 195.5t135 596.5v15q-295 -164 -510 -164q-178 0 -271 109.5t-93 297.5zM90 1038q0 -186 91 -292.5t265 -106.5 q215 0 510 164q-4 319 -122.5 483t-315 164t-312.5 -118t-116 -294z" />
<glyph unicode=":" horiz-adv-x="241" d="M109 10.5q0 12.5 12 12.5t12 -12.5t-12 -12.5t-12 12.5zM109 944q0 12 12 12t12 -12t-12 -12t-12 12z" />
<glyph unicode=";" horiz-adv-x="241" d="M78 -244q39 84 56.5 142.5t17.5 124t-25 139.5l8 2q35 -121 21.5 -205t-70.5 -205zM109 944q0 12 12 12t12 -12t-12 -12t-12 12z" />
<glyph unicode="&#x3c;" horiz-adv-x="1150" d="M82 713l2 12l979 461l4 -8l-975 -459l975 -461l-4 -8z" />
<glyph unicode="=" horiz-adv-x="1150" d="M102 446l2 9h945l-2 -9h-945zM102 983l2 8h945l-2 -8h-945z" />
<glyph unicode="&#x3e;" horiz-adv-x="1150" d="M82 260l975 459l-975 461l4 8l981 -463l-2 -12l-979 -461z" />
<glyph unicode="?" horiz-adv-x="923" d="M82 1397q180 61 348 61q195 0 303.5 -98t108.5 -262q0 -152 -92.5 -278t-307.5 -183v-315l-8 -3v324q205 53 302.5 174t97.5 281q0 170 -113 261t-291 91q-168 0 -344 -61zM426 10.5q0 12.5 12.5 12.5t12.5 -12.5t-12.5 -12.5t-12.5 12.5z" />
<glyph unicode="@" horiz-adv-x="2045" d="M123 313q0 276 74.5 489.5t209 346.5t314.5 200.5t397 67.5q389 0 597 -200.5t208 -581.5q0 -313 -116.5 -484t-311.5 -171q-90 0 -141 61t-56.5 146t7.5 173q-133 -174 -248 -277t-228 -103q-117 0 -177 99t-60 275q0 141 26.5 253t68.5 179.5t100.5 111.5t116 60.5 t118.5 16.5q145 0 356 -92l-69 -557q-20 -166 32 -252t154 -86q193 0 306.5 169t113.5 478q0 379 -208 576.5t-589 197.5q-215 0 -393 -67.5t-312 -199.5t-208 -343t-74 -486q0 -354 198.5 -550.5t575.5 -196.5q238 0 436 88l5 -8q-201 -88 -441 -88q-381 0 -581.5 197.5 t-200.5 557.5zM600 354q0 -174 59.5 -270t169.5 -96q188 0 478 389l63 500q-199 90 -348 90q-82 0 -152.5 -31t-133 -98.5t-99.5 -191.5t-37 -292z" />
<glyph unicode="A" horiz-adv-x="1257" d="M61 0l564 1438h8l563 -1438h-8l-174 444h-770l-174 -444h-9zM248 453h762l-381 972z" />
<glyph unicode="B" horiz-adv-x="1187" d="M164 31v1407h512q158 0 254 -94.5t96 -245.5q0 -215 -172 -367q113 -66 172 -164t59 -207q0 -180 -135 -280t-372 -100q-123 0 -414 51zM172 37q279 -49 406 -49q233 0 366 98t133 274q0 104 -59.5 201.5t-171.5 165.5h-674v-690zM172 735h672q174 154 174 363 q0 147 -94.5 239.5t-247.5 92.5h-504v-695z" />
<glyph unicode="C" horiz-adv-x="1224" d="M143 718.5q0 196.5 50.5 343t138.5 231.5t195.5 125t234.5 40q195 0 381 -84l-4 -8q-184 84 -377 84q-125 0 -231.5 -40t-193.5 -123t-136 -228.5t-49 -340t49 -340t136 -228t193.5 -122.5t231.5 -40q193 0 377 84l4 -9q-186 -84 -381 -83q-127 0 -234.5 39.5 t-195.5 124.5t-138.5 231.5t-50.5 343z" />
<glyph unicode="D" horiz-adv-x="1400" d="M164 20v1418h454q639 0 639 -707q0 -375 -182 -563t-469 -188q-239 -1 -442 40zM172 27q203 -39 434 -39q285 0 464 186t179 557q0 698 -631 699h-446v-1403z" />
<glyph unicode="E" horiz-adv-x="1103" d="M164 0v1438h837l-2 -8h-827v-707h733l-2 -8h-731v-707h829l-2 -8h-835z" />
<glyph unicode="F" horiz-adv-x="1042" d="M164 0v1438h837l-2 -8h-827v-721h733l-2 -9h-731v-700h-8z" />
<glyph unicode="G" horiz-adv-x="1372" d="M143 719q0 383 176.5 561t462.5 178q188 0 375 -84l-4 -8q-184 84 -371 84q-285 0 -457.5 -176t-172.5 -555q0 -375 167.5 -553t452.5 -178q182 0 428 88v547h-485l2 8h491v-561q-248 -90 -436 -90q-289 0 -459 180t-170 559z" />
<glyph unicode="H" horiz-adv-x="1323" d="M164 0v1438h8v-729h979v729h8v-1438h-8v700h-979v-700h-8z" />
<glyph unicode="I" d="M164 0v1438h8v-1438h-8z" />
<glyph unicode="J" horiz-adv-x="397" d="M-39 -311q137 113 200.5 222t63.5 247v1280h8v-1280q0 -141 -63.5 -251t-204.5 -226z" />
<glyph unicode="K" horiz-adv-x="1083" d="M164 0v1438h8v-713l797 713h12l-803 -719l803 -719h-12l-797 713v-713h-8z" />
<glyph unicode="L" horiz-adv-x="1042" d="M164 0v1438h8v-1430h829l-2 -8h-835z" />
<glyph unicode="M" horiz-adv-x="1884" d="M102 0l260 1438h11l569 -1426l569 1426h11l260 -1438h-8l-258 1427l-570 -1427h-8l-569 1427l-258 -1427h-9z" />
<glyph unicode="N" horiz-adv-x="1323" d="M164 0v1438l8 2l979 -1428v1426h8v-1438l-8 -2l-979 1427v-1425h-8z" />
<glyph unicode="O" horiz-adv-x="1527" d="M143 719q0 739 620.5 739t620.5 -739t-620.5 -739t-620.5 739zM152 719q0 -731 612 -731t612 731t-612 731t-612 -731z" />
<glyph unicode="P" horiz-adv-x="1114" d="M164 0v1438h299q276 0 422.5 -98.5t146.5 -319.5t-157.5 -336t-417.5 -115q-76 0 -285 21v-590h-8zM172 598q184 -20 285 -20q256 0 411.5 112.5t155.5 329.5t-144.5 313.5t-416.5 96.5h-291v-832z" />
<glyph unicode="Q" horiz-adv-x="1527" d="M143 719q0 739 620.5 739t620.5 -739q0 -657 -489 -729q55 -188 135 -274.5t189 -86.5q66 0 161 37l2 -8q-96 -37 -163 -37q-113 0 -194 88t-138 279q-82 -8 -123 -8q-621 0 -621 739zM152 719q0 -731 612 -731t612 731t-612 731t-612 -731z" />
<glyph unicode="R" horiz-adv-x="1173" d="M164 0v1438h291q537 0 536 -391q0 -160 -89 -260.5t-245 -141.5l410 -645h-10l-410 643q-88 -20 -198 -20q-43 0 -277 18v-641h-8zM172 649q190 -18 277 -18q240 0 387 105.5t147 310.5q0 383 -528 383h-283v-781z" />
<glyph unicode="S" horiz-adv-x="1101" d="M143 1133q0 162 111 243.5t299 81.5q199 0 352 -92l-2 -8q-160 92 -350 92q-184 0 -292.5 -80t-108.5 -237q0 -86 44 -155t115.5 -115t157.5 -88l172 -83q86 -41 157.5 -88t115.5 -115.5t44 -154.5q0 -168 -123.5 -261t-308.5 -93q-178 0 -362 88l2 10q186 -90 360 -90 q180 0 302 91t122 255q0 115 -83 199.5t-201 140.5l-238 110q-119 55 -202 142.5t-83 206.5z" />
<glyph unicode="T" horiz-adv-x="1105" d="M0 1430l2 8h1104l-2 -8h-547v-1430h-8v1430h-549z" />
<glyph unicode="U" horiz-adv-x="1323" d="M164 399v1039h8v-1039q0 -213 131 -312t358.5 -99t358.5 99t131 312v1039h8v-1039q0 -217 -133 -318t-364.5 -101t-364.5 101t-133 318z" />
<glyph unicode="V" horiz-adv-x="1257" d="M51 1438h8l570 -1426l569 1426h8l-573 -1438h-8z" />
<glyph unicode="W" horiz-adv-x="1912" d="M51 1438h8l447 -1424l446 1424h9l446 -1424l446 1424h9l-451 -1438h-8l-447 1423l-446 -1423h-8z" />
<glyph unicode="X" horiz-adv-x="1331" d="M123 0l536 719l-536 719h10l533 -713l532 713h10l-536 -719l536 -719h-10l-532 713l-533 -713h-10z" />
<glyph unicode="Y" horiz-adv-x="1130" d="M41 1436l8 4l516 -783l516 783l9 -4l-521 -787v-649h-8v649z" />
<glyph unicode="Z" horiz-adv-x="1171" d="M102 8l953 1422h-942l2 8h946l4 -8l-952 -1422h956l-2 -8h-961z" />
<glyph unicode="[" horiz-adv-x="430" d="M164 -119v1794h266l-2 -8h-256v-1778h258l-2 -8h-264z" />
<glyph unicode="\" horiz-adv-x="524" d="M-82 1714l8 2l680 -1872l-8 -2z" />
<glyph unicode="]" horiz-adv-x="430" d="M0 -119l2 8h256v1778h-258l2 8h264v-1794h-266z" />
<glyph unicode="^" horiz-adv-x="864" d="M41 483l387 955h8l387 -955h-8l-383 944l-383 -944h-8z" />
<glyph unicode="_" horiz-adv-x="880" d="M0 -80l2 8h879l-2 -8h-879z" />
<glyph unicode="`" horiz-adv-x="380" d="M102 1430h11l166 -316h-11z" />
<glyph unicode="a" horiz-adv-x="892" d="M102 201q0 63 24 109t86 90t189 75t320 47v170q0 274 -232 275q-129 0 -350 -93l-2 9q221 92 352 92q240 0 240 -283v-692h-8v162q-76 -84 -181.5 -133t-199.5 -49q-104 0 -171 54t-67 167zM111 201q0 -109 64.5 -161t164.5 -52q94 0 200.5 50t180.5 134v342 q-190 -16 -315 -46t-187.5 -73t-85 -88t-22.5 -106z" />
<glyph unicode="b" horiz-adv-x="1042" d="M164 68v1400l8 2v-651q233 156 418 156q330 0 330 -498q0 -258 -110 -377.5t-290 -119.5q-170 0 -356 88zM172 72q184 -84 348 -84q176 0 283.5 117.5t107.5 371.5q0 489 -321 490q-182 0 -418 -156v-739z" />
<glyph unicode="c" horiz-adv-x="880" d="M123 477q0 258 114.5 378t290.5 120q129 0 250 -57l-2 -9q-117 57 -248 58q-172 0 -284.5 -118t-112.5 -372t112.5 -371.5t284.5 -117.5q131 0 248 57l2 -8q-121 -57 -250 -57q-176 0 -290.5 119.5t-114.5 377.5z" />
<glyph unicode="d" horiz-adv-x="1042" d="M123 477q0 258 109.5 378t289.5 120q164 0 348 -84v577l9 2v-1470h-9v135q-233 -156 -417 -155q-330 -1 -330 497zM131 477q0 -489 322 -489q182 0 417 155v740q-184 84 -348 84q-176 0 -283.5 -118t-107.5 -372z" />
<glyph unicode="e" horiz-adv-x="974" d="M123 477q0 498 393 498q170 0 265 -135q71 -101 71 -255q0 -53 -8 -112h-713q0 -256 115.5 -370.5t288.5 -114.5q127 0 278 57l2 -8q-152 -57 -280 -57q-174 0 -293 118.5t-119 378.5zM131 481h705q7 53 7 101q0 150 -69 252q-90 133 -258 133q-385 -1 -385 -486z" />
<glyph unicode="f" horiz-adv-x="628" d="M41 946l2 8h172v230q0 129 55.5 217t182.5 88q72 0 155 -29l-2 -8q-84 29 -153 29q-123 0 -176.5 -85t-53.5 -212v-230h350l-2 -8h-348v-946h-8v946h-174z" />
<glyph unicode="g" horiz-adv-x="946" d="M82 -172q0 82 58.5 158.5t168.5 128.5q-57 12 -86.5 46t-29.5 79q0 51 35.5 101t90.5 83q-98 27 -150 96.5t-52 169.5q0 131 83 208t242 77q74 0 142 -21h260l-2 -8h-236q160 -68 160 -256q0 -129 -83 -204.5t-241 -75.5q-57 0 -110 12q-55 -33 -93 -82t-38 -100.5 t42 -87t128 -35.5h153q174 0 267.5 -63.5t93.5 -168.5q0 -117 -120 -206t-341 -89q-164 0 -253 69t-89 169zM90 -172q0 -98 88 -163.5t246 -65.5q217 0 335 87t118 199q0 102 -91.5 163t-261.5 61h-153q-31 0 -47 4q-111 -49 -172.5 -127t-61.5 -158zM125 690 q0 -125 81 -198.5t236 -73.5q154 0 235 73.5t81 198.5q0 127 -81 202t-235 75q-156 0 -236.5 -74t-80.5 -203z" />
<glyph unicode="h" horiz-adv-x="991" d="M164 0v1468l8 2v-647q248 152 389 152q115 0 190.5 -74t75.5 -244v-657h-8v657q0 166 -72.5 238t-185.5 72q-139 0 -389 -152v-815h-8z" />
<glyph unicode="i" d="M156 1196q0 12 12 12t12 -12t-12 -12t-12 12zM164 0v952l8 2v-954h-8z" />
<glyph unicode="j" d="M-41 -385q106 98 155.5 195.5t49.5 220.5v921l8 2v-923q0 -125 -49 -223.5t-156 -196.5zM156 1196q0 12 12 12t12 -12t-12 -12t-12 12z" />
<glyph unicode="k" horiz-adv-x="841" d="M164 0v1468l8 2v-966l567 450h13l-574 -456l623 -498h-13l-616 492v-492h-8z" />
<glyph unicode="l" horiz-adv-x="487" d="M164 195v1273l8 5v-1278q0 -117 38 -162t122 -45q47 0 133 26l2 -8q-86 -27 -135 -26q-88 0 -128 47t-40 168z" />
<glyph unicode="m" horiz-adv-x="1564" d="M160 0v952l8 2v-131q233 152 367 152q166 0 221 -150q236 150 393 150q106 0 177 -74t71 -244v-657h-8v657q0 166 -69 238t-171 72q-162 0 -389 -150q23 -63 22 -160v-657h-8v657q0 166 -68.5 238t-170.5 72q-131 0 -367 -152v-815h-8z" />
<glyph unicode="n" horiz-adv-x="991" d="M164 0v952l8 2v-131q248 152 389 152q115 0 190.5 -74t75.5 -244v-657h-8v657q0 166 -72.5 238t-185.5 72q-139 0 -389 -152v-815h-8z" />
<glyph unicode="o" horiz-adv-x="1058" d="M123 477.5q0 497.5 407 497.5q406 0 406 -497.5t-406 -497.5q-407 0 -407 497.5zM131 477.5q0 -489.5 399 -489.5q397 0 397.5 489.5t-397.5 489.5q-399 0 -399 -489.5z" />
<glyph unicode="p" horiz-adv-x="1042" d="M164 -391v1343l8 2v-135q233 156 418 156q330 0 330 -498q0 -258 -110 -377.5t-290 -119.5q-164 0 -348 83v-452zM172 72q184 -84 348 -84q176 0 283.5 117.5t107.5 371.5q0 489 -321 490q-182 0 -418 -156v-739z" />
<glyph unicode="q" horiz-adv-x="1042" d="M123 477q0 258 109.5 378t289.5 120q170 0 357 -88v-1276l-9 -2v526q-233 -156 -417 -155q-330 -1 -330 497zM131 477q0 -489 322 -489q182 0 417 155v740q-184 84 -348 84q-176 0 -283.5 -118t-107.5 -372z" />
<glyph unicode="r" horiz-adv-x="657" d="M164 0v952l8 2v-211q90 131 156 183q64 50 133 50h3q71 -1 173 -24l-2 -8q-88 23 -154 23q-56 0 -96 -17q-86 -37 -213 -221v-729h-8z" />
<glyph unicode="s" horiz-adv-x="833" d="M133 45l2 8q131 -66 256 -65q117 0 209 62.5t92 185.5q0 76 -57 131t-139 90l-165 69q-83 35 -140.5 92.5t-57.5 137.5q0 109 82 164t205 55q129 0 250 -66l-2 -8q-115 66 -248 66q-121 0 -200 -53.5t-79 -157.5q0 -78 57.5 -133.5t140.5 -90.5l165 -69q82 -35 139 -92.5 t57 -134.5q0 -127 -95 -191.5t-214 -64.5q-133 -1 -258 65z" />
<glyph unicode="t" horiz-adv-x="690" d="M41 946l2 8h172v316l8 2v-318h350l-2 -8h-348v-661q0 -127 53.5 -212t176.5 -85q70 0 153 28l2 -8q-84 -29 -155 -28q-127 0 -182.5 88t-55.5 217v661h-174z" />
<glyph unicode="u" horiz-adv-x="991" d="M164 297v655l8 2v-657q0 -166 72.5 -237.5t185.5 -71.5q139 0 389 151v813l8 2v-954h-8v131q-248 -152 -389 -151q-115 0 -190.5 73.5t-75.5 243.5z" />
<glyph unicode="v" horiz-adv-x="864" d="M41 954h8l383 -944l383 944h8l-387 -954h-8z" />
<glyph unicode="w" horiz-adv-x="1413" d="M41 954h8l322 -944l331 944h9l331 -944l322 944h8l-325 -954h-9l-331 942l-332 -942h-8z" />
<glyph unicode="x" horiz-adv-x="856" d="M61 0l363 477l-363 477h11l356 -471l356 471h11l-363 -477l363 -477h-11l-356 471l-356 -471h-11z" />
<glyph unicode="y" horiz-adv-x="864" d="M41 954h8l383 -944l383 944h8l-544 -1343h-9l158 389z" />
<glyph unicode="z" horiz-adv-x="817" d="M61 8l684 938h-643l2 8h646l6 -8l-684 -938h684l-2 -8h-686z" />
<glyph unicode="{" horiz-adv-x="516" d="M41 772l2 8h43q59 0 99 25.5t58.5 73t25.5 94.5t7 108v293q0 57 1.5 86t13.5 86.5t35.5 85t71.5 46t118 5.5l-2 -8q-66 12 -113 -6t-69.5 -46t-33.5 -83t-12 -82.5t-1 -83.5v-293q0 -274 -156 -305q156 -31 156 -305v-293q0 -55 1 -82.5t12 -83t33.5 -83t70 -46 t112.5 -6.5l2 -8q-70 -12 -118 6.5t-71.5 46t-35.5 84.5t-13.5 86t-1.5 86v293q0 61 -7 108.5t-25.5 94.5t-58.5 72.5t-99 25.5h-45z" />
<glyph unicode="|" horiz-adv-x="376" d="M184 -119v1792l9 2v-1792z" />
<glyph unicode="}" horiz-adv-x="516" d="M0 -131l2 8q66 -12 113 6.5t69.5 46t33.5 83t12 83t1 82.5v293q0 274 156 305q-156 31 -156 305v293q0 55 -1 83t-12 83t-33.5 83t-69.5 46.5t-113 5.5l-2 8q70 12 118 -6t71.5 -45.5t36 -85t13.5 -86t1 -86.5v-293q0 -61 7 -108t25.5 -94.5t58.5 -73t99 -25.5h45l-2 -8 h-43q-59 0 -99 -25.5t-58.5 -72.5t-25.5 -94.5t-7 -108.5v-293q0 -57 -1 -86t-13.5 -86t-36 -84.5t-71.5 -46t-118 -6.5z" />
<glyph unicode="~" horiz-adv-x="1140" d="M102 575q82 213 228 213q72 0 136 -37.5t107 -83.5t106.5 -84t133.5 -38q135 0 219 211l6 -6q-86 -213 -225 -213q-72 0 -136.5 37.5t-107.5 84t-106.5 84t-132.5 37.5q-139 0 -221 -211z" />
<glyph unicode="&#xa1;" horiz-adv-x="385" d="M180 1038.5q0 12.5 12.5 12.5t12.5 -12.5t-12.5 -12.5t-12.5 12.5zM188 -389v1116l9 2v-1118h-9z" />
<glyph unicode="&#xa2;" horiz-adv-x="999" d="M102 927.5q0 139.5 38 244t105.5 164t149.5 89t180 33.5v228l9 2v-230h14q158 0 299 -59l-2 -8q-141 59 -297 59q-213 0 -350 -125t-137 -397q0 -186 70.5 -307t176 -168t240.5 -47q156 0 297 59l2 -8q-141 -59 -299 -60h-14v-225l-9 -2v227q-98 4 -180 34t-149.5 89.5 t-105.5 163.5t-38 243.5z" />
<glyph unicode="&#xa3;" horiz-adv-x="1058" d="M94 10q313 293 316 643h-314l2 9h312q-2 43 -75 205.5t-73 260.5q0 141 69.5 235.5t223.5 94.5q170 0 340 -51l-2 -8q-170 51 -338 51q-147 0 -216 -92t-69 -230q0 -92 73 -254.5t75 -211.5h477l-2 -9h-475q-2 -352 -316 -645h859l-3 -8h-862z" />
<glyph unicode="&#xa4;" horiz-adv-x="1146" d="M182 330l125 127q-100 100 -100 264q0 158 98 262l-123 125l4 6l125 -125q104 98 262 98q160 0 265 -100l127 127l4 -6l-127 -127q98 -104 98 -260q0 -162 -100 -262l129 -129l-4 -6l-129 129q-104 -98 -262 -98.5t-261 96.5l-127 -127zM215 721q0 -160 99.5 -259.5 t259 -99.5t259 99.5t99.5 259.5t-99.5 259t-259 99t-259 -99t-99.5 -259z" />
<glyph unicode="&#xa5;" horiz-adv-x="1132" d="M41 1436l8 4l516 -783l516 783l9 -4l-521 -787h418l-2 -8h-416v-313h418l-2 -9h-416v-319h-8v319h-418l2 9h416v313h-418l2 8h416z" />
<glyph unicode="&#xa6;" horiz-adv-x="376" d="M184 -119v731l9 2v-731zM184 942v731l9 2v-731z" />
<glyph unicode="&#xa7;" horiz-adv-x="1048" d="M102 1016q0 209 129 325.5t324 116.5q160 0 346 -96l-4 -8q-186 96 -342 96q-80 0 -149 -20q-20 -150 -3 -261.5t64 -219t107 -190.5l126 -176l120 -176q54 -83 90 -189.5t36 -217.5q0 -209 -129 -325.5t-323 -116.5q-160 0 -347 96l5 8q186 -96 342 -96q82 0 149 20 q20 150 3 260.5t-64 218t-108 191.5l-126 177l-120 176q-54 83 -90 189.5t-36 217.5zM111 1016q0 -111 35.5 -217.5t90.5 -189.5l119 -176l126 -176q60 -83 107.5 -190.5t65 -218t-3.5 -260.5q131 39 209 145.5t78 266.5q0 111 -36 216.5t-90 187.5l-120 177l-126 177 q-60 84 -107 190.5t-64.5 218t2.5 260.5q-129 -41 -207.5 -147t-78.5 -264z" />
<glyph unicode="&#xa8;" horiz-adv-x="571" d="M102 1196q0 12 12.5 12t12.5 -12t-12.5 -12t-12.5 12zM444 1196q0 12 12.5 12t12.5 -12t-12.5 -12t-12.5 12z" />
<glyph unicode="&#xa9;" horiz-adv-x="1601" d="M61 719q0 328 206 533.5t533.5 205.5t533.5 -205.5t206 -533.5t-206 -533.5t-533.5 -205.5t-533.5 205.5t-206 533.5zM70 718.5q0 -323.5 203.5 -527t527 -203.5t527.5 203.5t204 527t-204 527.5t-527.5 204t-527 -204t-203.5 -527.5zM430 719q0 209 105.5 305t273.5 96 q119 0 231 -41l-2 -8q-113 41 -229 41q-164 0 -267.5 -94t-103.5 -299t103.5 -300t267.5 -95q117 0 229 41l2 -9q-113 -41 -231 -41q-168 0 -273.5 97.5t-105.5 306.5z" />
<glyph unicode="&#xaa;" horiz-adv-x="587" d="M61 969q0 84 84 133t332 69v109q0 170 -155 170q-76 0 -234 -57l-2 8q158 57 236 57q164 0 163 -178v-438h-8v98q-53 -51 -123.5 -81t-130.5 -30q-72 0 -117 35t-45 105zM70 969q0 -66 43 -98.5t110 -32.5q59 0 131 31.5t123 82.5v211q-168 -14 -261 -43.5t-119.5 -63.5 t-26.5 -87z" />
<glyph unicode="&#xab;" horiz-adv-x="763" d="M20 473l3 10l417 410l6 -6l-417 -410l417 -407l-6 -7zM297 473l2 10l418 410l6 -6l-418 -410l418 -407l-6 -7z" />
<glyph unicode="&#xac;" horiz-adv-x="1150" d="M102 715l2 8h945v-475l-9 -2v469h-938z" />
<glyph unicode="&#xad;" horiz-adv-x="464" d="M61 473l2 8h340l-2 -8h-340z" />
<glyph unicode="&#xae;" horiz-adv-x="864" d="M61 1087.5q0 163.5 103.5 267t267.5 103.5t267.5 -103.5t103.5 -267t-103.5 -267t-267.5 -103.5t-267.5 103.5t-103.5 267zM70 1087.5q0 -161.5 100 -262t262 -100.5t262.5 100.5t100.5 262t-100.5 262t-262.5 100.5t-262 -100.5t-100 -262zM311 889v393h78 q178 0 178 -121q0 -88 -104 -114q25 -154 96 -154q27 0 57 14l2 -8q-31 -14 -59 -14q-43 0 -66.5 38t-37.5 121q-31 -6 -68 -6q-47 0 -68 2v-151h-8zM319 1049q20 -2 68 -2q80 0 126 30.5t46 83.5q0 113 -170 113h-70v-225z" />
<glyph unicode="&#xaf;" horiz-adv-x="761" d="M102 1208l2 9h555l-2 -9h-555z" />
<glyph unicode="&#xb0;" horiz-adv-x="598" d="M61 1219q0 106 66 172.5t170 66.5q106 0 173 -66.5t67 -172.5q0 -104 -67 -170t-173 -66q-104 0 -170 66t-66 170zM70 1219q0 -100 63.5 -164t163.5 -64q102 0 166.5 63.5t64.5 164.5q0 102 -64.5 166.5t-166.5 64.5q-100 0 -163.5 -64.5t-63.5 -166.5z" />
<glyph unicode="&#xb1;" horiz-adv-x="1150" d="M102 0l2 8h945l-2 -8h-945zM102 715l2 8h467v467l9 2v-469h469l-2 -8h-467v-467l-9 -2v469h-469z" />
<glyph unicode="&#xb2;" horiz-adv-x="600" d="M41 686q240 174 356.5 305t116.5 241.5t-70.5 164t-175.5 53.5q-129 0 -213 -51l-2 8q90 51 215 51q111 0 182.5 -56t71.5 -169q0 -117 -117.5 -249t-355.5 -302h490l-2 -8h-494z" />
<glyph unicode="&#xb3;" horiz-adv-x="614" d="M51 1405q100 53 225 53q106 0 174 -48t68 -148q0 -113 -108 -205q133 -70 133 -193q0 -104 -71 -156.5t-179 -52.5q-102 0 -240 56l4 8q137 -55 236 -55q104 0 173 50t69 150q0 117 -132 187h-231l2 8h225q111 94 111 203q0 96 -65.5 142t-168.5 46q-121 0 -221 -53z" />
<glyph unicode="&#xb4;" horiz-adv-x="380" d="M102 1114l166 316h11l-166 -316h-11z" />
<glyph unicode="&#xb5;" horiz-adv-x="991" d="M164 -391v1343l8 2v-657q0 -166 72.5 -237.5t185.5 -71.5q139 0 389 151v813l8 2v-954h-8v131q-248 -152 -389 -151q-219 0 -258 219v-588z" />
<glyph unicode="&#xb6;" horiz-adv-x="1001" d="M72 1118.5q0 141.5 89 230.5t230 89h610l-2 -8h-147v-1430h-8v1430h-314v-1430h-8v799h-131q-141 0 -230 89t-89 230.5z" />
<glyph unicode="&#xb7;" horiz-adv-x="229" d="M102 719q0 12 12.5 12t12.5 -12t-12.5 -12t-12.5 12z" />
<glyph unicode="&#xb8;" horiz-adv-x="514" d="M102 -373l4 6q53 -35 130 -34q70 0 118.5 33.5t48.5 97.5q0 57 -37.5 93t-93.5 36q-39 0 -88 -25l-8 8l76 144l8 -4l-74 -138q45 23 86 23q59 0 99.5 -37t40.5 -100q0 -68 -51.5 -104t-122.5 -36q-81 0 -136 37z" />
<glyph unicode="&#xb9;" horiz-adv-x="583" d="M41 674l2 8h266v760l-268 -103v11l268 100h8v-768h236l-2 -8h-510z" />
<glyph unicode="&#xba;" horiz-adv-x="700" d="M82 1143q0 160 71.5 237.5t196.5 77.5t196.5 -77.5t71.5 -237.5t-71.5 -237t-196.5 -77t-196.5 77t-71.5 237zM90 1143q0 -156 68.5 -230.5t191.5 -74.5t191.5 74.5t68.5 230.5q0 154 -69.5 230.5t-190.5 76.5t-190.5 -76.5t-69.5 -230.5z" />
<glyph unicode="&#xbb;" horiz-adv-x="763" d="M41 68l418 409l-418 408l6 6l420 -410l-2 -10l-418 -410zM317 68l418 409l-418 408l7 6l419 -410l-2 -10l-417 -410z" />
<glyph unicode="&#xbc;" horiz-adv-x="1351" d="M41 674l2 8h266v760l-268 -103v11l268 100h8v-768h236l-2 -8h-510zM217 0l973 1438h8l-973 -1438h-8zM766 236q195 229 195 540h8q0 -313 -195 -543h332v234l10 2v-236h195l-2 -8h-193v-225h-10v225h-338z" />
<glyph unicode="&#xbd;" horiz-adv-x="1351" d="M41 674l2 8h266v760l-268 -103v11l268 100h8v-768h236l-2 -8h-510zM217 0l973 1438h8l-973 -1438h-8zM809 12q240 174 356.5 305.5t116.5 242t-70.5 163.5t-175.5 53q-129 0 -213 -51l-2 8q90 51 215 51q111 0 182.5 -56t71.5 -169q0 -117 -117.5 -249t-355.5 -302h490 l-2 -8h-494z" />
<glyph unicode="&#xbe;" horiz-adv-x="1351" d="M51 1405q100 53 225 53q106 0 174 -48t68 -148q0 -113 -108 -205q133 -70 133 -193q0 -104 -71 -156.5t-179 -52.5q-102 0 -240 56l4 8q137 -55 236 -55q104 0 173 50t69 150q0 117 -132 187h-231l2 8h225q111 94 111 203q0 96 -65.5 142t-168.5 46q-121 0 -221 -53z M217 0l973 1438h8l-973 -1438h-8zM766 236q195 229 195 540h8q0 -313 -195 -543h332v234l10 2v-236h195l-2 -8h-193v-225h-10v225h-338z" />
<glyph unicode="&#xbf;" horiz-adv-x="923" d="M82 -49q0 152 92 277.5t307 183.5v315l8 2v-323q-205 -53 -302 -174t-97 -281q0 -170 112.5 -261t291.5 -91q168 0 344 61l4 -8q-182 -61 -348 -62q-195 0 -303.5 98.5t-108.5 262.5zM473 1038.5q0 12.5 12.5 12.5t12.5 -12.5t-12.5 -12.5t-12.5 12.5z" />
<glyph unicode="&#xc0;" horiz-adv-x="1257" d="M61 0l564 1438h8l563 -1438h-8l-174 444h-770l-174 -444h-9zM248 453h762l-381 972zM403 1815h13l235 -246h-12z" />
<glyph unicode="&#xc1;" horiz-adv-x="1257" d="M61 0l564 1438h8l563 -1438h-8l-174 444h-770l-174 -444h-9zM248 453h762l-381 972zM608 1569l236 246h12l-235 -246h-13z" />
<glyph unicode="&#xc2;" horiz-adv-x="1257" d="M61 0l564 1438h8l563 -1438h-8l-174 444h-770l-174 -444h-9zM248 453h762l-381 972zM377 1569l248 246h8l248 -246h-11l-241 237l-242 -237h-10z" />
<glyph unicode="&#xc3;" horiz-adv-x="1257" d="M61 0l564 1438h8l563 -1438h-8l-174 444h-770l-174 -444h-9zM248 453h762l-381 972zM358 1550q29 127 148 127q51 0 131 -70.5t123 -70.5q102 0 131 115l8 -2q-29 -121 -139 -121q-47 0 -126 70.5t-128 70.5q-111 0 -139 -121z" />
<glyph unicode="&#xc4;" horiz-adv-x="1257" d="M61 0l564 1438h8l563 -1438h-8l-174 444h-770l-174 -444h-9zM248 453h762l-381 972zM446 1646.5q0 12.5 12.5 12.5t12.5 -12.5t-12.5 -12.5t-12.5 12.5zM788 1646.5q0 12.5 12.5 12.5t12.5 -12.5t-12.5 -12.5t-12.5 12.5z" />
<glyph unicode="&#xc5;" horiz-adv-x="1257" d="M61 0l564 1438q-70 2 -113 46t-43 113q0 72 45 117t115 45q72 0 117 -46t45 -115.5t-44.5 -113.5t-113.5 -46l563 -1438h-8l-174 444h-770l-174 -444h-9zM248 453h762l-381 972zM477 1597.5q0 -67.5 42 -109.5t109.5 -42t110.5 42t43 109.5t-43 110.5t-110.5 43 t-109.5 -43t-42 -110.5z" />
<glyph unicode="&#xc6;" horiz-adv-x="1869" d="M-41 0l971 1438h837l-2 -8h-827v-707h733l-2 -8h-731v-707h829l-2 -8h-835v444h-662l-299 -444h-10zM274 453h656v972z" />
<glyph unicode="&#xc7;" horiz-adv-x="1224" d="M143 719q0 197 50.5 343t138.5 231t195.5 125t234.5 40q195 0 381 -84l-4 -8q-184 84 -377 84q-125 0 -231.5 -40t-193.5 -123t-136 -228.5t-49 -340t49 -340t136 -228t193.5 -122.5t231.5 -40q193 0 377 84l4 -9q-193 -86 -400 -83l-71 -136q45 23 86 23q59 0 99 -37 t40 -100q0 -68 -51 -104t-123 -36q-80 0 -135 37l4 6q53 -35 129 -34q70 0 119 33.5t49 97.5q0 57 -38 93t-93 36q-39 0 -88 -25l-8 8l71 138q-123 4 -225 47t-186 128t-131.5 229.5t-47.5 334.5z" />
<glyph unicode="&#xc8;" horiz-adv-x="1103" d="M164 0v1438h837l-2 -8h-827v-707h733l-2 -8h-731v-707h829l-2 -8h-835zM461 1815h12l236 -246h-13z" />
<glyph unicode="&#xc9;" horiz-adv-x="1103" d="M164 0v1438h837l-2 -8h-827v-707h733l-2 -8h-731v-707h829l-2 -8h-835zM461 1569l235 246h13l-236 -246h-12z" />
<glyph unicode="&#xca;" horiz-adv-x="1103" d="M164 0v1438h837l-2 -8h-827v-707h733l-2 -8h-731v-707h829l-2 -8h-835zM332 1569l248 246h8l248 -246h-11l-241 237l-242 -237h-10z" />
<glyph unicode="&#xcb;" horiz-adv-x="1103" d="M164 0v1438h837l-2 -8h-827v-707h733l-2 -8h-731v-707h829l-2 -8h-835zM401 1646.5q0 12.5 12.5 12.5t12.5 -12.5t-12.5 -12.5t-12.5 12.5zM743 1646.5q0 12.5 12.5 12.5t12.5 -12.5t-12.5 -12.5t-12.5 12.5z" />
<glyph unicode="&#xcc;" d="M-57 1815h12l235 -246h-12zM164 0v1438h8v-1438h-8z" />
<glyph unicode="&#xcd;" d="M147 1569l236 246h12l-235 -246h-13zM164 0v1438h8v-1438h-8z" />
<glyph unicode="&#xce;" d="M-84 1569l248 246h8l248 -246h-10l-242 237l-242 -237h-10zM164 0v1438h8v-1438h-8z" />
<glyph unicode="&#xcf;" d="M-14 1646.5q0 12.5 12 12.5t12 -12.5t-12 -12.5t-12 12.5zM164 0v1438h8v-1438h-8zM328 1646.5q0 12.5 12 12.5t12 -12.5t-12 -12.5t-12 12.5z" />
<glyph unicode="&#xd0;" horiz-adv-x="1400" d="M0 715l2 8h162v715h454q639 0 639 -707q0 -375 -182 -563t-469 -188q-240 0 -442 40v695h-164zM172 27q203 -39 434 -39q285 0 464 186t179 557q0 698 -631 699h-446v-707h385l-2 -8h-383v-688z" />
<glyph unicode="&#xd1;" horiz-adv-x="1323" d="M164 0v1438l8 2l979 -1428v1426h8v-1438l-8 -2l-979 1427v-1425h-8zM391 1550q29 127 148 127q51 0 131 -70.5t123 -70.5q102 0 131 115l8 -2q-29 -121 -139 -121q-47 0 -126 70.5t-128 70.5q-111 0 -140 -121z" />
<glyph unicode="&#xd2;" horiz-adv-x="1527" d="M143 719q0 739 620.5 739t620.5 -739t-620.5 -739t-620.5 739zM152 719q0 -731 612 -731t612 731t-612 731t-612 -731zM600 1815h12l236 -246h-12z" />
<glyph unicode="&#xd3;" horiz-adv-x="1527" d="M143 719q0 739 620.5 739t620.5 -739t-620.5 -739t-620.5 739zM152 719q0 -731 612 -731t612 731t-612 731t-612 -731zM682 1569l236 246h12l-236 -246h-12z" />
<glyph unicode="&#xd4;" horiz-adv-x="1527" d="M143 719q0 739 620.5 739t620.5 -739t-620.5 -739t-620.5 739zM152 719q0 -731 612 -731t612 731t-612 731t-612 -731zM512 1569l248 246h8l248 -246h-10l-242 237l-242 -237h-10z" />
<glyph unicode="&#xd5;" horiz-adv-x="1527" d="M143 719q0 739 620.5 739t620.5 -739t-620.5 -739t-620.5 739zM152 719q0 -731 612 -731t612 731t-612 731t-612 -731zM494 1550q29 127 147 127q51 0 131 -70.5t123 -70.5q102 0 131 115l8 -2q-29 -121 -139 -121q-47 0 -126 70.5t-128 70.5q-111 0 -139 -121z" />
<glyph unicode="&#xd6;" horiz-adv-x="1527" d="M143 719q0 739 620.5 739t620.5 -739t-620.5 -739t-620.5 739zM152 719q0 -731 612 -731t612 731t-612 731t-612 -731zM582 1646.5q0 12.5 12 12.5t12 -12.5t-12 -12.5t-12 12.5zM924 1646.5q0 12.5 12 12.5t12 -12.5t-12 -12.5t-12 12.5z" />
<glyph unicode="&#xd7;" horiz-adv-x="1150" d="M182 330l387 389l-387 389l4 6l389 -389l390 389l4 -6l-387 -389l387 -389l-4 -6l-390 389l-389 -389z" />
<glyph unicode="&#xd8;" horiz-adv-x="1527" d="M143 719q0 739 621 739q258 0 412 -133l147 211l8 -4l-147 -213q201 -184 200 -600q0 -739 -620 -739q-264 0 -414 133l-145 -211l-8 4l147 213q-201 184 -201 600zM152 719q0 -412 196 -592l823 1190q-152 133 -407 133q-612 0 -612 -731zM356 121q152 -133 408 -133 q612 0 612 731q0 414 -198 592z" />
<glyph unicode="&#xd9;" horiz-adv-x="1323" d="M164 399v1039h8v-1039q0 -213 131 -312t358.5 -99t358.5 99t131 312v1039h8v-1039q0 -217 -133 -318t-364.5 -101t-364.5 101t-133 318zM498 1815h12l235 -246h-12z" />
<glyph unicode="&#xda;" horiz-adv-x="1323" d="M164 399v1039h8v-1039q0 -213 131 -312t358.5 -99t358.5 99t131 312v1039h8v-1039q0 -217 -133 -318t-364.5 -101t-364.5 101t-133 318zM580 1569l235 246h12l-235 -246h-12z" />
<glyph unicode="&#xdb;" horiz-adv-x="1323" d="M164 399v1039h8v-1039q0 -213 131 -312t358.5 -99t358.5 99t131 312v1039h8v-1039q0 -217 -133 -318t-364.5 -101t-364.5 101t-133 318zM410 1569l247 246h9l247 -246h-10l-241 237l-242 -237h-10z" />
<glyph unicode="&#xdc;" horiz-adv-x="1323" d="M164 399v1039h8v-1039q0 -213 131 -312t358.5 -99t358.5 99t131 312v1039h8v-1039q0 -217 -133 -318t-364.5 -101t-364.5 101t-133 318zM479 1646.5q0 12.5 12.5 12.5t12.5 -12.5t-12.5 -12.5t-12.5 12.5zM821 1646.5q0 12.5 12.5 12.5t12.5 -12.5t-12.5 -12.5 t-12.5 12.5z" />
<glyph unicode="&#xdd;" horiz-adv-x="1130" d="M41 1436l8 4l516 -783l516 783l9 -4l-521 -787v-649h-8v649zM524 1569l236 246h12l-235 -246h-13z" />
<glyph unicode="&#xde;" horiz-adv-x="1114" d="M164 0v1438h8v-289q209 20 285 20q260 0 417.5 -114.5t157.5 -335.5t-157.5 -336t-417.5 -115q-76 0 -285 21v-289h-8zM172 297q184 -20 285 -21q256 0 411.5 113t155.5 330t-155.5 329.5t-411.5 112.5q-100 0 -285 -20v-844z" />
<glyph unicode="&#xdf;" horiz-adv-x="1048" d="M164 0v1165q0 158 83 241t216 83q145 0 218 -77t73 -200q0 -88 -56 -202l-135 -246q174 -37 268.5 -157t94.5 -261q0 -152 -105.5 -259t-288.5 -107q-66 0 -159 26l2 8q94 -27 157 -26q178 0 282 105.5t104 252.5q0 137 -94.5 255t-266.5 155l-4 10l137 248 q55 115 55 198q0 121 -70.5 195t-211.5 74q-129 0 -210 -81t-81 -235v-1165h-8z" />
<glyph unicode="&#xe0;" horiz-adv-x="892" d="M102 201q0 63 24 109t86 90t189 75t320 47v170q0 274 -232 275q-129 0 -350 -93l-2 9q221 92 352 92q240 0 240 -283v-692h-8v162q-76 -84 -181.5 -133t-199.5 -49q-104 0 -171 54t-67 167zM111 201q0 -109 64.5 -161t164.5 -52q94 0 200.5 50t180.5 134v342 q-190 -16 -315 -46t-187.5 -73t-85 -88t-22.5 -106zM358 1430h11l166 -316h-11z" />
<glyph unicode="&#xe1;" horiz-adv-x="892" d="M102 201q0 63 24 109t86 90t189 75t320 47v170q0 274 -232 275q-129 0 -350 -93l-2 9q221 92 352 92q240 0 240 -283v-692h-8v162q-76 -84 -181.5 -133t-199.5 -49q-104 0 -171 54t-67 167zM111 201q0 -109 64.5 -161t164.5 -52q94 0 200.5 50t180.5 134v342 q-190 -16 -315 -46t-187.5 -73t-85 -88t-22.5 -106zM399 1114l166 316h10l-165 -316h-11z" />
<glyph unicode="&#xe2;" horiz-adv-x="892" d="M102 201q0 63 24 109t86 90t189 75t320 47v170q0 274 -232 275q-129 0 -350 -93l-2 9q221 92 352 92q240 0 240 -283v-692h-8v162q-76 -84 -181.5 -133t-199.5 -49q-104 0 -171 54t-67 167zM111 201q0 -109 64.5 -161t164.5 -52q94 0 200.5 50t180.5 134v342 q-190 -16 -315 -46t-187.5 -73t-85 -88t-22.5 -106zM227 1114l236 316h8l236 -316h-11l-229 307l-229 -307h-11z" />
<glyph unicode="&#xe3;" horiz-adv-x="892" d="M102 201q0 63 24 109t86 90t189 75t320 47v170q0 274 -232 275q-129 0 -350 -93l-2 9q221 92 352 92q240 0 240 -283v-692h-8v162q-76 -84 -181.5 -133t-199.5 -49q-104 0 -171 54t-67 167zM111 201q0 -109 64.5 -161t164.5 -52q94 0 200.5 50t180.5 134v342 q-190 -16 -315 -46t-187.5 -73t-85 -88t-22.5 -106zM186 1186q16 76 57.5 111.5t90.5 35.5q51 0 120.5 -81t112.5 -81q96 0 131 136l9 -2q-16 -72 -55.5 -107t-84.5 -35q-47 0 -116.5 81t-116.5 81q-45 0 -84 -35t-55 -106z" />
<glyph unicode="&#xe4;" horiz-adv-x="892" d="M102 201q0 63 24 109t86 90t189 75t320 47v170q0 274 -232 275q-129 0 -350 -93l-2 9q221 92 352 92q240 0 240 -283v-692h-8v162q-76 -84 -181.5 -133t-199.5 -49q-104 0 -171 54t-67 167zM111 201q0 -109 64.5 -161t164.5 -52q94 0 200.5 50t180.5 134v342 q-190 -16 -315 -46t-187.5 -73t-85 -88t-22.5 -106zM264 1196q0 12 12.5 12t12.5 -12t-12.5 -12t-12.5 12zM606 1196q0 12 12.5 12t12.5 -12t-12.5 -12t-12.5 12z" />
<glyph unicode="&#xe5;" horiz-adv-x="892" d="M102 201q0 63 24 109t86 90t189 75t320 47v170q0 274 -232 275q-129 0 -350 -93l-2 9q221 92 352 92q240 0 240 -283v-692h-8v162q-76 -84 -181.5 -133t-199.5 -49q-104 0 -171 54t-67 167zM111 201q0 -109 64.5 -161t164.5 -52q94 0 200.5 50t180.5 134v342 q-190 -16 -315 -46t-187.5 -73t-85 -88t-22.5 -106zM307 1270q0 72 45 117t115 45t116 -46.5t46 -116t-45 -114.5t-117 -45q-70 0 -115 45t-45 115zM315 1269.5q0 -67.5 42 -109.5t110 -42t111 42t43 109.5t-43 110.5t-111 43t-110 -43t-42 -110.5z" />
<glyph unicode="&#xe6;" horiz-adv-x="1572" d="M102 201q0 63 24 109t86 90t189 75t320 47v170q0 274 -232 275q-129 0 -350 -93l-2 9q221 92 352 92q240 0 240 -283v-84q49 367 385 367q170 0 265.5 -135t62.5 -367h-713q0 -256 116 -370.5t288 -114.5q127 0 278 57l2 -8q-152 -57 -280 -57q-260 0 -363 225 q-76 -92 -196.5 -158.5t-233.5 -66.5q-104 0 -171 54t-67 167zM111 201q0 -109 64.5 -161t164.5 -52q113 0 229.5 65.5t198.5 157.5q-51 121 -47 303q-190 -16 -315 -46t-187.5 -73t-85 -88t-22.5 -106zM729 481h705q29 219 -61.5 352.5t-258.5 133.5q-385 -1 -385 -486z " />
<glyph unicode="&#xe7;" horiz-adv-x="880" d="M123 477q0 258 114.5 378t290.5 120q129 0 250 -57l-2 -9q-117 57 -248 58q-172 0 -284.5 -118t-112.5 -372t112.5 -371.5t284.5 -117.5q131 0 248 57l2 -8q-121 -57 -248 -57l-71 -136q45 23 86 23q59 0 99 -37t40 -100q0 -68 -51 -104t-123 -36q-80 0 -135 37l4 6 q53 -35 129 -34q70 0 119 33.5t49 97.5q0 57 -38 93t-93 36q-39 0 -88 -25l-8 8l71 138q-172 4 -284.5 122.5t-112.5 374.5z" />
<glyph unicode="&#xe8;" horiz-adv-x="974" d="M123 477q0 498 393 498q170 0 265.5 -135t62.5 -367h-713q0 -256 115.5 -370.5t288.5 -114.5q127 0 278 57l2 -8q-152 -57 -280 -57q-174 0 -293 118.5t-119 378.5zM131 481h705q29 219 -61.5 352.5t-258.5 133.5q-385 -1 -385 -486zM387 1430h10l166 -316h-10z" />
<glyph unicode="&#xe9;" horiz-adv-x="974" d="M123 477q0 498 393 498q170 0 265.5 -135t62.5 -367h-713q0 -256 115.5 -370.5t288.5 -114.5q127 0 278 57l2 -8q-152 -57 -280 -57q-174 0 -293 118.5t-119 378.5zM131 481h705q29 219 -61.5 352.5t-258.5 133.5q-385 -1 -385 -486zM469 1114l166 316h10l-166 -316h-10z " />
<glyph unicode="&#xea;" horiz-adv-x="974" d="M123 477q0 498 393 498q170 0 265.5 -135t62.5 -367h-713q0 -256 115.5 -370.5t288.5 -114.5q127 0 278 57l2 -8q-152 -57 -280 -57q-174 0 -293 118.5t-119 378.5zM131 481h705q29 219 -61.5 352.5t-258.5 133.5q-385 -1 -385 -486zM256 1114l236 316h8l235 -316h-10 l-229 307l-230 -307h-10z" />
<glyph unicode="&#xeb;" horiz-adv-x="974" d="M123 477q0 498 393 498q170 0 265.5 -135t62.5 -367h-713q0 -256 115.5 -370.5t288.5 -114.5q127 0 278 57l2 -8q-152 -57 -280 -57q-174 0 -293 118.5t-119 378.5zM131 481h705q29 219 -61.5 352.5t-258.5 133.5q-385 -1 -385 -486zM334 1196q0 12 12 12t12 -12t-12 -12 t-12 12zM676 1196q0 12 12 12t12 -12t-12 -12t-12 12z" />
<glyph unicode="&#xec;" d="M4 1430h10l166 -316h-10zM164 0v952l8 2v-954h-8z" />
<glyph unicode="&#xed;" d="M156 1114l166 316h10l-166 -316h-10zM164 0v952l8 2v-954h-8z" />
<glyph unicode="&#xee;" d="M-72 1114l236 316h8l236 -316h-11l-229 307l-229 -307h-11zM164 0v952l8 2v-954h-8z" />
<glyph unicode="&#xef;" d="M-14 1196q0 12 12 12t12 -12t-12 -12t-12 12zM164 0v952l8 2v-954h-8zM328 1196q0 12 12 12t12 -12t-12 -12t-12 12z" />
<glyph unicode="&#xf0;" horiz-adv-x="1024" d="M123 479q0 260 108.5 378t288.5 118q158 0 350 -86q-70 207 -211 379l-348 -176l-4 8l346 174q-88 109 -213 194h15q111 -76 207 -190l317 162l4 -8l-315 -160q274 -336 274 -768q0 -156 -28.5 -261.5t-86 -161.5t-127 -78.5t-165.5 -22.5q-197 0 -304.5 114.5 t-107.5 384.5zM131 479q0 -266 105.5 -378.5t298.5 -112.5q127 0 209.5 40t136 156.5t53.5 319.5q0 190 -60 375q-203 88 -354 88q-176 0 -282.5 -116t-106.5 -372z" />
<glyph unicode="&#xf1;" horiz-adv-x="991" d="M164 0v952l8 2v-131q248 152 389 152q115 0 190.5 -74t75.5 -244v-657h-8v657q0 166 -72.5 238t-185.5 72q-139 0 -389 -152v-815h-8zM236 1186q16 76 57 111.5t90 35.5q51 0 120.5 -81t112.5 -81q96 0 132 136l8 -2q-16 -72 -55 -107t-85 -35q-47 0 -116.5 81t-116.5 81 q-45 0 -84 -35t-55 -106z" />
<glyph unicode="&#xf2;" horiz-adv-x="1058" d="M123 477.5q0 497.5 407 497.5q406 0 406 -497.5t-406 -497.5q-407 0 -407 497.5zM131 477.5q0 -489.5 399 -489.5q397 0 397.5 489.5t-397.5 489.5q-399 0 -399 -489.5zM401 1430h11l166 -316h-11z" />
<glyph unicode="&#xf3;" horiz-adv-x="1058" d="M123 477.5q0 497.5 407 497.5q406 0 406 -497.5t-406 -497.5q-407 0 -407 497.5zM131 477.5q0 -489.5 399 -489.5q397 0 397.5 489.5t-397.5 489.5q-399 0 -399 -489.5zM483 1114l166 316h10l-165 -316h-11z" />
<glyph unicode="&#xf4;" horiz-adv-x="1058" d="M123 477.5q0 497.5 407 497.5q406 0 406 -497.5t-406 -497.5q-407 0 -407 497.5zM131 477.5q0 -489.5 399 -489.5q397 0 397.5 489.5t-397.5 489.5q-399 0 -399 -489.5zM291 1114l235 316h9l235 -316h-10l-230 307l-229 -307h-10z" />
<glyph unicode="&#xf5;" horiz-adv-x="1058" d="M123 477.5q0 497.5 407 497.5q406 0 406 -497.5t-406 -497.5q-407 0 -407 497.5zM131 477.5q0 -489.5 399 -489.5q397 0 397.5 489.5t-397.5 489.5q-399 0 -399 -489.5zM270 1186q16 76 57.5 111.5t90.5 35.5q51 0 120.5 -81t112.5 -81t79 33t52 103l9 -2 q-16 -72 -55.5 -107t-84.5 -35q-49 0 -116.5 81t-116.5 81q-45 0 -84 -35t-55 -106z" />
<glyph unicode="&#xf6;" horiz-adv-x="1058" d="M123 477.5q0 497.5 407 497.5q406 0 406 -497.5t-406 -497.5q-407 0 -407 497.5zM131 477.5q0 -489.5 399 -489.5q397 0 397.5 489.5t-397.5 489.5q-399 0 -399 -489.5zM348 1196q0 12 12.5 12t12.5 -12t-12.5 -12t-12.5 12zM690 1196q0 12 12.5 12t12.5 -12t-12.5 -12 t-12.5 12z" />
<glyph unicode="&#xf7;" horiz-adv-x="1150" d="M102 715l2 8h945l-2 -8h-945zM563 252q0 12 12.5 12t12.5 -12t-12.5 -12t-12.5 12zM563 1186q0 12 12.5 12t12.5 -12t-12.5 -12t-12.5 12z" />
<glyph unicode="&#xf8;" horiz-adv-x="1058" d="M123 477q0 498 407 498q150 0 244 -68l90 152l8 -4l-90 -154q154 -121 154 -424q0 -498 -406 -497q-152 0 -247 67l-88 -151l-9 4l90 153q-153 115 -153 424zM131 477q0 -303 150 -418l489 840q-94 68 -240 68q-399 -1 -399 -490zM287 55q90 -68 243 -67q397 0 398 489 q0 299 -150 416z" />
<glyph unicode="&#xf9;" horiz-adv-x="991" d="M164 297v655l8 2v-657q0 -166 72.5 -237.5t185.5 -71.5q139 0 389 151v813l8 2v-954h-8v131q-248 -152 -389 -151q-115 0 -190.5 73.5t-75.5 243.5zM367 1430h10l166 -316h-11z" />
<glyph unicode="&#xfa;" horiz-adv-x="991" d="M164 297v655l8 2v-657q0 -166 72.5 -237.5t185.5 -71.5q139 0 389 151v813l8 2v-954h-8v131q-248 -152 -389 -151q-115 0 -190.5 73.5t-75.5 243.5zM449 1114l165 316h11l-166 -316h-10z" />
<glyph unicode="&#xfb;" horiz-adv-x="991" d="M164 297v655l8 2v-657q0 -166 72.5 -237.5t185.5 -71.5q139 0 389 151v813l8 2v-954h-8v131q-248 -152 -389 -151q-115 0 -190.5 73.5t-75.5 243.5zM256 1114l236 316h8l235 -316h-10l-229 307l-230 -307h-10z" />
<glyph unicode="&#xfc;" horiz-adv-x="991" d="M164 297v655l8 2v-657q0 -166 72.5 -237.5t185.5 -71.5q139 0 389 151v813l8 2v-954h-8v131q-248 -152 -389 -151q-115 0 -190.5 73.5t-75.5 243.5zM313 1196q0 12 12.5 12t12.5 -12t-12.5 -12t-12.5 12zM655 1196q0 12 12.5 12t12.5 -12t-12.5 -12t-12.5 12z" />
<glyph unicode="&#xfd;" horiz-adv-x="864" d="M41 954h8l383 -944l383 944h8l-544 -1343h-9l158 389zM426 1114l166 316h10l-166 -316h-10z" />
<glyph unicode="&#xfe;" horiz-adv-x="1042" d="M164 -391v1859l8 2v-651q233 156 418 156q330 0 330 -498q0 -258 -110 -377.5t-290 -119.5q-164 0 -348 83v-452zM172 72q184 -84 348 -84q176 0 283.5 117.5t107.5 371.5q0 489 -321 490q-182 0 -418 -156v-739z" />
<glyph unicode="&#xff;" horiz-adv-x="864" d="M41 954h8l383 -944l383 944h8l-544 -1343h-9l158 389zM250 1196q0 12 12 12t12 -12t-12 -12t-12 12zM592 1196q0 12 12 12t12 -12t-12 -12t-12 12z" />
<glyph unicode="&#x152;" horiz-adv-x="2316" d="M143 719q0 739 621 739q547 0 612 -579v559h838l-2 -8h-828v-707h734l-2 -8h-732v-707h830l-2 -8h-836v559q-66 -580 -612 -579q-621 0 -621 739zM152 719q0 -731 612 -731t612 731t-612 731t-612 -731z" />
<glyph unicode="&#x153;" horiz-adv-x="1779" d="M123 477.5q0 497.5 407 497.5q367 0 402 -408q35 408 389 408q170 0 265 -135t63 -367h-713v-24q6 -244 120.5 -352.5t282.5 -108.5q127 0 279 57l2 -8q-152 -57 -281 -57q-160 0 -273.5 97t-133.5 310q-35 -408 -402 -407q-407 0 -407 497.5zM131 477.5 q0 -489.5 399 -489.5q397 0 397.5 489.5t-397.5 489.5q-399 0 -399 -489.5zM936 481h704q29 219 -61 352.5t-258 133.5q-385 -1 -385 -486z" />
<glyph unicode="&#x178;" horiz-adv-x="1130" d="M41 1436l8 4l516 -783l516 783l9 -4l-521 -787v-649h-8v649zM383 1646.5q0 12.5 12.5 12.5t12.5 -12.5t-12.5 -12.5t-12.5 12.5zM725 1646.5q0 12.5 12.5 12.5t12.5 -12.5t-12.5 -12.5t-12.5 12.5z" />
<glyph unicode="&#x2c6;" horiz-adv-x="684" d="M102 1114l236 316h8l236 -316h-11l-229 307l-229 -307h-11z" />
<glyph unicode="&#x2dc;" horiz-adv-x="724" d="M102 1186q16 76 57.5 111.5t90.5 35.5q51 0 120.5 -81t112.5 -81t79 33t52 103l9 -2q-16 -72 -55.5 -107t-84.5 -35q-49 0 -116.5 81t-116.5 81q-45 0 -84 -35t-55 -106z" />
<glyph unicode="&#x2000;" horiz-adv-x="907" />
<glyph unicode="&#x2001;" horiz-adv-x="1814" />
<glyph unicode="&#x2002;" horiz-adv-x="907" />
<glyph unicode="&#x2003;" horiz-adv-x="1814" />
<glyph unicode="&#x2004;" horiz-adv-x="604" />
<glyph unicode="&#x2005;" horiz-adv-x="452" />
<glyph unicode="&#x2006;" horiz-adv-x="301" />
<glyph unicode="&#x2007;" horiz-adv-x="301" />
<glyph unicode="&#x2008;" horiz-adv-x="225" />
<glyph unicode="&#x2009;" horiz-adv-x="362" />
<glyph unicode="&#x200a;" horiz-adv-x="100" />
<glyph unicode="&#x2010;" horiz-adv-x="464" d="M61 473l2 8h340l-2 -8h-340z" />
<glyph unicode="&#x2011;" horiz-adv-x="464" d="M61 473l2 8h340l-2 -8h-340z" />
<glyph unicode="&#x2013;" horiz-adv-x="1163" d="M61 473l2 8h1039l-2 -8h-1039z" />
<glyph unicode="&#x2014;" horiz-adv-x="2181" d="M61 473l2 8h2057l-2 -8h-2057z" />
<glyph unicode="&#x2018;" horiz-adv-x="241" d="M85 1423q13 84 71 205l8 -2q-39 -84 -56.5 -142.5t-17.5 -124t25 -138.5l-9 -2q-34 120 -21 204z" />
<glyph unicode="&#x2019;" horiz-adv-x="241" d="M78 1221q39 84 56.5 142t17.5 123.5t-25 139.5l8 2q35 -121 21.5 -205t-70.5 -204z" />
<glyph unicode="&#x201a;" horiz-adv-x="241" d="M78 -244q39 84 56.5 142.5t17.5 124t-25 139.5l8 2q35 -121 21.5 -205t-70.5 -205z" />
<glyph unicode="&#x201c;" horiz-adv-x="442" d="M85 1423q13 84 71 205l8 -2q-39 -84 -56.5 -142.5t-17.5 -124t25 -138.5l-9 -2q-34 120 -21 204zM285.5 1423q13.5 84 70.5 205l9 -2q-39 -84 -56.5 -142.5t-17.5 -124t24 -138.5l-8 -2q-35 120 -21.5 204z" />
<glyph unicode="&#x201d;" horiz-adv-x="442" d="M78 1221q39 84 56.5 142t17.5 123.5t-25 139.5l8 2q35 -121 21.5 -205t-70.5 -204zM279 1221q39 84 56 142t17 123.5t-24 139.5l8 2q35 -121 21.5 -205t-70.5 -204z" />
<glyph unicode="&#x201e;" horiz-adv-x="442" d="M78 -244q39 84 56.5 142.5t17.5 124t-25 139.5l8 2q35 -121 21.5 -205t-70.5 -205zM279 -244q39 84 56 142.5t17 124t-24 139.5l8 2q35 -121 21.5 -205t-70.5 -205z" />
<glyph unicode="&#x2022;" horiz-adv-x="761" d="M61 719q0 141 89.5 230t230.5 89t230 -89t89 -230t-89 -230.5t-230 -89.5t-230.5 89.5t-89.5 230.5z" />
<glyph unicode="&#x2026;" horiz-adv-x="1284" d="M102 10.5q0 12.5 12.5 12.5t12.5 -12.5t-12.5 -12.5t-12.5 12.5zM631 10.5q0 12.5 12 12.5t12 -12.5t-12 -12.5t-12 12.5zM1157 10.5q0 12.5 12.5 12.5t12.5 -12.5t-12.5 -12.5t-12.5 12.5z" />
<glyph unicode="&#x202f;" horiz-adv-x="362" />
<glyph unicode="&#x2039;" horiz-adv-x="487" d="M20 473l3 10l417 410l6 -6l-417 -410l417 -407l-6 -7z" />
<glyph unicode="&#x203a;" horiz-adv-x="487" d="M41 68l418 409l-418 408l6 6l420 -410l-2 -10l-418 -410z" />
<glyph unicode="&#x205f;" horiz-adv-x="452" />
<glyph unicode="&#x20ac;" horiz-adv-x="1249" d="M10 557l2 8h205q-8 63 -8 154q0 80 10 168h-209l2 8h207q39 289 195.5 426t378.5 137q176 0 354 -84l-4 -8q-180 84 -350 84q-219 0 -373 -135t-193 -420h811l-2 -8h-809q-10 -88 -10 -168q0 -90 8 -154h731l-2 -8h-729q37 -293 191.5 -431t376.5 -138q172 0 350 84l4 -9 q-178 -84 -354 -83q-225 0 -382 140t-194 437h-207z" />
<glyph unicode="&#x2122;" horiz-adv-x="1089" d="M10 1430l2 8h424l-2 -8h-209v-500h-8v500h-207zM432 930l88 508l8 2l201 -500l203 498l8 2l88 -510h-8l-86 491l-201 -491l-8 -2l-199 493l-86 -491h-8z" />
<glyph horiz-adv-x="0" />
</font>
</defs>
</svg>
