<?xml version="1.0" standalone="no"?>
<!DOCTYPE svg PUBLIC "-//W3C//DTD SVG 1.1//EN" "http://www.w3.org/Graphics/SVG/1.1/DTD/svg11.dtd" >
<svg xmlns="http://www.w3.org/2000/svg">
<metadata>
This is a custom SVG webfont generated by Font Squirrel.
Designer    : Tomas Brousil
Foundry     : Tomas Brousil
</metadata>
<defs>
<font id="webfont5EYoTuEP" horiz-adv-x="1142" >
<font-face units-per-em="2048" ascent="1638" descent="-410" />
<missing-glyph horiz-adv-x="540" />
<glyph unicode=" "  horiz-adv-x="540" />
<glyph unicode="&#x09;" horiz-adv-x="540" />
<glyph unicode="&#xa0;" horiz-adv-x="540" />
<glyph unicode="!" horiz-adv-x="708" d="M242 100q0 47 31.5 80t80.5 33q47 0 80 -33t33 -80q0 -49 -33 -80.5t-80 -31.5q-49 0 -80.5 31.5t-31.5 80.5zM264 1438h180l-12 -1045l-158 -10z" />
<glyph unicode="&#x22;" horiz-adv-x="575" d="M70 1438h166l-21 -502h-125zM338 1438h168l-21 -502h-125z" />
<glyph unicode="#" d="M-14 381l12 147h182l103 383h-191l10 148h213l101 383l153 -8l-98 -375h369l100 383l154 -8l-99 -375h160l-12 -148h-182l-103 -383h193l-13 -147h-215l-98 -385l-154 8l97 377h-367l-100 -385l-154 8l98 377h-159zM336 528h366l103 383h-367z" />
<glyph unicode="$" horiz-adv-x="1122" d="M100 1075q0 170 106.5 265.5t293.5 113.5v223l141 11v-232q184 -10 348 -78l-33 -159q-182 80 -387 79q-131 0 -209.5 -60t-76.5 -177q2 -63 58 -114.5t140 -84.5t181.5 -77t181.5 -91t139 -129t55 -186q0 -176 -106.5 -275.5t-290.5 -117.5v-226l-141 -10v232 q-199 6 -367 79l33 160q190 -80 391 -80q135 0 217 63.5t80 188.5q-2 74 -80 131.5t-188.5 100.5t-221 95t-187.5 142t-77 213z" />
<glyph unicode="%" horiz-adv-x="1593" d="M51 1046.5q0 210.5 87 308t238.5 97.5t238.5 -97.5t87 -308t-87 -309t-238.5 -98.5t-238.5 98.5t-87 309zM184 1047q0 -293 193 -293q190 0 190 293q0 291 -190 290q-193 1 -193 -290zM305 0l834 1438h147l-833 -1438h-148zM893 393q0 211 87 308.5t238.5 97.5 t238.5 -97.5t87 -308.5t-87 -309t-238.5 -98t-238.5 98t-87 309zM1026 393q0 -293 193 -293q190 0 190 293q0 291 -190 291q-193 0 -193 -291z" />
<glyph unicode="&#x26;" horiz-adv-x="1345" d="M88 348q0 127 68.5 216t197.5 179q-188 217 -188 361q0 162 103.5 259t275.5 97q162 0 268.5 -91t106.5 -241q0 -90 -51.5 -168.5t-111 -123.5t-167.5 -113q147 -152 379 -330q78 94 172 264l147 -63q-92 -178 -188 -295l260 -180l-84 -139q-160 102 -289 200 q-213 -201 -469 -200q-203 0 -316.5 102t-113.5 266zM262 348q0 -94 69.5 -155.5t188.5 -61.5q176 0 336 148q-238 186 -401 356q-193 -144 -193 -287zM340 1104q0 -109 149 -281q121 80 188.5 148.5t67.5 150.5t-57 132.5t-143 50.5q-92 0 -148.5 -54.5t-56.5 -146.5z" />
<glyph unicode="'" horiz-adv-x="305" d="M70 1438h166l-21 -502h-125z" />
<glyph unicode="(" horiz-adv-x="688" d="M94 776q0 344 132 592t376 379l119 -102q-459 -250 -459 -868.5t459 -868.5l-119 -103q-244 131 -376 380t-132 591z" />
<glyph unicode=")" horiz-adv-x="688" d="M-33 -92q459 248 459 868.5t-459 868.5l119 102q244 -131 376 -379t132 -592q0 -342 -132 -590.5t-376 -380.5z" />
<glyph unicode="*" horiz-adv-x="983" d="M63 1073l43 166l314 -123l-21 328l172 12l-18 -338l303 119l64 -160l-324 -86l207 -250l-133 -110l-183 289l-180 -281l-143 92l213 260z" />
<glyph unicode="+" d="M68 647l10 148h411v419l164 11v-430h422l-10 -148h-412v-420l-164 -12v432h-421z" />
<glyph unicode="," horiz-adv-x="436" d="M92 -283q66 143 70 260t-47 261l180 14q33 -94 34 -187.5t-22.5 -175.5t-70.5 -188z" />
<glyph unicode="-" horiz-adv-x="579" d="M70 416l10 147h430l-12 -147h-428z" />
<glyph unicode="." horiz-adv-x="436" d="M104 100q0 47 33 80t80 33q49 0 81 -33t32 -80q0 -49 -32 -80.5t-81 -31.5q-47 0 -80 31.5t-33 80.5z" />
<glyph unicode="/" horiz-adv-x="645" d="M-94 -156l680 1872l153 -8l-680 -1872z" />
<glyph unicode="0" horiz-adv-x="1347" d="M121 721q0 383 149.5 560t405.5 177q254 0 402.5 -177t148.5 -560q0 -385 -148.5 -563t-402.5 -178q-256 0 -405.5 178t-149.5 563zM303 721q0 -305 100.5 -442.5t272.5 -137.5q168 0 268 137.5t100 442.5q0 301 -100 439t-268 138q-170 0 -271.5 -137t-101.5 -440z" />
<glyph unicode="1" horiz-adv-x="718" d="M43 1118v174l377 146h158v-1438h-179v1255z" />
<glyph unicode="2" horiz-adv-x="1062" d="M66 162q369 317 532.5 509.5t163.5 354.5q0 139 -80 205.5t-215 66.5q-166 0 -354 -79l-33 159q219 80 403 80q207 0 332 -104.5t125 -325.5q0 -186 -156.5 -390t-488.5 -476h684l-10 -162h-893z" />
<glyph unicode="3" horiz-adv-x="1050" d="M63 61l35 160q186 -80 369 -80q145 0 233 57.5t88 180.5q0 78 -46 145.5t-128 106.5h-311l10 162h277q158 100 158 274q0 115 -80 173t-215 58q-160 0 -353 -79l-34 159q213 80 403 80q203 0 330 -93t127 -282q0 -211 -193 -360q233 -129 234 -361q0 -195 -136.5 -288.5 t-351.5 -94t-416 81.5z" />
<glyph unicode="4" horiz-adv-x="1161" d="M43 508q164 205 238.5 428t74.5 502h179q0 -289 -74 -503t-236 -427h441v356l176 13v-369h276l-12 -162h-264v-346h-176v346h-611z" />
<glyph unicode="5" horiz-adv-x="1032" d="M84 61l35 160q178 -80 356 -80q143 0 230.5 67.5t87.5 205.5q0 262 -351 262h-297v762h750l-12 -160h-570v-461q348 37 502 -69.5t154 -337.5q0 -211 -131 -320.5t-355 -109.5q-200 -1 -399 81z" />
<glyph unicode="6" horiz-adv-x="1161" d="M104 657q0 414 154 607.5t414 193.5q172 0 358 -72l-39 -159q-184 72 -315 71q-369 0 -389 -569q227 127 418 127q180 0 286.5 -111.5t106.5 -320.5q0 -197 -132 -320.5t-358 -123.5q-229 0 -366.5 170.5t-137.5 506.5zM289 586q12 -229 97 -340t222 -111q143 0 227.5 83 t84.5 210q0 135 -63.5 207t-178.5 72q-156 0 -389 -121z" />
<glyph unicode="7" horiz-adv-x="964" d="M23 1278l12 160h895l12 -160q-262 -317 -368.5 -605t-106.5 -673h-176q0 416 117.5 721t357.5 557h-743z" />
<glyph unicode="8" horiz-adv-x="1191" d="M84 348q0 139 89 230.5t249 164.5q-141 70 -219 153t-78 206q0 158 123 257t348 99q223 0 346 -99t123 -257q0 -123 -78 -206t-219 -153q160 -74 249 -165t89 -230q0 -178 -133 -273t-377 -95t-378 95t-134 273zM262 358q0 -106 86 -164.5t248 -58.5t248 58.5t86 164.5 q0 168 -334 310q-334 -142 -334 -310zM303 1092q0 -88 76 -151.5t217 -121.5q141 57 217 121t76 152q0 94 -76 152.5t-217 58.5t-217 -58.5t-76 -152.5z" />
<glyph unicode="9" horiz-adv-x="1161" d="M63 1014q0 197 132.5 320.5t357.5 123.5q229 0 366.5 -171t137.5 -507q0 -414 -153.5 -607t-414.5 -193q-174 0 -358 73l39 158q186 -70 315 -70q367 0 387 566q-225 -125 -415 -125q-180 0 -287 112.5t-107 319.5zM242 1010q0 -133 63.5 -205t177.5 -72q158 0 389 119 q-12 229 -97 340t-222 111q-143 0 -227 -83t-84 -210z" />
<glyph unicode=":" horiz-adv-x="436" d="M104 100q0 47 33 80t80 33q49 0 81 -33t32 -80q0 -49 -32 -80.5t-81 -31.5q-47 0 -80 31.5t-33 80.5zM104 881q0 47 33 79.5t80 32.5q49 0 81 -32.5t32 -79.5q0 -49 -32 -81t-81 -32q-47 0 -80 32t-33 81z" />
<glyph unicode=";" horiz-adv-x="436" d="M92 -283q66 143 70 260t-47 261l180 14q33 -94 34 -187.5t-22.5 -175.5t-70.5 -188zM96 881q0 47 32 79.5t81 32.5q47 0 80 -32.5t33 -79.5q0 -49 -33 -81t-80 -32q-49 0 -81 32t-32 81z" />
<glyph unicode="&#x3c;" d="M78 649l10 148l930 432l55 -137l-813 -371l813 -371l-55 -137z" />
<glyph unicode="=" d="M68 360l10 148h997l-10 -148h-997zM68 932l10 147h997l-10 -147h-997z" />
<glyph unicode="&#x3e;" d="M70 350l813 371l-813 371l55 137l940 -436l-10 -148l-930 -432z" />
<glyph unicode="?" horiz-adv-x="987" d="M63 1393q223 66 402 65q211 0 335 -96t124 -279q0 -137 -94.5 -264t-274.5 -182l-2 -244l-158 -10l-4 344q104 23 178 65t110 91t51 94t15 90q0 106 -75.5 168.5t-204.5 62.5q-139 0 -367 -65zM360 100q0 47 33 80t80 33q49 0 81 -33t32 -80q0 -49 -32 -80.5t-81 -31.5 q-47 0 -80 31.5t-33 80.5z" />
<glyph unicode="@" horiz-adv-x="2066" d="M121 313q0 276 76.5 489.5t214 346.5t318.5 200.5t398 67.5q391 0 604.5 -200.5t213.5 -581.5q0 -313 -129 -484t-344 -171q-213 0 -234 247q-213 -248 -399 -247q-133 0 -201 104t-68 278q0 307 136.5 468t339.5 161q176 0 405 -119l-70 -559q-23 -193 101 -192 q141 0 224 133t83 381q0 311 -172 476t-490 165q-383 0 -617.5 -242.5t-234.5 -720.5q0 -295 165 -454.5t474 -159.5q197 0 385 80l56 -133q-201 -88 -441 -88q-383 0 -588.5 197.5t-205.5 557.5zM733 373q0 -244 129 -244q78 0 182.5 87t192.5 224l43 342q-133 61 -238 62 q-129 0 -219 -116.5t-90 -354.5z" />
<glyph unicode="A" horiz-adv-x="1308" d="M41 0l491 1432l240 12l496 -1444h-187l-118 350h-619l-119 -350h-184zM391 510h524l-262 772z" />
<glyph unicode="B" horiz-adv-x="1218" d="M141 29v1409h559q172 0 274.5 -97.5t102.5 -250.5q0 -211 -184 -359q240 -133 240 -369q0 -184 -144.5 -283t-402.5 -99q-150 0 -445 49zM317 168q156 -27 277 -27q176 0 269 63.5t93 174.5q0 78 -46 145.5t-128 106.5h-465v-463zM317 793h424q158 100 158 282 q0 90 -58.5 146.5t-156.5 56.5h-367v-485z" />
<glyph unicode="C" horiz-adv-x="1239" d="M121 719q0 199 50 345t140 230t203 124t248 40q197 0 393 -69l-35 -160q-197 70 -350 69q-213 0 -340 -138t-127 -441t127 -440.5t340 -137.5q160 0 350 68l35 -160q-197 -70 -393 -69q-135 0 -248 39.5t-203 123.5t-140 230.5t-50 345.5z" />
<glyph unicode="D" horiz-adv-x="1413" d="M141 31v1407h500q311 0 481 -174t170 -541q0 -371 -186 -557t-510 -186q-234 0 -455 51zM317 166q137 -25 293 -25q231 0 365.5 146.5t134.5 433.5q0 557 -471 557h-322v-1112z" />
<glyph unicode="E" horiz-adv-x="1122" d="M141 0v1438h897l-12 -160h-709v-485h613l-10 -162h-603v-469h721l-12 -162h-885z" />
<glyph unicode="F" horiz-adv-x="1067" d="M141 0v1438h897l-12 -160h-709v-522h613l-10 -162h-603v-594h-176z" />
<glyph unicode="G" horiz-adv-x="1378" d="M121 719q0 199 51 345t143.5 230t209 124t257.5 40q201 0 398 -69l-33 -160q-188 70 -356 69q-221 0 -354.5 -138t-133.5 -441q0 -578 481 -578q143 0 277 47v377h-350l10 162h516v-657q-244 -90 -463 -90q-303 0 -478 177t-175 562z" />
<glyph unicode="H" horiz-adv-x="1353" d="M141 0v1438h176v-645h717v645h178v-1438h-178v631h-717v-631h-176z" />
<glyph unicode="I" horiz-adv-x="458" d="M141 0v1438h176v-1438h-176z" />
<glyph unicode="J" horiz-adv-x="509" d="M-47 -213q121 100 180.5 198.5t59.5 223.5v1229h176v-1231q0 -166 -65.5 -286t-215.5 -240z" />
<glyph unicode="K" horiz-adv-x="1208" d="M141 0v1438h176v-668l623 674l209 -12l-662 -705l674 -721l-223 -12l-621 674v-668h-176z" />
<glyph unicode="L" horiz-adv-x="1060" d="M141 0v1438h176v-1276h680l-12 -162h-844z" />
<glyph unicode="M" horiz-adv-x="1873" d="M63 0l238 1432l221 12l414 -1237l410 1225l223 12l239 -1444h-176l-188 1206l-406 -1200l-198 -12l-412 1210l-188 -1204h-177z" />
<glyph unicode="N" horiz-adv-x="1353" d="M141 0v1432l170 12l727 -1137v1131h174v-1432l-170 -12l-727 1136v-1130h-174z" />
<glyph unicode="O" horiz-adv-x="1533" d="M121 719q0 739 647 739q645 0 645 -739t-645 -739q-647 0 -647 739zM303 719q0 -578 465 -578q463 0 463 578q0 580 -463 579q-465 1 -465 -579z" />
<glyph unicode="P" horiz-adv-x="1179" d="M141 0v1438h398q274 0 424.5 -114t150.5 -351q0 -236 -160.5 -361t-421.5 -125q-84 0 -215 17v-504h-176zM317 664q147 -16 207 -17q184 0 296 82t112 248q0 301 -408 301h-207v-614z" />
<glyph unicode="Q" horiz-adv-x="1533" d="M121 719q0 739 647 739q645 0 645 -739q0 -569 -385 -701q39 -129 88 -185t131 -56q51 0 154 33l20 -150q-121 -39 -219 -39q-123 0 -207 85t-137 278q-61 -4 -90 -4q-647 0 -647 739zM303 719q0 -578 465 -578q463 0 463 578q0 580 -463 579q-465 1 -465 -579z" />
<glyph unicode="R" horiz-adv-x="1239" d="M141 0v1438h385q555 0 555 -445q0 -289 -256 -403l344 -584l-202 -12l-312 547q-55 -8 -129 -9q-66 0 -209 15v-547h-176zM317 705q131 -16 201 -17q176 0 281.5 78t105.5 233q0 283 -389 283h-199v-577z" />
<glyph unicode="S" d="M111 1075q0 188 130 285.5t351 97.5q217 0 407 -80l-32 -159q-182 80 -387 79q-131 0 -210 -60q-77 -59 -77 -171q0 -67 58 -121q56 -51 140 -84t181.5 -77t181.5 -91t139.5 -129t55.5 -186q0 -199 -134.5 -299t-361.5 -100q-215 0 -410 81l33 160q190 -80 391 -80 q135 0 217 64q80 62 80 182q0 78 -80 137q-78 57 -188.5 100.5t-221 95.5t-187 142t-76.5 213z" />
<glyph unicode="T" horiz-adv-x="1140" d="M12 1278l13 160h1103l-12 -160h-457v-1278h-178v1278h-469z" />
<glyph unicode="U" horiz-adv-x="1353" d="M141 438v1000h176v-987q0 -309 358.5 -309.5t358.5 309.5v987h178v-1000q0 -238 -144 -348t-392 -110t-391.5 110t-143.5 348z" />
<glyph unicode="V" horiz-adv-x="1304" d="M41 1432l182 12l430 -1284l428 1284l183 -12l-494 -1432h-235z" />
<glyph unicode="W" horiz-adv-x="1951" d="M41 1432l180 12l336 -1270l326 1258l196 12l328 -1270l334 1270l170 -12l-402 -1432h-215l-315 1155l-315 -1155h-222z" />
<glyph unicode="X" horiz-adv-x="1327" d="M70 6l491 713l-491 713l204 12l390 -580l389 580l204 -12l-491 -713l491 -713l-202 -12l-391 579l-390 -579z" />
<glyph unicode="Y" horiz-adv-x="1234" d="M23 1432l204 12l391 -672l388 672l206 -12l-505 -832v-600h-179v600z" />
<glyph unicode="Z" horiz-adv-x="1181" d="M82 1278l12 160h993l13 -160l-797 -1116h797l-10 -162h-996l-10 162l795 1116h-797z" />
<glyph unicode="[" horiz-adv-x="593" d="M172 -164v1880h414l-13 -147h-237v-1585h250l-13 -148h-401z" />
<glyph unicode="\" horiz-adv-x="645" d="M-94 1708l153 8l680 -1872l-153 -8z" />
<glyph unicode="]" horiz-adv-x="593" d="M8 -164l10 148h240v1585h-250l10 147h404v-1880h-414z" />
<glyph unicode="^" horiz-adv-x="985" d="M23 463l364 975h211l363 -975l-179 -10l-290 819l-291 -819z" />
<glyph unicode="_" horiz-adv-x="944" d="M8 -197l10 138h918l-12 -138h-916z" />
<glyph unicode="`" horiz-adv-x="577" d="M111 1444h184l172 -330h-148z" />
<glyph unicode="a" horiz-adv-x="968" d="M80 238q0 147 125 226t459 105v107q0 178 -154 178q-113 0 -365 -82l-24 143q236 86 407 86q145 0 222 -74.5t77 -246.5v-680h-125l-22 115q-160 -135 -338 -135q-113 0 -187.5 65.5t-74.5 192.5zM240 248q0 -70 37.5 -101.5t91.5 -31.5q164 0 295 135v194 q-168 -14 -264.5 -43.5t-128 -65.5t-31.5 -87z" />
<glyph unicode="b" horiz-adv-x="1110" d="M141 63v1479l164 10v-684q219 133 361 133q156 0 250 -128t94 -384q0 -262 -121 -385.5t-318 -123.5q-192 -1 -430 83zM305 172q127 -45 268 -45q121 0 196 88t75 279q0 182 -56.5 267t-152.5 85q-104 0 -330 -119v-555z" />
<glyph unicode="c" horiz-adv-x="909" d="M100 489.5q0 264.5 125 388t326 123.5q127 0 278 -47l-22 -145q-135 45 -242 45q-299 0 -299 -365q0 -362 299 -362q96 0 242 45l22 -145q-141 -47 -278 -47q-203 0 -327 122.5t-124 387z" />
<glyph unicode="d" horiz-adv-x="1110" d="M100 489q0 260 117 386t299 126q133 0 289 -67v608l164 10v-1552h-144l-20 113q-219 -133 -359 -133q-158 0 -252 126.5t-94 382.5zM266 487q0 -354 211 -354q102 0 328 121v539q-150 61 -268 61q-121 0 -196 -88.5t-75 -278.5z" />
<glyph unicode="e" horiz-adv-x="1015" d="M100 489q0 262 118 387t321 125q199 0 302 -147q75 -107 75 -281q0 -66 -11 -141h-641q10 -309 297 -309q111 0 285 55l22 -137q-166 -61 -321 -61q-205 0 -326 121.5t-121 387.5zM266 561h488v18q0 130 -56 204q-59 79 -166 79q-248 0 -266 -301z" />
<glyph unicode="f" horiz-adv-x="710" d="M43 834l12 147h152v217q0 354 295 354q88 0 200 -30l-14 -144q-90 27 -160 27q-90 0 -123.5 -59.5t-33.5 -165.5v-199h301l-13 -147h-288v-834h-164v834h-164z" />
<glyph unicode="g" horiz-adv-x="1042" d="M80 -184q0 164 182 272q-59 51 -59 135q0 98 88 168q-164 76 -164 283q0 154 95 240.5t278 86.5q78 0 153 -20h316l-13 -147h-118q35 -70 34 -160q0 -152 -95 -238t-277 -86q-33 0 -82 4q-64 -57 -64 -107q0 -10 2 -19q14 -58 119 -58h88q205 0 312.5 -72.5t107.5 -201.5 q0 -141 -134 -239.5t-386 -98.5q-190 0 -286.5 73.5t-96.5 184.5zM242 -172q0 -63 58 -103t173 -40q162 0 255 56t93 140q0 70 -71.5 109t-204.5 39h-80q-39 0 -74 6q-149 -86 -149 -207zM285 674q0 -88 55 -140.5t159.5 -52.5t160 52.5t55.5 140.5q0 92 -55.5 143t-160 51 t-159.5 -51t-55 -143z" />
<glyph unicode="h" horiz-adv-x="1095" d="M141 0v1542l164 10v-684q229 133 373 133q119 0 197.5 -76.5t78.5 -248.5v-676h-163v647q0 100 -42 149.5t-114 49.5q-109 0 -330 -119v-727h-164z" />
<glyph unicode="i" horiz-adv-x="446" d="M117 1243q0 47 29.5 77t76.5 30t77 -30t30 -77t-30 -76.5t-77 -29.5t-76.5 29.5t-29.5 76.5zM141 0v975l164 10v-985h-164z" />
<glyph unicode="j" horiz-adv-x="512" d="M-18 -344q113 94 169 187.5t56 213.5v918l164 10v-930q0 -158 -62.5 -270.5t-204.5 -226.5zM182 1243q0 47 30 77t77 30t76.5 -30t29.5 -77t-29.5 -76.5t-76.5 -29.5t-77 29.5t-30 76.5z" />
<glyph unicode="k" horiz-adv-x="989" d="M141 0v1542l164 10v-993l422 426l199 -10l-461 -459l510 -510l-211 -12l-459 465v-459h-164z" />
<glyph unicode="l" horiz-adv-x="583" d="M141 227v1315l164 10v-1306q0 -94 59 -112q17 -5 40 -5q58 0 157 31l14 -142q-131 -39 -217 -38q-217 -1 -217 247z" />
<glyph unicode="m" horiz-adv-x="1665" d="M141 0v975l164 10v-117q213 133 350 133q160 0 219 -131q229 131 392 131q113 0 185.5 -76.5t72.5 -248.5v-676h-164v647q0 98 -39 148.5t-104 50.5q-131 0 -310 -107q6 -27 6 -94v-645h-163v647q0 199 -144 199q-98 0 -301 -119v-727h-164z" />
<glyph unicode="n" horiz-adv-x="1095" d="M141 0v975l164 10v-117q229 133 373 133q119 0 197.5 -76.5t78.5 -248.5v-676h-163v647q0 100 -42 149.5t-114 49.5q-109 0 -330 -119v-727h-164z" />
<glyph unicode="o" horiz-adv-x="1120" d="M100 489q0 256 122 384t339 128q215 0 337 -128t122 -384t-122 -382.5t-337 -126.5q-217 0 -339 126.5t-122 382.5zM266 489.5q0 -184.5 78 -273.5t217 -89q137 0 215 89t78 273.5t-78 274.5t-215 90t-216 -90t-79 -274.5z" />
<glyph unicode="p" horiz-adv-x="1110" d="M141 -428v1403l164 10v-117q219 133 361 133q156 0 250 -128t94 -384q0 -260 -116 -384.5t-298 -124.5q-135 0 -291 67v-463zM305 188q150 -61 268 -61q121 0 196 88t75 279q0 182 -56.5 267t-152.5 85q-104 0 -330 -119v-539z" />
<glyph unicode="q" horiz-adv-x="1110" d="M100 489q0 264 121 388t318 124q193 0 430 -83v-1334l-164 -12v541q-219 -133 -359 -133q-158 0 -252 126.5t-94 382.5zM266 487q0 -354 211 -354q102 0 328 121v555q-127 45 -268 45q-121 0 -196 -88.5t-75 -278.5z" />
<glyph unicode="r" horiz-adv-x="753" d="M141 0v975l164 10v-186q117 158 207 189q39 14 86 14q61 0 135 -23l-20 -164q-80 23 -120 27q-6 1 -12 0q-35 0 -76 -21q-48 -25 -84 -65.5t-116 -139.5v-616h-164z" />
<glyph unicode="s" horiz-adv-x="878" d="M115 731q0 133 92 201.5t248 68.5q150 0 293 -59l-25 -141q-133 57 -270 57q-80 0 -127 -33q-45 -31 -46 -96q0 -55 52.5 -90t125 -62.5t146.5 -61.5t125 -97.5t51 -153.5q0 -141 -96 -212.5t-260 -71.5q-154 0 -291 59l23 141q135 -57 280 -57q82 0 131 35q47 33 47 108 q0 55 -52 91t-124.5 62.5t-146.5 60.5t-125 97.5t-51 153.5z" />
<glyph unicode="t" horiz-adv-x="772" d="M43 834l12 147h152v305l164 10v-315h301l-13 -147h-288v-486q0 -221 164 -221q72 0 157 23l15 -138q-109 -33 -201 -32q-299 0 -299 354v500h-164z" />
<glyph unicode="u" horiz-adv-x="1095" d="M141 303v672l164 10v-651q0 -100 42 -150.5t114 -50.5q104 0 330 121v721l163 10v-985h-143l-20 111q-229 -131 -373 -131q-119 0 -198 75.5t-79 247.5z" />
<glyph unicode="v" horiz-adv-x="985" d="M23 975l178 10l291 -817l290 817l179 -10l-363 -975h-211z" />
<glyph unicode="w" horiz-adv-x="1531" d="M23 975l174 10l239 -827l232 817l192 10l236 -827l239 827l172 -10l-307 -975h-196l-238 778l-238 -778h-198z" />
<glyph unicode="x" horiz-adv-x="950" d="M31 6l342 483l-342 486l192 10l254 -373l254 373l189 -10l-342 -483l342 -486l-193 -12l-254 375l-254 -375z" />
<glyph unicode="y" horiz-adv-x="985" d="M23 975l178 10l291 -817l290 817l179 -10l-523 -1403l-176 12l160 416h-35z" />
<glyph unicode="z" horiz-adv-x="911" d="M70 137l557 697h-527l13 147h716l11 -137l-557 -697h557l-13 -147h-747z" />
<glyph unicode="{" horiz-adv-x="704" d="M49 702l10 148h66q86 4 116.5 62.5t30.5 162.5v293q0 174 92.5 271.5t290.5 74.5l-10 -145q-115 4 -162 -51.5t-47 -167.5v-252q0 -246 -145 -322q145 -76 145 -321v-252q0 -115 49.5 -170.5t169.5 -48.5l-10 -146q-193 -23 -283 76.5t-90 271.5v291q0 106 -33.5 165.5 t-123.5 59.5h-66z" />
<glyph unicode="|" horiz-adv-x="497" d="M172 -176v1892l154 13v-1893z" />
<glyph unicode="}" horiz-adv-x="704" d="M49 -162l10 146q115 -4 162 51t47 168v252q0 246 146 321q-145 76 -146 322v252q0 117 -49 171t-170 48l10 145q193 23 283 -75.5t90 -270.5v-293q0 -106 34 -165.5t124 -59.5h65l-10 -148h-65q-86 -2 -117 -61t-31 -164v-291q0 -176 -92 -273.5t-291 -74.5z" />
<glyph unicode="~" d="M68 584q29 150 107.5 228.5t180.5 78.5q76 0 141.5 -33t104.5 -71.5t88 -71.5t96 -33q96 0 140 172l151 -23q-31 -152 -107.5 -230.5t-181.5 -78.5q-76 0 -141 33t-103 72t-87 71.5t-97 32.5q-94 0 -141 -172z" />
<glyph unicode="&#xa1;" horiz-adv-x="708" d="M242 881q0 47 31.5 79.5t80.5 32.5q47 0 80 -32.5t33 -79.5q0 -49 -33 -81t-80 -32q-49 0 -80.5 32t-31.5 81zM264 -459l10 1045l158 12l12 -1057h-180z" />
<glyph unicode="&#xa2;" horiz-adv-x="995" d="M84 917.5q0 249.5 113.5 379.5t306.5 155v225l143 11v-232q133 -6 264 -47l-22 -149q-150 47 -283 47q-164 0 -260 -94.5t-96 -297t96 -297t260 -94.5q133 0 283 47l22 -145q-129 -43 -264 -49v-217l-143 -13v236q-193 25 -306.5 155t-113.5 379.5z" />
<glyph unicode="&#xa3;" horiz-adv-x="1087" d="M86 162q158 135 225.5 226t79.5 222h-301l12 138h273q-8 18 -48 97t-61.5 144.5t-21.5 132.5q0 143 81 239.5t253 96.5q190 0 368 -51l-35 -160q-170 51 -323 51q-78 0 -121 -48t-41 -130q2 -59 66.5 -176t78.5 -196h371l-12 -138h-355q-12 -141 -76.5 -244.5 t-185.5 -203.5h691l-13 -162h-891z" />
<glyph unicode="&#xa4;" d="M102 362l146 146q-59 88 -60 213q0 123 60 213l-146 145l119 103l137 -138q92 59 213 60q117 0 213 -60l138 138l118 -103l-145 -145q59 -96 59 -213q0 -121 -59 -213l145 -146l-116 -104l-140 139q-90 -59 -213 -59q-125 0 -213 59l-137 -137zM336 720.5 q0 -106.5 65.5 -174t170 -67.5t170 67.5t65.5 174t-65.5 174.5t-170 68t-170 -68t-65.5 -174.5z" />
<glyph unicode="&#xa5;" horiz-adv-x="1234" d="M23 1432l204 12l391 -672l388 672l206 -12l-407 -670h276l-10 -137h-350l-14 -25v-180h374l-10 -137h-364v-283h-179v283h-381l13 137h368v180l-16 25h-365l13 137h270z" />
<glyph unicode="&#xa6;" horiz-adv-x="497" d="M172 -176v782l154 12v-782zM172 934v782l154 13v-783z" />
<glyph unicode="&#xa7;" horiz-adv-x="1239" d="M100 956q0 244 160 373t408 129q201 0 399 -76l-35 -157q-176 68 -354 73q-23 -143 16 -280t112 -248l147 -218q75 -108 130.5 -236t55.5 -257q0 -244 -159 -372.5t-409 -128.5q-201 0 -399 75l35 158q176 -68 354 -74q23 143 -16 280.5t-111 249l-147.5 218t-131 235.5 t-55.5 256zM272 956q0 -102 53.5 -216.5t126 -221l143.5 -221.5t113 -260.5t27 -296.5q106 33 169 115t63 204q0 102 -53.5 217t-126.5 222l-144 221q-72 115 -114 260t-27 297q-106 -33 -168 -115t-62 -205z" />
<glyph unicode="&#xa8;" horiz-adv-x="782" d="M111 1243q0 43 27.5 70.5t70.5 27.5t71.5 -27.5t28.5 -70.5t-28.5 -71.5t-71.5 -28.5t-70.5 28.5t-27.5 71.5zM518 1243q0 43 28.5 70.5t72 27.5t71 -27.5t27.5 -70.5t-27.5 -71.5t-71 -28.5t-72 28.5t-28.5 71.5z" />
<glyph unicode="&#xa9;" horiz-adv-x="1617" d="M70 719q0 328 205.5 533.5t533.5 205.5t533.5 -205.5t205.5 -533.5t-205.5 -533.5t-533.5 -205.5t-533.5 205.5t-205.5 533.5zM205 718.5q0 -272.5 169 -444.5t435 -172t435 172t169 444.5t-168 444.5t-436 172t-436 -172t-168 -444.5zM444 719q0 211 105.5 307t273.5 96 q117 0 230 -39l-21 -122q-111 37 -205 36q-109 0 -176 -66.5t-67 -212t67.5 -213t175.5 -67.5q88 0 205 39l21 -125q-106 -37 -230 -37q-168 0 -273.5 96.5t-105.5 307.5z" />
<glyph unicode="&#xaa;" horiz-adv-x="620" d="M49 983q0 94 77 142.5t277 66.5v53q0 96 -86 96q-68 0 -223 -47l-18 113q143 51 264 51q195 0 195 -207v-422h-99l-18 68q-88 -80 -201 -80q-72 0 -120 43t-48 123zM174 991q0 -70 74 -69q86 0 155 69v107q-229 -15 -229 -107z" />
<glyph unicode="&#xab;" horiz-adv-x="995" d="M49 436l10 117l379 379l109 -125l-324 -318l324 -317l-109 -123zM449 436l10 117l379 379l108 -125l-323 -318l323 -317l-108 -123z" />
<glyph unicode="&#xac;" d="M68 647l10 148h991v-568l-164 -12v432h-837z" />
<glyph unicode="&#xad;" horiz-adv-x="579" d="M70 416l10 147h430l-12 -147h-428z" />
<glyph unicode="&#xae;" horiz-adv-x="880" d="M70 1087.5q0 163.5 103 267t267 103.5t267.5 -103.5t103.5 -267t-103.5 -267t-267.5 -103.5t-267 103.5t-103 267zM158 1087q0 -127 78.5 -208.5t203.5 -81.5t204 82t79 208q0 129 -79 210t-204 81t-203.5 -81t-78.5 -210zM299 889v393h129q164 0 164 -133 q0 -78 -70 -117q12 -66 45 -65q18 0 45 10l11 -80q-37 -14 -74 -14q-86 0 -115 129h-8q-8 0 -37 4v-127h-90zM389 1096q16 -4 37 -4q33 0 54.5 16t21.5 43q0 53 -76 53h-37v-108z" />
<glyph unicode="&#xaf;" horiz-adv-x="833" d="M111 1169l10 129h602l-10 -129h-602z" />
<glyph unicode="&#xb0;" horiz-adv-x="669" d="M61 1184q0 121 76 197.5t197 76.5q123 0 199.5 -76.5t76.5 -197.5t-76.5 -198t-199.5 -77q-121 0 -197 77t-76 198zM197 1183.5q0 -65.5 37.5 -106.5t99.5 -41q63 0 101 41t38 106.5t-38 106.5t-101 41q-61 0 -99 -41t-38 -106.5z" />
<glyph unicode="&#xb1;" d="M68 0l10 147h997l-10 -147h-997zM68 682l10 147h411v406l164 10v-416h422l-10 -147h-412v-403l-164 -13v416h-421z" />
<glyph unicode="&#xb2;" horiz-adv-x="651" d="M41 1055q217 160 309 257t92 179q0 135 -159 135q-100 0 -211 -47l-25 115q125 47 248 47q127 0 203.5 -60.5t76.5 -189.5q0 -100 -88 -200.5t-276 -235.5h389l-8 -113h-543z" />
<glyph unicode="&#xb3;" horiz-adv-x="647" d="M41 975l27 112q123 -45 231 -45q164 0 164 109q0 70 -96 125h-183l9 110h161q84 66 84 136q0 104 -151 104q-100 0 -219 -47l-25 113q133 49 252 49q123 0 198.5 -51.5t75.5 -155.5q0 -117 -116 -197q141 -74 141 -196q0 -106 -81 -159.5t-212 -53.5q-129 0 -260 47z" />
<glyph unicode="&#xb4;" horiz-adv-x="577" d="M111 1114l172 330h184l-209 -330h-147z" />
<glyph unicode="&#xb5;" horiz-adv-x="1095" d="M141 975l164 10v-651q0 -98 42 -149.5t114 -51.5q111 0 330 121v721l163 10v-985h-143l-20 111q-227 -131 -365 -131q-86 0 -145 53l20 -449l-160 -12v1403z" />
<glyph unicode="&#xb6;" horiz-adv-x="1050" d="M72 1118.5q0 141.5 89 230.5t230 89h660l-9 -123h-127v-1315h-133v1315h-157v-1315h-127v799h-107q-141 0 -230 89t-89 230.5z" />
<glyph unicode="&#xb7;" horiz-adv-x="436" d="M104 721q0 47 33 80t80 33q49 0 81 -33t32 -80q0 -49 -32 -81t-81 -32q-47 0 -80 32t-33 81z" />
<glyph unicode="&#xb8;" horiz-adv-x="598" d="M111 -420l20 109q59 -23 119 -23q104 0 104 66q0 68 -73 67q-29 0 -66 -12l-65 80l81 153h142l-82 -122q12 2 33 2q76 0 119.5 -46.5t43.5 -119.5q0 -78 -62.5 -127t-168.5 -49q-75 -1 -145 22z" />
<glyph unicode="&#xb9;" horiz-adv-x="622" d="M43 942l8 113h205v540l-213 -79v124l229 86h113v-671h207l-8 -113h-541z" />
<glyph unicode="&#xba;" horiz-adv-x="714" d="M61 1136.5q0 159.5 79 240.5t218.5 81t217 -81t77.5 -240.5t-77.5 -239.5t-217.5 -80q-141 0 -219 80t-78 239.5zM195 1137q0 -203 163 -203q162 0 162 203q0 205 -162 204q-163 1 -163 -204z" />
<glyph unicode="&#xbb;" horiz-adv-x="995" d="M49 172l324 317l-324 318l109 125l389 -387l-12 -117l-377 -379zM449 172l323 317l-323 318l108 125l389 -387l-12 -117l-377 -379z" />
<glyph unicode="&#xbc;" horiz-adv-x="1536" d="M47 653l8 113h205v541l-213 -80v125l229 86h113v-672h207l-8 -113h-541zM301 0l834 1438h147l-833 -1438h-148zM842 283q96 115 140 231.5t44 269.5h131q0 -147 -41 -262.5t-141 -238.5h227v184l131 8v-192h152l-8 -113h-144v-170h-131v170h-352z" />
<glyph unicode="&#xbd;" horiz-adv-x="1562" d="M47 653l8 113h205v541l-213 -80v125l229 86h113v-672h207l-8 -113h-541zM301 0l834 1438h147l-833 -1438h-148zM954 113q217 160 309.5 257t92.5 179q0 135 -160 135q-100 0 -211 -47l-24 115q125 47 247 47q127 0 204 -60.5t77 -189.5q0 -100 -88 -200.5t-277 -235.5 h389l-8 -113h-542z" />
<glyph unicode="&#xbe;" horiz-adv-x="1507" d="M47 686l27 113q123 -45 231 -45q164 0 164 108q0 70 -96 125h-183l9 111h161q84 66 84 135q0 104 -151 104q-100 0 -219 -47l-25 113q131 49 252 49q123 0 198.5 -51t75.5 -156q0 -117 -116 -196q141 -74 141 -197q0 -106 -81 -159.5t-212 -53.5q-129 0 -260 47zM260 0 l834 1438h147l-833 -1438h-148zM813 283q96 115 140 231.5t44 269.5h131q0 -147 -40.5 -262.5t-141.5 -238.5h228v184l131 8v-192h151l-8 -113h-143v-170h-131v170h-353z" />
<glyph unicode="&#xbf;" horiz-adv-x="987" d="M66 -104q0 139 93 266t275 182l2 242l158 12l4 -346q-197 -43 -275.5 -138.5t-78.5 -202t75.5 -167.5t204.5 -61q145 0 367 63l33 -160q-223 -66 -402 -65q-209 0 -332.5 97.5t-123.5 277.5zM401 881q0 47 33 79.5t80 32.5q49 0 81 -32.5t32 -79.5q0 -49 -32 -81t-81 -32 q-47 0 -80 32t-33 81z" />
<glyph unicode="&#xc0;" horiz-adv-x="1308" d="M41 0l491 1432l240 12l496 -1444h-187l-118 350h-619l-119 -350h-184zM326 1829h227l233 -273h-180zM391 510h524l-262 772z" />
<glyph unicode="&#xc1;" horiz-adv-x="1308" d="M41 0l491 1432l240 12l496 -1444h-187l-118 350h-619l-119 -350h-184zM391 510h524l-262 772zM514 1556l234 273h227l-281 -273h-180z" />
<glyph unicode="&#xc2;" horiz-adv-x="1308" d="M41 0l491 1432l240 12l496 -1444h-187l-118 350h-619l-119 -350h-184zM305 1556l260 273h176l258 -273h-190l-158 164l-157 -164h-189zM391 510h524l-262 772z" />
<glyph unicode="&#xc3;" horiz-adv-x="1308" d="M41 0l491 1432l240 12l496 -1444h-187l-118 350h-619l-119 -350h-184zM315 1559q12 92 69.5 149t131.5 57q66 0 114 -28.5t86 -58t77 -29.5q59 0 79 94l121 -23q-14 -90 -71.5 -146t-128.5 -56q-84 0 -160 57t-117 57q-61 0 -84 -94zM391 510h524l-262 772z" />
<glyph unicode="&#xc4;" horiz-adv-x="1308" d="M41 0l491 1432l240 12l496 -1444h-187l-118 350h-619l-119 -350h-184zM348 1667q0 43 27.5 71.5t70.5 28.5t72 -28.5t29 -71.5t-29 -70.5t-72 -27.5t-70.5 27.5t-27.5 70.5zM391 510h524l-262 772zM756 1667q0 43 28.5 71.5t71.5 28.5t70.5 -28.5t27.5 -71.5t-27.5 -70.5 t-70.5 -27.5t-71.5 27.5t-28.5 70.5z" />
<glyph unicode="&#xc5;" horiz-adv-x="1308" d="M41 0l491 1432l33 2q-121 47 -121 188q0 92 58.5 149.5t148.5 57.5q94 0 152.5 -57.5t58.5 -149.5q0 -123 -100 -180l10 2l496 -1444h-187l-118 350h-619l-119 -350h-184zM391 510h524l-262 772zM561 1622q0 -43 25.5 -70.5t64.5 -27.5q43 0 68.5 27.5t25.5 70.5 q0 45 -25.5 72.5t-68.5 27.5q-41 0 -65.5 -27.5t-24.5 -72.5z" />
<glyph unicode="&#xc6;" horiz-adv-x="1900" d="M-29 0l863 1438h983l-13 -160h-708v-485h612l-10 -162h-602v-469h721l-13 -162h-884v350h-539l-205 -350h-205zM467 510h453v766z" />
<glyph unicode="&#xc7;" horiz-adv-x="1239" d="M121 719q0 199 50 345t140 230t203 124t248 40q197 0 393 -69l-35 -160q-197 70 -350 69q-213 0 -340 -138t-127 -441t127 -440.5t340 -137.5q160 0 350 68l35 -160q-141 -51 -313 -65l-56 -86q12 2 33 2q76 0 120 -46.5t44 -119.5q0 -78 -62.5 -127t-168.5 -49 q-76 0 -146 22l21 109q59 -23 118 -23q104 0 105 66q0 68 -74 67q-29 0 -65 -12l-66 80l60 115q-262 14 -423 192t-161 545z" />
<glyph unicode="&#xc8;" horiz-adv-x="1122" d="M141 0v1438h897l-12 -160h-709v-485h613l-10 -162h-603v-469h721l-12 -162h-885zM313 1829h228l233 -273h-180z" />
<glyph unicode="&#xc9;" horiz-adv-x="1122" d="M141 0v1438h897l-12 -160h-709v-485h613l-10 -162h-603v-469h721l-12 -162h-885zM406 1556l233 273h227l-280 -273h-180z" />
<glyph unicode="&#xca;" horiz-adv-x="1122" d="M141 0v1438h897l-12 -160h-709v-485h613l-10 -162h-603v-469h721l-12 -162h-885zM242 1556l260 273h176l258 -273h-191l-157 164l-158 -164h-188z" />
<glyph unicode="&#xcb;" horiz-adv-x="1122" d="M141 0v1438h897l-12 -160h-709v-485h613l-10 -162h-603v-469h721l-12 -162h-885zM287 1667q0 43 27.5 71.5t70.5 28.5t71.5 -28.5t28.5 -71.5t-28.5 -70.5t-71.5 -27.5t-70.5 27.5t-27.5 70.5zM694 1667q0 43 29 71.5t72 28.5t70.5 -28.5t27.5 -71.5t-27.5 -70.5 t-70.5 -27.5t-72 27.5t-29 70.5z" />
<glyph unicode="&#xcc;" horiz-adv-x="458" d="M-139 1829h227l234 -273h-181zM141 0v1438h176v-1438h-176z" />
<glyph unicode="&#xcd;" horiz-adv-x="458" d="M139 1556l234 273h227l-281 -273h-180zM141 0v1438h176v-1438h-176z" />
<glyph unicode="&#xce;" horiz-adv-x="458" d="M-117 1556l260 273h176l259 -273h-191l-158 164l-157 -164h-189zM141 0v1438h176v-1438h-176z" />
<glyph unicode="&#xcf;" horiz-adv-x="458" d="M-74 1667q0 43 28 71.5t71 28.5t71.5 -28.5t28.5 -71.5t-28.5 -70.5t-71.5 -27.5t-71 27.5t-28 70.5zM141 0v1438h176v-1438h-176zM334 1667q0 43 28.5 71.5t71.5 28.5t70.5 -28.5t27.5 -71.5t-27.5 -70.5t-70.5 -27.5t-71.5 27.5t-28.5 70.5z" />
<glyph unicode="&#xd0;" horiz-adv-x="1413" d="M8 655l10 129h123v654h500q311 0 481 -174t170 -541q0 -371 -186 -557t-510 -186q-233 0 -455 51v624h-133zM317 166q137 -25 293 -25q231 0 365.5 146.5t134.5 433.5q0 557 -471 557h-322v-494h304l-11 -129h-293v-489z" />
<glyph unicode="&#xd1;" horiz-adv-x="1353" d="M141 0v1432l170 12l727 -1137v1131h174v-1432l-170 -12l-727 1136v-1130h-174zM338 1559q12 92 69.5 149t131.5 57q66 0 113.5 -28.5t85.5 -58t77 -29.5q59 0 80 94l121 -23q-14 -90 -71.5 -146t-129.5 -56q-66 0 -115 28.5t-87 57t-74 28.5q-61 0 -84 -94z" />
<glyph unicode="&#xd2;" horiz-adv-x="1533" d="M121 719q0 739 647 739q645 0 645 -739t-645 -739q-647 0 -647 739zM303 719q0 -578 465 -578q463 0 463 578q0 580 -463 579q-465 1 -465 -579zM469 1829h227l234 -273h-180z" />
<glyph unicode="&#xd3;" horiz-adv-x="1533" d="M121 719q0 739 647 739q645 0 645 -739t-645 -739q-647 0 -647 739zM303 719q0 -578 465 -578q463 0 463 578q0 580 -463 579q-465 1 -465 -579zM602 1556l234 273h227l-281 -273h-180z" />
<glyph unicode="&#xd4;" horiz-adv-x="1533" d="M121 719q0 739 647 739q645 0 645 -739t-645 -739q-647 0 -647 739zM303 719q0 -578 465 -578q463 0 463 578q0 580 -463 579q-465 1 -465 -579zM420 1556l260 273h176l258 -273h-190l-158 164l-158 -164h-188z" />
<glyph unicode="&#xd5;" horiz-adv-x="1533" d="M121 719q0 739 647 739q645 0 645 -739t-645 -739q-647 0 -647 739zM303 719q0 -578 465 -578q463 0 463 578q0 580 -463 579q-465 1 -465 -579zM428 1559q12 92 69.5 149t131.5 57q66 0 114 -28.5t85.5 -58t76.5 -29.5q59 0 80 94l121 -23q-14 -90 -71.5 -146 t-129.5 -56q-66 0 -115 28.5t-86.5 57t-74.5 28.5q-61 0 -84 -94z" />
<glyph unicode="&#xd6;" horiz-adv-x="1533" d="M121 719q0 739 647 739q645 0 645 -739t-645 -739q-647 0 -647 739zM303 719q0 -578 465 -578q463 0 463 578q0 580 -463 579q-465 1 -465 -579zM463 1667q0 43 27.5 71.5t70.5 28.5t72 -28.5t29 -71.5t-29 -70.5t-72 -27.5t-70.5 27.5t-27.5 70.5zM870 1667 q0 43 29 71.5t72 28.5t70.5 -28.5t27.5 -71.5t-27.5 -70.5t-70.5 -27.5t-72 27.5t-29 70.5z" />
<glyph unicode="&#xd7;" d="M102 362l359 359l-359 358l119 103l350 -351l351 351l118 -103l-358 -358l358 -359l-116 -104l-353 352l-350 -350z" />
<glyph unicode="&#xd8;" horiz-adv-x="1533" d="M121 719q0 739 647 739q217 0 365 -86l139 207l112 -55l-153 -230q182 -186 182 -575q0 -739 -645 -739q-219 0 -367 86l-139 -207l-112 55l153 229q-182 187 -182 576zM303 719q0 -276 105 -420l626 928q-109 72 -266 71q-465 1 -465 -579zM500 211q104 -70 268 -70 q463 0 463 578q0 274 -107 420z" />
<glyph unicode="&#xd9;" horiz-adv-x="1353" d="M141 438v1000h176v-987q0 -309 358.5 -309.5t358.5 309.5v987h178v-1000q0 -238 -144 -348t-392 -110t-391.5 110t-143.5 348zM379 1829h227l234 -273h-181z" />
<glyph unicode="&#xda;" horiz-adv-x="1353" d="M141 438v1000h176v-987q0 -309 358.5 -309.5t358.5 309.5v987h178v-1000q0 -238 -144 -348t-392 -110t-391.5 110t-143.5 348zM512 1556l233 273h228l-281 -273h-180z" />
<glyph unicode="&#xdb;" horiz-adv-x="1353" d="M141 438v1000h176v-987q0 -309 358.5 -309.5t358.5 309.5v987h178v-1000q0 -238 -144 -348t-392 -110t-391.5 110t-143.5 348zM328 1556l260 273h176l258 -273h-191l-157 164l-158 -164h-188z" />
<glyph unicode="&#xdc;" horiz-adv-x="1353" d="M141 438v1000h176v-987q0 -309 358.5 -309.5t358.5 309.5v987h178v-1000q0 -238 -144 -348t-392 -110t-391.5 110t-143.5 348zM373 1667q0 43 27.5 71.5t70.5 28.5t71.5 -28.5t28.5 -71.5t-28.5 -70.5t-71.5 -27.5t-70.5 27.5t-27.5 70.5zM780 1667q0 43 29 71.5t72 28.5 t70.5 -28.5t27.5 -71.5t-27.5 -70.5t-70.5 -27.5t-72 27.5t-29 70.5z" />
<glyph unicode="&#xdd;" horiz-adv-x="1234" d="M23 1432l204 12l391 -672l388 672l206 -12l-505 -832v-600h-179v600zM453 1556l233 273h227l-280 -273h-180z" />
<glyph unicode="&#xde;" horiz-adv-x="1179" d="M141 0v1438h176v-252q131 16 215 16q260 0 421 -125t161 -360q0 -231 -160.5 -356t-421.5 -125q-41 0 -215 16v-252h-176zM317 414q111 -16 207 -17q186 0 297 79t111 243t-110.5 242.5t-297.5 78.5q-96 0 -207 -16v-610z" />
<glyph unicode="&#xdf;" horiz-adv-x="1157" d="M141 0v1143q0 410 394 409q174 0 266 -92t92 -235q0 -117 -70 -246l-96 -178q158 -43 243 -163t85 -261q0 -164 -106.5 -280.5t-295.5 -116.5q-100 0 -198 36l22 142q86 -31 154 -31q119 0 186.5 76t67.5 186q0 113 -81 204t-218 109l-37 93l137 249q45 84 45 170 q0 84 -51 137.5t-145 53.5q-109 0 -169.5 -66.5t-60.5 -195.5v-1143h-164z" />
<glyph unicode="&#xe0;" horiz-adv-x="968" d="M80 238q0 147 125 226t459 105v107q0 178 -154 178q-113 0 -365 -82l-24 143q236 86 407 86q145 0 222 -74.5t77 -246.5v-680h-125l-22 115q-160 -135 -338 -135q-113 0 -187.5 65.5t-74.5 192.5zM240 248q0 -70 37.5 -101.5t91.5 -31.5q164 0 295 135v194 q-168 -14 -264.5 -43.5t-128 -65.5t-31.5 -87zM262 1444h184l172 -330h-147z" />
<glyph unicode="&#xe1;" horiz-adv-x="968" d="M80 238q0 147 125 226t459 105v107q0 178 -154 178q-113 0 -365 -82l-24 143q236 86 407 86q145 0 222 -74.5t77 -246.5v-680h-125l-22 115q-160 -135 -338 -135q-113 0 -187.5 65.5t-74.5 192.5zM240 248q0 -70 37.5 -101.5t91.5 -31.5q164 0 295 135v194 q-168 -14 -264.5 -43.5t-128 -65.5t-31.5 -87zM354 1114l172 330h185l-209 -330h-148z" />
<glyph unicode="&#xe2;" horiz-adv-x="968" d="M80 238q0 147 125 226t459 105v107q0 178 -154 178q-113 0 -365 -82l-24 143q236 86 407 86q145 0 222 -74.5t77 -246.5v-680h-125l-22 115q-160 -135 -338 -135q-113 0 -187.5 65.5t-74.5 192.5zM178 1114l223 330h162l223 -330h-163l-142 215l-141 -215h-162zM240 248 q0 -70 37.5 -101.5t91.5 -31.5q164 0 295 135v194q-168 -14 -264.5 -43.5t-128 -65.5t-31.5 -87z" />
<glyph unicode="&#xe3;" horiz-adv-x="968" d="M80 238q0 147 125 226t459 105v107q0 178 -154 178q-113 0 -365 -82l-24 143q236 86 407 86q145 0 222 -74.5t77 -246.5v-680h-125l-22 115q-160 -135 -338 -135q-113 0 -187.5 65.5t-74.5 192.5zM158 1178q12 92 69.5 149t130.5 57q68 0 141.5 -57t98.5 -57q59 0 82 94 l119 -25q-12 -88 -69.5 -145t-129.5 -57q-68 0 -142.5 57t-99.5 57q-61 0 -84 -94zM240 248q0 -70 37.5 -101.5t91.5 -31.5q164 0 295 135v194q-168 -14 -264.5 -43.5t-128 -65.5t-31.5 -87z" />
<glyph unicode="&#xe4;" horiz-adv-x="968" d="M80 238q0 147 125 226t459 105v107q0 178 -154 178q-113 0 -365 -82l-24 143q236 86 407 86q145 0 222 -74.5t77 -246.5v-680h-125l-22 115q-160 -135 -338 -135q-113 0 -187.5 65.5t-74.5 192.5zM184 1243q0 43 28 70.5t71 27.5t71.5 -27.5t28.5 -70.5t-28.5 -71.5 t-71.5 -28.5t-71 28.5t-28 71.5zM240 248q0 -70 37.5 -101.5t91.5 -31.5q164 0 295 135v194q-168 -14 -264.5 -43.5t-128 -65.5t-31.5 -87zM592 1243q0 43 28.5 70.5t71.5 27.5t71 -27.5t28 -70.5t-28 -71.5t-71 -28.5t-71.5 28.5t-28.5 71.5z" />
<glyph unicode="&#xe5;" horiz-adv-x="968" d="M80 238q0 147 125 226t459 105v107q0 178 -154 178q-113 0 -365 -82l-24 143q236 86 407 86q145 0 222 -74.5t77 -246.5v-680h-125l-22 115q-160 -135 -338 -135q-113 0 -187.5 65.5t-74.5 192.5zM240 248q0 -70 37.5 -101.5t91.5 -31.5q164 0 295 135v194 q-168 -14 -264.5 -43.5t-128 -65.5t-31.5 -87zM279 1274q0 92 58 149.5t148 57.5q94 0 152.5 -57.5t58.5 -149.5q0 -90 -58 -147.5t-153 -57.5q-90 0 -148 57.5t-58 147.5zM395 1274q0 -43 25.5 -70.5t64.5 -27.5q43 0 69 27.5t26 70.5q0 45 -26 72.5t-69 27.5 q-41 0 -65.5 -27.5t-24.5 -72.5z" />
<glyph unicode="&#xe6;" horiz-adv-x="1579" d="M80 238q0 96 46 159.5t178 109.5t360 62v107q0 178 -154 178q-113 0 -365 -82l-24 143q233 86 399 86q201 0 256 -157q104 158 326 157q197 0 300 -147t64 -422h-641q10 -309 299 -309q111 0 285 55l23 -137q-166 -61 -322 -61q-268 0 -369 178q-211 -178 -399 -178 q-113 0 -187.5 65.5t-74.5 192.5zM240 248q0 -63 33.5 -98t95.5 -35q78 0 165 41t154 123q-20 57 -24 165q-225 -20 -324.5 -65t-99.5 -131zM827 561h488q6 141 -54.5 221t-166.5 80q-247 0 -267 -301z" />
<glyph unicode="&#xe7;" horiz-adv-x="909" d="M100 489q0 264 125 388t326 124q127 0 278 -47l-22 -145q-135 45 -242 45q-299 0 -299 -365q0 -362 299 -362q96 0 242 45l22 -145q-102 -35 -219 -45l-55 -84q12 2 33 2q76 0 120 -46.5t44 -119.5q0 -78 -62.5 -127t-169.5 -49q-76 0 -145 22l20 109q59 -23 119 -23 q104 0 104 66q0 68 -73 67q-29 0 -66 -12l-65 80l61 117q-172 20 -273.5 142.5t-101.5 362.5z" />
<glyph unicode="&#xe8;" horiz-adv-x="1015" d="M100 489q0 262 118 387t321 125q199 0 302 -147t64 -422h-641q10 -309 297 -309q111 0 285 55l22 -137q-166 -61 -321 -61q-205 0 -326 121.5t-121 387.5zM266 561h488q4 143 -55.5 222t-166.5 79q-248 0 -266 -301zM283 1444h184l172 -330h-147z" />
<glyph unicode="&#xe9;" horiz-adv-x="1015" d="M100 489q0 262 118 387t321 125q199 0 302 -147t64 -422h-641q10 -309 297 -309q111 0 285 55l22 -137q-166 -61 -321 -61q-205 0 -326 121.5t-121 387.5zM266 561h488q4 143 -55.5 222t-166.5 79q-248 0 -266 -301zM395 1114l172 330h185l-209 -330h-148z" />
<glyph unicode="&#xea;" horiz-adv-x="1015" d="M100 489q0 262 118 387t321 125q199 0 302 -147t64 -422h-641q10 -309 297 -309q111 0 285 55l22 -137q-166 -61 -321 -61q-205 0 -326 121.5t-121 387.5zM223 1114l223 330h162l223 -330h-163l-142 215l-141 -215h-162zM266 561h488q4 143 -55.5 222t-166.5 79 q-248 0 -266 -301z" />
<glyph unicode="&#xeb;" horiz-adv-x="1015" d="M100 489q0 262 118 387t321 125q199 0 302 -147t64 -422h-641q10 -309 297 -309q111 0 285 55l22 -137q-166 -61 -321 -61q-205 0 -326 121.5t-121 387.5zM227 1243q0 43 28 70.5t71 27.5t71.5 -27.5t28.5 -70.5t-28.5 -71.5t-71.5 -28.5t-71 28.5t-28 71.5zM266 561h488 q4 143 -55.5 222t-166.5 79q-248 0 -266 -301zM635 1243q0 43 28.5 70.5t71.5 27.5t71 -27.5t28 -70.5t-28 -71.5t-71 -28.5t-71.5 28.5t-28.5 71.5z" />
<glyph unicode="&#xec;" horiz-adv-x="446" d="M-49 1444h184l172 -330h-147zM141 0v975l164 10v-985h-164z" />
<glyph unicode="&#xed;" horiz-adv-x="446" d="M139 1114l172 330h185l-209 -330h-148zM141 0v975l164 10v-985h-164z" />
<glyph unicode="&#xee;" horiz-adv-x="446" d="M-80 1114l223 330h162l223 -330h-163l-142 215l-141 -215h-162zM141 0v975l164 10v-985h-164z" />
<glyph unicode="&#xef;" horiz-adv-x="446" d="M-80 1243q0 43 27.5 70.5t70.5 27.5t72 -27.5t29 -70.5t-29 -71.5t-72 -28.5t-70.5 28.5t-27.5 71.5zM141 0v975l164 10v-985h-164zM328 1243q0 43 28.5 70.5t71.5 27.5t70.5 -27.5t27.5 -70.5t-27.5 -71.5t-70.5 -28.5t-71.5 28.5t-28.5 71.5z" />
<glyph unicode="&#xf0;" horiz-adv-x="1140" d="M100 489q0 260 117 386t299 126q119 0 258 -55q-55 147 -143 279l-314 -138l-38 121l272 121q-104 123 -240 223h217q84 -63 166 -161l297 131l39 -121l-258 -113q248 -360 248 -760q0 -549 -459 -548q-461 -1 -461 509zM266 489q0 -362 295 -362q197 0 263.5 183.5 t-3.5 477.5q-168 66 -284 66q-121 0 -196 -87.5t-75 -277.5z" />
<glyph unicode="&#xf1;" horiz-adv-x="1095" d="M141 0v975l164 10v-117q229 133 373 133q119 0 197.5 -76.5t78.5 -248.5v-676h-163v647q0 100 -42 149.5t-114 49.5q-109 0 -330 -119v-727h-164zM225 1178q12 92 69.5 149t131.5 57q68 0 141.5 -57t98.5 -57q59 0 82 94l118 -25q-12 -88 -69.5 -145t-128.5 -57 q-68 0 -142.5 57t-99.5 57q-61 0 -84 -94z" />
<glyph unicode="&#xf2;" horiz-adv-x="1120" d="M100 489q0 256 122 384t339 128q215 0 337 -128t122 -384t-122 -382.5t-337 -126.5q-217 0 -339 126.5t-122 382.5zM266 489.5q0 -184.5 78 -273.5t217 -89q137 0 215 89t78 273.5t-78 274.5t-215 90t-216 -90t-79 -274.5zM334 1444h184l172 -330h-147z" />
<glyph unicode="&#xf3;" horiz-adv-x="1120" d="M100 489q0 256 122 384t339 128q215 0 337 -128t122 -384t-122 -382.5t-337 -126.5q-217 0 -339 126.5t-122 382.5zM266 489.5q0 -184.5 78 -273.5t217 -89q137 0 215 89t78 273.5t-78 274.5t-215 90t-216 -90t-79 -274.5zM426 1114l172 330h184l-209 -330h-147z" />
<glyph unicode="&#xf4;" horiz-adv-x="1120" d="M100 489q0 256 122 384t339 128q215 0 337 -128t122 -384t-122 -382.5t-337 -126.5q-217 0 -339 126.5t-122 382.5zM254 1114l223 330h162l223 -330h-164l-141 215l-141 -215h-162zM266 489.5q0 -184.5 78 -273.5t217 -89q137 0 215 89t78 273.5t-78 274.5t-215 90 t-216 -90t-79 -274.5z" />
<glyph unicode="&#xf5;" horiz-adv-x="1120" d="M100 489q0 256 122 384t339 128q215 0 337 -128t122 -384t-122 -382.5t-337 -126.5q-217 0 -339 126.5t-122 382.5zM240 1178q12 92 69.5 149t130.5 57q68 0 141.5 -57t98.5 -57q59 0 82 94l119 -25q-12 -88 -69.5 -145t-129.5 -57q-68 0 -142.5 57t-99.5 57 q-61 0 -84 -94zM266 489.5q0 -184.5 78 -273.5t217 -89q137 0 215 89t78 273.5t-78 274.5t-215 90t-216 -90t-79 -274.5z" />
<glyph unicode="&#xf6;" horiz-adv-x="1120" d="M100 489q0 256 122 384t339 128q215 0 337 -128t122 -384t-122 -382.5t-337 -126.5q-217 0 -339 126.5t-122 382.5zM258 1243q0 43 27.5 70.5t70.5 27.5t72 -27.5t29 -70.5t-29 -71.5t-72 -28.5t-70.5 28.5t-27.5 71.5zM266 489.5q0 -184.5 78 -273.5t217 -89 q137 0 215 89t78 273.5t-78 274.5t-215 90t-216 -90t-79 -274.5zM666 1243q0 43 28.5 70.5t71.5 27.5t70.5 -27.5t27.5 -70.5t-27.5 -71.5t-70.5 -28.5t-71.5 28.5t-28.5 71.5z" />
<glyph unicode="&#xf7;" d="M68 647l10 148h997l-10 -148h-997zM459 289q0 47 31.5 79.5t80.5 32.5q47 0 80 -32.5t33 -79.5q0 -49 -33 -81t-80 -32q-49 0 -80.5 32t-31.5 81zM459 1153q0 49 31.5 81t80.5 32q47 0 80 -32t33 -81q0 -47 -33 -80t-80 -33q-49 0 -80.5 33t-31.5 80z" />
<glyph unicode="&#xf8;" horiz-adv-x="1120" d="M100 489q0 256 122 384t339 128q127 0 225 -47l103 162l98 -47l-110 -176q143 -131 143 -404q0 -256 -122 -382.5t-337 -126.5q-127 0 -229 45l-101 -160l-98 47l109 174q-142 131 -142 403zM266 489q0 -170 66 -260l373 592q-59 33 -144 33q-137 0 -216 -90.5 t-79 -274.5zM416 158q61 -31 145 -31q137 0 215 89t78 273q0 166 -68 261z" />
<glyph unicode="&#xf9;" horiz-adv-x="1095" d="M141 303v672l164 10v-651q0 -100 42 -150.5t114 -50.5q104 0 330 121v721l163 10v-985h-143l-20 111q-229 -131 -373 -131q-119 0 -198 75.5t-79 247.5zM324 1444h184l172 -330h-148z" />
<glyph unicode="&#xfa;" horiz-adv-x="1095" d="M141 303v672l164 10v-651q0 -100 42 -150.5t114 -50.5q104 0 330 121v721l163 10v-985h-143l-20 111q-229 -131 -373 -131q-119 0 -198 75.5t-79 247.5zM416 1114l172 330h184l-209 -330h-147z" />
<glyph unicode="&#xfb;" horiz-adv-x="1095" d="M141 303v672l164 10v-651q0 -100 42 -150.5t114 -50.5q104 0 330 121v721l163 10v-985h-143l-20 111q-229 -131 -373 -131q-119 0 -198 75.5t-79 247.5zM244 1114l223 330h162l223 -330h-164l-141 215l-141 -215h-162z" />
<glyph unicode="&#xfc;" horiz-adv-x="1095" d="M141 303v672l164 10v-651q0 -100 42 -150.5t114 -50.5q104 0 330 121v721l163 10v-985h-143l-20 111q-229 -131 -373 -131q-119 0 -198 75.5t-79 247.5zM244 1243q0 43 27.5 70.5t70.5 27.5t71.5 -27.5t28.5 -70.5t-28.5 -71.5t-71.5 -28.5t-70.5 28.5t-27.5 71.5z M651 1243q0 43 29 70.5t72 27.5t70.5 -27.5t27.5 -70.5t-27.5 -71.5t-70.5 -28.5t-72 28.5t-29 71.5z" />
<glyph unicode="&#xfd;" horiz-adv-x="985" d="M23 975l178 10l291 -817l290 817l179 -10l-523 -1403l-176 12l160 416h-35zM375 1114l172 330h184l-209 -330h-147z" />
<glyph unicode="&#xfe;" horiz-adv-x="1110" d="M141 -428v1970l164 10v-684q219 133 361 133q156 0 250 -128t94 -384q0 -260 -116 -384.5t-298 -124.5q-135 0 -291 67v-463zM305 188q150 -61 268 -61q121 0 196 88t75 279q0 182 -56.5 267t-152.5 85q-104 0 -330 -119v-539z" />
<glyph unicode="&#xff;" horiz-adv-x="985" d="M23 975l178 10l291 -817l290 817l179 -10l-523 -1403l-176 12l160 416h-35zM188 1243q0 43 28 70.5t71 27.5t71.5 -27.5t28.5 -70.5t-28.5 -71.5t-71.5 -28.5t-71 28.5t-28 71.5zM596 1243q0 43 28.5 70.5t71.5 27.5t71 -27.5t28 -70.5t-28 -71.5t-71 -28.5t-71.5 28.5 t-28.5 71.5z" />
<glyph unicode="&#x152;" horiz-adv-x="2213" d="M121 719q0 389 167 564t453 175q340 0 490 -231v211h897l-10 -160h-709v-485h612l-12 -162h-600v-469h719l-10 -162h-887v209q-150 -229 -490 -229q-287 0 -453.5 176t-166.5 563zM303 719q0 -578 465 -578q463 0 463 578v31q-14 549 -463 548q-465 1 -465 -579z" />
<glyph unicode="&#x153;" horiz-adv-x="1771" d="M100 489.5q0 253.5 125 382.5t336 129q268 0 373 -204q100 205 358 204q193 0 300.5 -147t68.5 -422h-643q14 -303 297 -303q111 0 287 55l20 -143q-166 -61 -322 -61q-264 0 -364 204q-104 -205 -375 -204q-211 0 -336 128t-125 381.5zM266 489.5q0 -184.5 78 -273.5 t217 -89q137 0 215 89t78 273.5t-78 274.5t-215 90t-216 -90t-79 -274.5zM1020 561h487q4 143 -55 222t-166 79q-248 0 -266 -301z" />
<glyph unicode="&#x178;" horiz-adv-x="1234" d="M23 1432l204 12l391 -672l388 672l206 -12l-505 -832v-600h-179v600zM313 1667q0 43 28 71.5t71 28.5t71.5 -28.5t28.5 -71.5t-28.5 -70.5t-71.5 -27.5t-71 27.5t-28 70.5zM721 1667q0 43 28.5 71.5t71.5 28.5t71 -28.5t28 -71.5t-28 -70.5t-71 -27.5t-71.5 27.5 t-28.5 70.5z" />
<glyph unicode="&#x2c6;" horiz-adv-x="829" d="M111 1114l223 330h162l223 -330h-164l-141 215l-142 -215h-161z" />
<glyph unicode="&#x2dc;" horiz-adv-x="862" d="M111 1178q12 92 69.5 149t130.5 57q68 0 141.5 -57t98.5 -57q59 0 82 94l119 -25q-12 -88 -69.5 -145t-129.5 -57q-68 0 -142.5 57t-99.5 57q-61 0 -84 -94z" />
<glyph unicode="&#x3bc;" horiz-adv-x="1095" d="M141 975l164 10v-651q0 -98 42 -149.5t114 -51.5q111 0 330 121v721l163 10v-985h-143l-20 111q-227 -131 -365 -131q-86 0 -145 53l20 -449l-160 -12v1403z" />
<glyph unicode="&#x2000;" horiz-adv-x="913" />
<glyph unicode="&#x2001;" horiz-adv-x="1828" />
<glyph unicode="&#x2002;" horiz-adv-x="913" />
<glyph unicode="&#x2003;" horiz-adv-x="1828" />
<glyph unicode="&#x2004;" horiz-adv-x="608" />
<glyph unicode="&#x2005;" horiz-adv-x="456" />
<glyph unicode="&#x2006;" horiz-adv-x="303" />
<glyph unicode="&#x2007;" horiz-adv-x="303" />
<glyph unicode="&#x2008;" horiz-adv-x="227" />
<glyph unicode="&#x2009;" horiz-adv-x="364" />
<glyph unicode="&#x200a;" horiz-adv-x="100" />
<glyph unicode="&#x2010;" horiz-adv-x="579" d="M70 416l10 147h430l-12 -147h-428z" />
<glyph unicode="&#x2011;" horiz-adv-x="579" d="M70 416l10 147h430l-12 -147h-428z" />
<glyph unicode="&#x2013;" horiz-adv-x="1150" d="M49 416l10 147h1043l-12 -147h-1041z" />
<glyph unicode="&#x2014;" horiz-adv-x="2168" d="M49 416l10 147h2040l-12 -147h-2038z" />
<glyph unicode="&#x2018;" horiz-adv-x="368" d="M70 1342.5q0 93.5 22.5 175t71.5 188.5l143 -16q-68 -143 -72 -259t50 -262l-183 -14q-32 94 -32 187.5z" />
<glyph unicode="&#x2019;" horiz-adv-x="368" d="M68 1169q66 145 69.5 261t-47.5 260l180 16q45 -160 29 -276.5t-90 -274.5z" />
<glyph unicode="&#x201a;" horiz-adv-x="368" d="M68 -283q66 143 69.5 260t-47.5 261l180 14q33 -94 33 -187.5t-22.5 -175.5t-71.5 -188z" />
<glyph unicode="&#x201c;" horiz-adv-x="702" d="M70 1342.5q0 93.5 22.5 175t71.5 188.5l143 -16q-68 -143 -72 -259t50 -262l-183 -14q-32 94 -32 187.5zM403 1342.5q0 93.5 23 175t72 188.5l141 -16q-66 -143 -70 -259t47 -262l-180 -14q-33 94 -33 187.5z" />
<glyph unicode="&#x201d;" horiz-adv-x="702" d="M68 1169q66 145 69.5 261t-47.5 260l180 16q45 -160 29 -276.5t-90 -274.5zM399 1169q66 145 70 261t-47 260l180 16q33 -94 34 -188.5t-22.5 -175t-70.5 -187.5z" />
<glyph unicode="&#x201e;" horiz-adv-x="702" d="M68 -283q66 143 69.5 260t-47.5 261l180 14q33 -94 33 -187.5t-22.5 -175.5t-71.5 -188zM399 -283q66 143 70 260t-47 261l180 14q33 -94 34 -187.5t-22.5 -175.5t-70.5 -188z" />
<glyph unicode="&#x2022;" horiz-adv-x="778" d="M70 719q0 141 89 230t230 89t230.5 -89t89.5 -230t-89.5 -230.5t-230.5 -89.5t-230 89.5t-89 230.5z" />
<glyph unicode="&#x2026;" horiz-adv-x="1703" d="M104 100q0 47 33 80t80 33q49 0 81 -33t32 -80q0 -49 -32 -80.5t-81 -31.5q-47 0 -80 31.5t-33 80.5zM739 100q0 47 33 80t80 33q49 0 81 -33t32 -80q0 -49 -32 -80.5t-81 -31.5q-47 0 -80 31.5t-33 80.5zM1374 100q0 47 32 80t81 33q47 0 79.5 -33t32.5 -80 q0 -49 -32.5 -80.5t-79.5 -31.5q-49 0 -81 31.5t-32 80.5z" />
<glyph unicode="&#x202f;" horiz-adv-x="364" />
<glyph unicode="&#x2039;" horiz-adv-x="595" d="M49 436l10 117l379 379l109 -125l-324 -318l324 -317l-109 -123z" />
<glyph unicode="&#x203a;" horiz-adv-x="595" d="M49 172l324 317l-324 318l109 125l389 -387l-12 -117l-377 -379z" />
<glyph unicode="&#x205f;" horiz-adv-x="456" />
<glyph unicode="&#x20ac;" horiz-adv-x="1236" d="M8 481l10 137h166q-2 31 -2 100.5t2 104.5h-176l10 138h185q51 258 206.5 377.5t376.5 119.5q182 0 369 -69l-31 -160q-178 68 -325 67q-326 0 -410 -335h623l-13 -138h-630q-4 -33 -4 -104q0 -39 4 -101h561l-12 -137h-529q80 -340 410 -340q147 0 325 68l31 -160 q-186 -70 -369 -69q-221 0 -377.5 120.5t-205.5 380.5h-195z" />
<glyph unicode="&#x2122;" horiz-adv-x="1161" d="M8 1350l4 88h447l-6 -88h-170v-432h-99v432h-176zM461 918l82 518l106 4l139 -402l132 398l110 4l82 -522h-96l-53 368l-119 -366l-111 -7l-121 373l-53 -368h-98z" />
<glyph horiz-adv-x="0" />
</font>
</defs>
</svg>
