<?xml version="1.0" standalone="no"?>
<!DOCTYPE svg PUBLIC "-//W3C//DTD SVG 1.1//EN" "http://www.w3.org/Graphics/SVG/1.1/DTD/svg11.dtd" >
<svg xmlns="http://www.w3.org/2000/svg">
<metadata>
This is a custom SVG webfont generated by Font Squirrel.
Designer    : Tomas Brousil
Foundry     : Tomas Brousil
</metadata>
<defs>
<font id="webfontnFjmbBbA" horiz-adv-x="1126" >
<font-face units-per-em="2048" ascent="1638" descent="-410" />
<missing-glyph horiz-adv-x="481" />
<glyph unicode=" "  horiz-adv-x="481" />
<glyph unicode="&#x09;" horiz-adv-x="481" />
<glyph unicode="&#xa0;" horiz-adv-x="481" />
<glyph unicode="!" horiz-adv-x="716" d="M164 1438h389l-21 -957l-348 -20zM166 172q0 82 54 137.5t138 55.5t138.5 -55.5t54.5 -137.5t-54.5 -137t-138.5 -55t-138 55t-54 137z" />
<glyph unicode="&#x22;" horiz-adv-x="884" d="M61 1438h330l-41 -668h-248zM494 1438h329l-41 -668h-247z" />
<glyph unicode="#" d="M-23 303l21 307h156l41 217h-144l21 308h182l59 307l301 -8l-57 -299h168l59 307l301 -8l-57 -299h117l-21 -308h-155l-41 -217h143l-20 -307h-183l-59 -307l-301 8l57 299h-168l-59 -307l-301 8l57 299h-117zM457 610h168l41 217h-168z" />
<glyph unicode="$" horiz-adv-x="1220" d="M61 1006q0 383 406 440v221l287 21v-234q201 -16 352 -68l-66 -344q-231 68 -452 68q-74 0 -100.5 -45t-12.5 -96q6 -20 80 -41l172 -48q98 -28 197.5 -74t167 -142.5t67.5 -231.5q0 -381 -405 -440v-221l-287 -21v234q-215 18 -352 67l65 344q231 -68 453 -67 q74 0 100.5 45t11.5 96q-6 20 -79 41l-172 48q-98 28 -197.5 74t-167.5 142.5t-68 231.5z" />
<glyph unicode="%" horiz-adv-x="1669" d="M41 1036q0 414 330 414q332 0 331 -414q0 -412 -331 -411q-330 -1 -330 411zM291 1036q0 -219 80 -219q82 0 82 219q0 217 -82 217q-80 0 -80 -217zM344 0l721 1438h260l-721 -1438h-260zM967 401q0 414 329 414q332 0 332 -414q0 -412 -332 -411q-329 -1 -329 411z M1217 401q0 -219 79 -219q82 0 82 219q0 217 -82 217q-79 0 -79 -217z" />
<glyph unicode="&#x26;" horiz-adv-x="1409" d="M72 395q0 115 59 194t170 144q-156 184 -156 303q0 182 138.5 302t355.5 120q211 0 348 -109.5t137 -283.5q0 -133 -76.5 -211t-234.5 -158l164 -129q39 53 123 191l307 -148q-92 -152 -156 -237q82 -57 158 -103l-186 -286l-209 137q-193 -141 -453 -141 q-246 0 -367.5 112.5t-121.5 302.5zM453 395q0 -43 31.5 -75.5t86.5 -32.5q82 0 162 43q-111 88 -221 188q-59 -57 -59 -123zM526 1036q0 -53 78 -143q139 80 139 160q0 37 -29.5 57t-74.5 20q-49 0 -81 -26.5t-32 -67.5z" />
<glyph unicode="'" horiz-adv-x="452" d="M61 1438h330l-41 -668h-248z" />
<glyph unicode="(" horiz-adv-x="811" d="M102 776.5q0 364.5 138.5 631.5t384.5 409l227 -205q-211 -160 -306 -358.5t-95 -477t95 -477.5t306 -358l-227 -205q-246 141 -384.5 408.5t-138.5 632z" />
<glyph unicode=")" horiz-adv-x="811" d="M-41 -59q211 160 306 358.5t95 477t-95 477t-306 358.5l227 205q246 -141 384.5 -408.5t138.5 -632t-138.5 -632t-384.5 -408.5z" />
<glyph unicode="*" horiz-adv-x="1069" d="M41 999l84 326l272 -131l-39 281l336 20l-39 -295l250 123l123 -313l-291 -54l195 -202l-260 -213l-146 270l-137 -256l-283 180l205 215z" />
<glyph unicode="+" d="M20 565l21 307h348v369l348 21v-390h369l-21 -307h-348v-368l-348 -21v389h-369z" />
<glyph unicode="," horiz-adv-x="548" d="M61 -334q84 188 90.5 333.5t-61.5 334.5l330 28q43 -121 43 -245.5t-30 -234t-91 -244.5z" />
<glyph unicode="-" horiz-adv-x="686" d="M61 350l21 307h543l-21 -307h-543z" />
<glyph unicode="." horiz-adv-x="548" d="M82 172q0 82 55.5 137.5t137 55.5t137 -55.5t55.5 -137.5t-55.5 -137t-137 -55t-137 55t-55.5 137z" />
<glyph unicode="/" horiz-adv-x="776" d="M-102 -156l680 1872l301 -8l-680 -1872z" />
<glyph unicode="0" horiz-adv-x="1392" d="M82 719q0 385 163 562t451.5 177t451.5 -177t163 -562t-163 -562t-451.5 -177t-451.5 177t-163 562zM492 719q0 -391 204.5 -391t204.5 391t-204.5 391t-204.5 -391z" />
<glyph unicode="1" horiz-adv-x="813" d="M20 905v377l383 156h308v-1438h-389v1028z" />
<glyph unicode="2" horiz-adv-x="1144" d="M41 1386q272 72 469 72q518 0 518 -491q0 -340 -461 -619h516l-20 -348h-1000l-20 348q305 199 450.5 348.5t145.5 270.5q0 143 -182 143q-129 0 -351 -68z" />
<glyph unicode="3" horiz-adv-x="1134" d="M41 51l65 344q231 -68 381 -67q195 0 195 102q0 61 -66 115h-290l20 348h229q66 53 66 115q0 102 -176 102q-129 0 -350 -68l-66 344q272 72 469 72q238 0 376 -94t138 -297q0 -207 -205 -336q246 -129 246 -360q0 -195 -152.5 -293t-412.5 -98q-258 -1 -467 71z" />
<glyph unicode="4" horiz-adv-x="1196" d="M20 596q133 188 192.5 389t59.5 453h387q0 -266 -65.5 -452.5t-210.5 -389.5h242v268l389 21v-289h162l-21 -348h-141v-248h-389v248h-584z" />
<glyph unicode="5" horiz-adv-x="1114" d="M61 51l66 344q231 -68 360 -67q96 0 147.5 40t51.5 97q0 59 -44 87t-138 28h-381v858h874l-20 -348h-506v-232q287 63 444.5 -56.5t157.5 -352.5q0 -221 -139 -345t-426 -124q-238 -1 -447 71z" />
<glyph unicode="6" horiz-adv-x="1253" d="M82 657q0 801 649 801q205 0 406 -51l-66 -344q-207 47 -309 47q-121 0 -182.5 -57.5t-79.5 -206.5q135 70 284 69q184 0 306 -114.5t122 -345.5q0 -217 -148.5 -346t-408.5 -129q-262 0 -417.5 170.5t-155.5 506.5zM494 573q10 -152 51 -209t112 -57q76 0 121 46t45 118 q0 139 -141 139q-67 0 -188 -37z" />
<glyph unicode="7" horiz-adv-x="1019" d="M0 1090l20 348h979l21 -348q-225 -272 -320.5 -520t-95.5 -570h-389q0 350 109.5 608t330.5 482h-655z" />
<glyph unicode="8" horiz-adv-x="1249" d="M61 371q0 231 246 360q-205 129 -205 336q0 160 136.5 275.5t386 115.5t386 -115.5t136.5 -275.5q0 -207 -205 -336q246 -129 246 -360q0 -195 -150.5 -293t-413 -98t-413 98t-150.5 293zM451 410q0 -102 174 -102.5t174 102.5q0 41 -39 90t-135 86q-96 -37 -135 -86 t-39 -90zM492 1028q0 -39 31.5 -85t101.5 -71q70 25 101.5 71t31.5 85q0 41 -32 71.5t-101.5 30.5t-101 -30.5t-31.5 -71.5z" />
<glyph unicode="9" horiz-adv-x="1253" d="M41 983q0 217 148.5 346t408.5 129q262 0 417.5 -171t155.5 -507q0 -801 -649 -800q-205 0 -405 51l65 344q207 -47 310 -47q121 0 182 57t80 207q-135 -70 -285 -70q-184 0 -306 115t-122 346zM430 967q0 -139 141 -140q78 0 187 37q-10 152 -50 209t-112 57 q-76 0 -121 -45.5t-45 -117.5z" />
<glyph unicode=":" horiz-adv-x="548" d="M82 172q0 82 55.5 137.5t137 55.5t137 -55.5t55.5 -137.5t-55.5 -137t-137 -55t-137 55t-55.5 137zM82 836q0 82 55.5 137t137 55t137 -55t55.5 -137t-55.5 -137.5t-137 -55.5t-137 55.5t-55.5 137.5z" />
<glyph unicode=";" horiz-adv-x="548" d="M45 836q0 82 55.5 137t137 55t137 -55t55.5 -137t-55.5 -137.5t-137 -55.5t-137 55.5t-55.5 137.5zM61 -334q84 188 90.5 333.5t-61.5 334.5l330 28q43 -121 43 -245.5t-30 -234t-91 -244.5z" />
<glyph unicode="&#x3c;" d="M61 569l21 308l868 401l113 -287l-645 -272l645 -273l-113 -286z" />
<glyph unicode="=" d="M20 258l21 307h1065l-21 -307h-1065zM20 872l21 308h1065l-21 -308h-1065z" />
<glyph unicode="&#x3e;" d="M63 446l646 273l-646 272l113 287l889 -410l-21 -307l-868 -401z" />
<glyph unicode="?" horiz-adv-x="1064" d="M41 1386q272 72 469 72q111 0 200 -20.5t161.5 -64.5t112.5 -121.5t40 -184.5q0 -125 -82 -229.5t-246 -171.5l-4 -185l-348 -20l-8 373q143 16 220 66t77 108q0 102 -176 102q-129 0 -351 -68zM326 172q0 82 54 137.5t138 55.5t138.5 -55.5t54.5 -137.5t-54.5 -137 t-138.5 -55t-138 55t-54 137z" />
<glyph unicode="@" horiz-adv-x="2019" d="M82 313q0 274 79 488.5t219 347.5t324.5 200.5t401.5 67.5q393 0 612 -201.5t219 -580.5q0 -315 -134 -485t-369 -170q-188 0 -238 174q-174 -174 -379 -174q-154 0 -231.5 110.5t-77.5 282.5q0 274 145.5 446t384.5 172q264 0 467 -153l-65 -541q4 -35 37 -35 q70 0 107.5 99.5t37.5 273.5q0 242 -135 368.5t-381 126.5q-317 0 -513 -201.5t-196 -615.5q0 -233 128 -351t368 -118q172 0 330 70l110 -268q-201 -88 -440 -88q-385 0 -598 198.5t-213 556.5zM850 418q0 -121 57 -121q37 0 97.5 45t123.5 125l23 178q-63 39 -129 39 q-78 0 -125 -66.5t-47 -199.5z" />
<glyph unicode="A" horiz-adv-x="1366" d="M10 0l400 1427l538 21l408 -1448h-402l-57 236h-428l-57 -236h-402zM553 584h258l-129 526z" />
<glyph unicode="B" horiz-adv-x="1269" d="M102 20v1418h650q195 0 305 -107.5t110 -263.5q0 -207 -204 -336q246 -129 245 -360q0 -197 -159.5 -294t-450.5 -97q-254 -1 -496 40zM492 336q63 -8 137 -8q86 0 137 27.5t51 74.5q0 61 -65 115h-260v-209zM492 893h219q66 53 65 115q0 35 -23.5 58.5t-68.5 23.5h-192 v-197z" />
<glyph unicode="C" horiz-adv-x="1218" d="M82 719q0 389 181 564t489 175q205 0 405 -51l-65 -344q-207 47 -310 47q-150 0 -220 -86t-70 -305t70.5 -305t219.5 -86q102 0 310 47l65 -344q-201 -51 -405 -51q-307 0 -488.5 175t-181.5 564z" />
<glyph unicode="D" horiz-adv-x="1409" d="M102 39v1399h557q319 0 493.5 -179.5t174.5 -545.5q0 -362 -193.5 -547.5t-560.5 -185.5q-225 0 -471 59zM492 338q53 -10 120 -10q152 0 229 97t77 282q0 383 -263 383h-163v-752z" />
<glyph unicode="E" horiz-adv-x="1140" d="M102 0v1438h977l-20 -348h-567v-197h464l-20 -348h-444v-197h587l-20 -348h-957z" />
<glyph unicode="F" horiz-adv-x="1099" d="M102 0v1438h977l-20 -348h-567v-281h464l-20 -348h-444v-461h-390z" />
<glyph unicode="G" horiz-adv-x="1366" d="M82 719q0 201 53 347t149.5 230t217.5 123t270 39q215 0 426 -51l-65 -344q-199 47 -330 47q-158 0 -234.5 -90t-76.5 -301q0 -217 69.5 -304t220.5 -87q43 0 92 4v166h-178l21 348h547v-776q-248 -90 -498 -90q-684 0 -684 739z" />
<glyph unicode="H" horiz-adv-x="1392" d="M102 0v1438h390v-545h409v545h389v-1438h-389v545h-409v-545h-390z" />
<glyph unicode="I" horiz-adv-x="593" d="M102 0v1438h390v-1438h-390z" />
<glyph unicode="J" horiz-adv-x="645" d="M-49 -94q106 94 154.5 178t48.5 186v1168h389v-1168q0 -201 -68.5 -329.5t-228.5 -259.5z" />
<glyph unicode="K" horiz-adv-x="1345" d="M102 0v1438h390v-582l415 592l439 -21l-506 -694l526 -723l-459 -20l-415 592v-582h-390z" />
<glyph unicode="L" horiz-adv-x="1079" d="M102 0v1438h390v-1090h546l-20 -348h-916z" />
<glyph unicode="M" horiz-adv-x="1875" d="M41 0l190 1427l478 21l227 -950l219 929l477 21l203 -1448h-381l-82 987l-233 -977l-402 -20l-239 997l-80 -987h-377z" />
<glyph unicode="N" horiz-adv-x="1392" d="M102 0v1427l359 21l450 -778v768h379v-1428l-358 -20l-451 778v-768h-379z" />
<glyph unicode="O" horiz-adv-x="1515" d="M82 719q0 739 676 739t676 -739t-676 -739t-676 739zM492 719q0 -213 65.5 -302t200.5 -89q133 0 199.5 90t66.5 301t-66.5 301t-199.5 90q-135 0 -200.5 -89t-65.5 -302z" />
<glyph unicode="P" horiz-adv-x="1236" d="M102 0v1438h525q268 0 418.5 -131t150.5 -387q0 -248 -159.5 -384.5t-413.5 -136.5q-45 0 -131 9v-408h-390zM492 758q78 -10 100 -10q195 0 194 178q0 164 -200 164h-94v-332z" />
<glyph unicode="Q" horiz-adv-x="1515" d="M82 719q0 739 676 739t676 -739q0 -461 -267 -637q23 -72 49.5 -102.5t65.5 -30.5q23 0 127 31l45 -316q-156 -43 -285 -43q-133 0 -220 82t-138 279q-18 -2 -53 -2q-676 0 -676 739zM492 719q0 -213 65.5 -302t200.5 -89q133 0 199.5 90t66.5 301t-66.5 301t-199.5 90 q-135 0 -200.5 -89t-65.5 -302z" />
<glyph unicode="R" horiz-adv-x="1286" d="M102 0v1438h504q274 0 428 -128t154 -378q0 -266 -203 -404l270 -518l-448 -20l-193 440q-72 0 -122 8v-438h-390zM492 768q51 -10 102 -10q205 0 205 184q0 168 -211 168h-96v-342z" />
<glyph unicode="S" horiz-adv-x="1179" d="M41 1006q0 453 577 452q258 0 467 -72l-65 -344q-231 68 -453 68q-74 0 -100 -45q-17 -29 -17 -61q0 -17 5 -35q6 -20 80 -41l172 -48q98 -28 197.5 -74t167 -142.5t67.5 -231.5q0 -453 -578 -452q-258 0 -467 71l66 344q231 -68 452 -67q74 0 101 45q17 29 17 61 q0 17 -5 35q-6 20 -80 41l-172 48q-98 28 -197.5 74t-167 142.5t-67.5 231.5z" />
<glyph unicode="T" horiz-adv-x="1196" d="M20 1090l21 348h1135l-21 -348h-362v-1090h-390v1090h-383z" />
<glyph unicode="U" horiz-adv-x="1392" d="M102 487v951h390v-906q0 -119 49 -161.5t155.5 -42.5t155.5 43t49 161v906h389v-951q0 -262 -159.5 -384.5t-434.5 -122.5q-276 0 -435 122.5t-159 384.5z" />
<glyph unicode="V" horiz-adv-x="1361" d="M10 1427l398 21l274 -1120l272 1120l398 -21l-402 -1427h-536z" />
<glyph unicode="W" horiz-adv-x="1941" d="M10 1427l389 21l205 -1061l172 1040l428 21l174 -1061l205 1061l348 -21l-342 -1427h-452l-156 780l-156 -780h-473z" />
<glyph unicode="X" horiz-adv-x="1363" d="M0 10l451 709l-451 708l451 21l231 -408l231 408l451 -21l-451 -708l451 -709l-449 -20l-233 407l-233 -407z" />
<glyph unicode="Y" horiz-adv-x="1363" d="M0 1427l451 21l231 -530l231 530l451 -21l-487 -888v-539h-390v539z" />
<glyph unicode="Z" horiz-adv-x="1187" d="M51 1090l21 348h1040l21 -348l-596 -742h600l-21 -348h-1040l-21 348l596 742h-600z" />
<glyph unicode="[" horiz-adv-x="761" d="M164 -164v1880h598l-21 -307h-229v-1266h250l-21 -307h-577z" />
<glyph unicode="\" horiz-adv-x="776" d="M-102 1708l301 8l680 -1872l-301 -8z" />
<glyph unicode="]" horiz-adv-x="761" d="M0 -164l20 307h230v1266h-250l20 307h578v-1880h-598z" />
<glyph unicode="^" horiz-adv-x="1073" d="M0 440l311 998h451l311 -998l-381 -20l-155 645l-156 -645z" />
<glyph unicode="_" horiz-adv-x="1019" d="M0 -326l20 267h1000l-21 -267h-999z" />
<glyph unicode="`" horiz-adv-x="761" d="M102 1458h385l172 -344h-286z" />
<glyph unicode="a" horiz-adv-x="1026" d="M41 276q0 160 116.5 233t415.5 103v35q0 74 -92 74q-111 0 -340 -64l-49 297q242 74 469 74q178 0 270.5 -84t92.5 -278v-666h-262l-37 72q-147 -92 -289 -92q-125 0 -210 77.5t-85 218.5zM373 301q0 -61 71 -61q45 0 129 24v129q-123 -16 -161.5 -32.5t-38.5 -59.5z" />
<glyph unicode="b" horiz-adv-x="1177" d="M102 61v1471l349 20v-634q164 111 303 110q160 0 261 -137t101 -387q0 -524 -530 -524q-205 -1 -484 81zM451 307q94 -20 139 -20q170 0 170 223q0 104 -34 144t-95 40q-43 0 -180 -37v-350z" />
<glyph unicode="c" horiz-adv-x="923" d="M61 504q0 266 136.5 395t369.5 129q141 0 316 -35l-43 -299q-139 27 -232 27q-109 0 -149.5 -52.5t-40.5 -165t41 -164.5t149 -52q92 0 232 26l43 -299q-174 -35 -316 -34q-236 0 -371 128t-135 396z" />
<glyph unicode="d" horiz-adv-x="1177" d="M61 504q0 260 125 392t314 132q109 0 227 -45v549l348 20v-1552h-327l-21 90q-164 -111 -303 -110q-160 0 -261.5 137t-101.5 387zM418 498q0 -104 33.5 -144.5t95.5 -40.5q43 0 180 37v350q-94 20 -139 21q-170 0 -170 -223z" />
<glyph unicode="e" horiz-adv-x="1048" d="M61 502q0 266 136.5 396t357.5 130q231 0 347 -158q84 -115 85 -318q0 -76 -12 -163h-567q0 -123 176 -123q43 0 89 7.5t109.5 20.5t96.5 19l45 -268q-180 -66 -371 -65q-244 0 -368 125t-124 397zM410 625h229v13q0 118 -109 118q-102 0 -120 -131z" />
<glyph unicode="f" horiz-adv-x="794" d="M20 700l21 308h133v135q0 410 369 409q100 0 252 -34l-27 -291q-92 18 -141 18q-57 0 -81 -30.5t-24 -106.5v-100h246l-20 -308h-226v-700h-348v700h-154z" />
<glyph unicode="g" horiz-adv-x="1081" d="M39 -168q0 143 174 258q-29 51 -29 117q0 104 70 184q-168 82 -168 291q0 170 112.5 258t315.5 88q90 0 176 -20h369l-21 -308h-92v-18q0 -170 -112.5 -256t-319.5 -86h-18q-13 -24 -13 -44q0 -15 6 -27q16 -30 58 -29h55q219 0 337 -79t118 -220q0 -162 -144.5 -272.5 t-427.5 -110.5q-238 0 -342 77.5t-104 196.5zM379 -123q0 -92 151 -92q182 0 183 100q0 74 -189 74h-18q-45 0 -82 6q-45 -39 -45 -88zM414 682q0 -96 100 -96q104 0 104 96q0 100 -104 100q-100 0 -100 -100z" />
<glyph unicode="h" horiz-adv-x="1187" d="M102 0v1532l349 20v-632q209 109 356 108q123 0 200.5 -79t77.5 -253v-696h-348v575q0 119 -104 119q-49 0 -182 -37v-657h-349z" />
<glyph unicode="i" horiz-adv-x="552" d="M84 1300.5q0 83.5 54.5 138t138 54.5t138 -54.5t54.5 -138t-54.5 -138t-138 -54.5t-138 54.5t-54.5 138zM102 0v997l349 21v-1018h-349z" />
<glyph unicode="j" horiz-adv-x="604" d="M-29 -240q94 86 138.5 161t44.5 165v911l348 21v-932q0 -178 -61.5 -295t-204.5 -233zM135 1300.5q0 83.5 55.5 138t137.5 54.5t137 -54.5t55 -138t-55 -138t-137 -54.5t-137.5 54.5t-55.5 138z" />
<glyph unicode="k" horiz-adv-x="1150" d="M102 0v1532l349 20v-895l256 361l393 -21l-346 -456l397 -531l-414 -20l-286 401v-391h-349z" />
<glyph unicode="l" horiz-adv-x="645" d="M102 268v1264l349 20v-1204q0 -49 43 -55q9 -1 20 -1q40 0 104 17l27 -291q-156 -39 -272 -38q-115 0 -193 72.5t-78 215.5z" />
<glyph unicode="m" horiz-adv-x="1740" d="M102 0v997l349 21v-98q195 109 333 108q143 0 209 -108q211 109 385 108q119 0 189.5 -82t70.5 -250v-696h-348v575q0 66 -21.5 92.5t-66.5 26.5q-41 0 -160 -37q2 -29 2 -90v-567h-348v575q0 66 -21.5 92.5t-66.5 26.5q-43 0 -157 -37v-657h-349z" />
<glyph unicode="n" horiz-adv-x="1187" d="M102 0v997l349 21v-98q209 109 356 108q123 0 200.5 -79t77.5 -253v-696h-348v575q0 66 -25.5 92.5t-78.5 26.5q-49 0 -182 -37v-657h-349z" />
<glyph unicode="o" horiz-adv-x="1167" d="M61 504q0 258 137.5 391t385 133t385 -133t137.5 -391t-137.5 -391t-385 -133t-385 133t-137.5 391zM418 504q0 -217 166 -217t166 217t-166 217t-166 -217z" />
<glyph unicode="p" horiz-adv-x="1177" d="M102 -432v1429l349 21v-100q164 111 303 110q160 0 261 -137t101 -387q0 -260 -125 -392t-313 -132q-109 0 -227 45v-437zM451 307q94 -20 139 -20q170 0 170 223q0 104 -34 144t-95 40q-43 0 -180 -37v-350z" />
<glyph unicode="q" horiz-adv-x="1177" d="M61 504q0 524 531 524q205 0 483 -82v-1358l-348 -20v522q-164 -111 -303 -110q-160 0 -261.5 137t-101.5 387zM418 498q0 -104 33.5 -144.5t95.5 -40.5q43 0 180 37v350q-94 20 -139 21q-170 0 -170 -223z" />
<glyph unicode="r" horiz-adv-x="860" d="M102 0v997l349 21v-158q106 125 191 155q37 13 79 13q55 0 119 -22l-39 -371q-84 35 -145 35q-21 0 -40 -4q-72 -16 -165 -146v-520h-349z" />
<glyph unicode="s" horiz-adv-x="942" d="M61 707q0 322 433 321q178 0 348 -49l-49 -285q-152 47 -314 47q-37 0 -57.5 -16t-9.5 -51q4 -12 78.5 -28.5t160.5 -39t158 -101.5t72 -204q0 -322 -432 -321q-178 0 -349 49l50 284q152 -47 313 -47q37 0 57.5 16.5t9.5 51.5q-4 12 -78.5 28.5t-160.5 39t-158 101.5 t-72 204z" />
<glyph unicode="t" horiz-adv-x="835" d="M20 700l21 308h133v299l348 20v-319h246l-20 -308h-226v-276q0 -76 23.5 -106.5t81.5 -30.5q49 0 141 18l27 -291q-152 -35 -252 -34q-369 0 -369 409v311h-154z" />
<glyph unicode="u" horiz-adv-x="1187" d="M102 311v686l349 21v-586q0 -66 25.5 -92.5t78.5 -26.5q49 0 182 37v647l348 21v-1018h-327l-21 88q-209 -109 -356 -108q-123 0 -201 78.5t-78 252.5z" />
<glyph unicode="v" horiz-adv-x="1073" d="M0 997l381 21l156 -645l155 645l381 -21l-311 -997h-451z" />
<glyph unicode="w" horiz-adv-x="1589" d="M0 997l360 21l136 -686l110 665l373 21l115 -686l135 686l360 -21l-270 -997h-399l-125 481l-125 -481h-400z" />
<glyph unicode="x" horiz-adv-x="1073" d="M0 10l309 494l-309 493l401 21l136 -266l135 266l401 -21l-309 -493l309 -494l-401 -20l-135 266l-136 -266z" />
<glyph unicode="y" horiz-adv-x="1073" d="M0 997l381 21l156 -645l155 645l381 -21l-446 -1429l-381 20l129 412h-64z" />
<glyph unicode="z" horiz-adv-x="987" d="M61 287l408 413h-397l20 308h813l21 -287l-408 -414h397l-20 -307h-813z" />
<glyph unicode="{" horiz-adv-x="837" d="M41 623l20 307h91q51 2 72.5 32.5t21.5 104.5v260q0 248 162.5 356.5t388.5 22.5l-21 -295q-35 12 -58.5 16.5t-56 -1t-50 -39t-17.5 -95.5v-157q0 -266 -154 -359q154 -94 154 -358v-158q0 -31 4 -54.5t13.5 -37.5t18.5 -25.5t25 -14.5l27 -5q10 -2 30.5 1t29 5t30 8 t25.5 6l-21 -299q-219 -84 -374.5 28t-155.5 353v260q0 76 -23.5 107t-81.5 31h-100z" />
<glyph unicode="|" horiz-adv-x="634" d="M164 -184v1900l307 21v-1901z" />
<glyph unicode="}" horiz-adv-x="837" d="M41 -154l20 295q35 -12 58.5 -16t56.5 1t50.5 39t17.5 95v158q0 266 153 358q-154 94 -153 359v157q0 31 -4 54.5t-13.5 38t-18.5 25.5t-26 14l-26 6q-10 2 -31 -1.5t-29 -5.5t-29.5 -8t-25.5 -6l20 299q219 84 375 -27.5t156 -353.5v-260q0 -76 23.5 -106.5t80.5 -30.5 h101l-21 -307h-90q-51 -2 -72.5 -33t-21.5 -105v-260q0 -248 -163 -356.5t-388 -22.5z" />
<glyph unicode="~" d="M23 586q8 197 121.5 314.5t248.5 117.5q66 0 118 -16.5t82 -40t52.5 -47t42 -40t39.5 -16.5q23 0 44.5 30t27.5 95l305 -45q-8 -199 -122 -315.5t-249 -116.5q-82 0 -141.5 24.5t-86 55t-54 55.5t-52.5 25q-23 0 -44 -30t-27 -95z" />
<glyph unicode="&#xa1;" horiz-adv-x="716" d="M164 -430l20 956l348 21l21 -977h-389zM166 836q0 82 54 137t138 55t138.5 -55t54.5 -137t-54.5 -137.5t-138.5 -55.5t-138 55.5t-54 137.5z" />
<glyph unicode="&#xa2;" horiz-adv-x="991" d="M61 903q0 451 365 535v229l287 21v-234q82 -8 217 -33l-45 -319q-143 31 -256 31q-121 0 -166 -57.5t-45 -180.5t45 -181.5t166 -58.5q113 0 256 31l45 -301q-106 -23 -217 -33v-213l-287 -20v248q-365 83 -365 536z" />
<glyph unicode="&#xa3;" horiz-adv-x="1171" d="M61 348q201 131 252 209h-231l22 266h189q-33 41 -51.5 69t-38 86t-19.5 126q0 147 115 250.5t342 103.5q236 0 457 -51l-72 -344q-59 16 -143 27.5t-135.5 15.5t-65.5 4q-59 0 -75.5 -28.5t-8.5 -61.5q2 -10 30.5 -32.5t64.5 -64.5t55 -100h323l-22 -266h-310 q-55 -150 -159 -207h530q-2 -23 -4 -58.5t-7 -112.5t-9 -128l-3 -51h-995z" />
<glyph unicode="&#xa4;" d="M23 410l137 137q-29 80 -29 172q0 90 29 170l-137 139l245 217l123 -125q76 31 172 31q92 0 170 -31l125 125l246 -217l-139 -139q31 -78 30 -170q0 -96 -30 -172l139 -137l-246 -217l-125 122q-80 -29 -170 -28q-92 0 -172 28l-123 -122zM416 718.5q0 -65.5 41 -106.5 t106.5 -41t106.5 41t41 106.5t-41 106.5t-106.5 41t-106.5 -41t-41 -106.5z" />
<glyph unicode="&#xa5;" horiz-adv-x="1363" d="M0 1427l451 21l231 -530l231 530l451 -21l-301 -546h154l-21 -267h-278l-41 -75v-7h340l-21 -266h-319v-266h-390v266h-337l20 266h317v7l-43 75h-294l20 267h129z" />
<glyph unicode="&#xa6;" horiz-adv-x="634" d="M164 -184v786l307 21v-787zM164 930v786l307 21v-787z" />
<glyph unicode="&#xa7;" horiz-adv-x="1404" d="M61 881q0 289 197 433t514 144q252 0 467 -51l-65 -344q-78 20 -197 35q0 -102 38 -204.5t92 -191.5l107 -176q53 -88 91 -189t38 -202q0 -289 -196.5 -433t-513.5 -144q-252 0 -467 51l65 344q74 -20 195 -35q0 102 -38 204.5t-91 190.5l-108 176q-54 88 -91 190 t-37 202zM430 881q0 -66 37 -147t90 -166l106.5 -179t90.5 -219t39 -252q182 43 182 217q0 78 -56.5 187.5t-124 210t-125 255t-57.5 310.5q-182 -43 -182 -217z" />
<glyph unicode="&#xa8;" horiz-adv-x="1024" d="M102 1300.5q0 71.5 47.5 117.5t117 46t116.5 -46t47 -117.5t-47 -117.5t-116.5 -46t-117 46t-47.5 117.5zM594 1300.5q0 71.5 47 117.5t116.5 46t117 -46t47.5 -117.5t-47.5 -117.5t-117 -46t-116.5 46t-47 117.5z" />
<glyph unicode="&#xa9;" horiz-adv-x="1601" d="M61 719q0 328 206 533.5t533.5 205.5t533.5 -205.5t206 -533.5t-206 -533.5t-533.5 -205.5t-533.5 205.5t-206 533.5zM293 718.5q0 -233.5 141 -381t366.5 -147.5t367 147.5t141.5 381t-141.5 381t-367 147.5t-366.5 -147.5t-141 -381zM446 719q0 215 102.5 311t272.5 96 q109 0 226 -30l-43 -211q-121 27 -162 26q-147 0 -147.5 -192.5t147.5 -192.5q41 0 162 27l43 -211q-117 -31 -226 -31q-170 0 -272.5 96.5t-102.5 311.5z" />
<glyph unicode="&#xaa;" horiz-adv-x="647" d="M23 991q0 100 71.5 145.5t251.5 65.5v10q0 35 -49 35q-70 0 -209 -37l-35 205q164 43 301 43q115 0 173.5 -53t58.5 -178v-412h-178l-31 47q-70 -61 -168 -61q-78 0 -132 51t-54 139zM250 1008q0 -27 37 -27q33 0 59 12v64q-96 -8 -96 -49z" />
<glyph unicode="&#xab;" horiz-adv-x="1255" d="M41 422l20 184l369 371l232 -260l-209 -213l209 -213l-232 -260zM594 422l20 184l369 371l231 -260l-208 -213l208 -213l-231 -260z" />
<glyph unicode="&#xac;" d="M20 565l21 307h1055v-675l-348 -21v389h-728z" />
<glyph unicode="&#xad;" horiz-adv-x="686" d="M61 350l21 307h543l-21 -307h-543z" />
<glyph unicode="&#xae;" horiz-adv-x="864" d="M61 1087.5q0 163.5 103.5 267t267.5 103.5t267.5 -103.5t103.5 -267t-103.5 -267t-267.5 -103.5t-267.5 103.5t-103.5 267zM178 1087.5q0 -116.5 70.5 -190.5t183.5 -74t183.5 74t70.5 190.5t-70.5 190.5t-183.5 74t-183.5 -74t-70.5 -190.5zM279 887v397h149 q76 0 119 -37t43 -108q0 -78 -55 -113q8 -31 28 -31q2 0 33 11l14 -107q-51 -18 -82 -18q-78 0 -108 114q-14 0 -23 2v-110h-118zM397 1104q16 -4 25 -4q47 0 47 43q0 39 -49 39h-23v-78z" />
<glyph unicode="&#xaf;" horiz-adv-x="882" d="M102 1137l21 245h657l-20 -245h-658z" />
<glyph unicode="&#xb0;" horiz-adv-x="720" d="M41 1138.5q0 141.5 89 230.5t230.5 89t230.5 -89t89 -230.5t-89 -230.5t-230.5 -89t-230.5 89t-89 230.5zM276 1138.5q0 -94.5 84 -94.5t84 94.5t-84 94.5t-84 -94.5z" />
<glyph unicode="&#xb1;" d="M20 0l21 307h1065l-21 -307h-1065zM20 709l21 307h348v307l348 20v-327h369l-21 -307h-348v-308l-348 -20v328h-369z" />
<glyph unicode="&#xb2;" horiz-adv-x="686" d="M25 1716q182 41 286 41q315 0 316 -276q0 -186 -281 -344h316l-15 -195h-608l-12 195q184 111 273 194.5t89 149.5q0 80 -110 80q-86 0 -213 -37z" />
<glyph unicode="&#xb3;" horiz-adv-x="686" d="M25 971l41 192q137 -39 231 -39q119 0 119 58q0 35 -41 65h-176l12 193h139q41 33 41 65q0 55 -108 56q-82 0 -213 -37l-41 192q182 41 286 41q143 0 228.5 -53t85.5 -166q0 -119 -125 -186q150 -74 149 -203q0 -109 -92 -163t-252 -54q-161 0 -284 39z" />
<glyph unicode="&#xb4;" horiz-adv-x="761" d="M102 1114l172 344h385l-270 -344h-287z" />
<glyph unicode="&#xb5;" horiz-adv-x="1187" d="M102 -432v1429l349 21v-586q0 -119 104 -119q63 0 182 37v647l348 21v-1018h-327l-21 88q-193 -109 -323 -108q-33 0 -64 6l84 -398z" />
<glyph unicode="&#x3bc;" horiz-adv-x="1187" d="M102 -432v1429l349 21v-586q0 -119 104 -119q63 0 182 37v647l348 21v-1018h-327l-21 88q-193 -109 -323 -108q-33 0 -64 6l84 -398z" />
<glyph unicode="&#xb6;" horiz-adv-x="1112" d="M72 1118.5q0 141.5 89 230.5t230 89h721l-8 -201h-113v-1237h-209v1237h-127v-1237h-188v799h-76q-141 0 -230 89t-89 230.5z" />
<glyph unicode="&#xb7;" horiz-adv-x="548" d="M82 719q0 84 55.5 138t137 54t137 -54t55.5 -138t-55.5 -138.5t-137 -54.5t-137 54.5t-55.5 138.5z" />
<glyph unicode="&#xb8;" horiz-adv-x="643" d="M102 -418l33 168q82 -25 135 -24q55 0 56 22q0 33 -47 33q-27 0 -62 -14l-74 127l66 126h221l-84 -94q10 2 27 2q76 0 124 -54t48 -124q0 -80 -67.5 -136t-203.5 -56q-86 -1 -172 24z" />
<glyph unicode="&#xb9;" horiz-adv-x="665" d="M49 942l14 195h170v379l-184 -68v211l234 86h188v-608h162l-12 -195h-572z" />
<glyph unicode="&#xba;" horiz-adv-x="733" d="M35 1128q0 160 87 245t244.5 85t244.5 -85t87 -245q0 -158 -87 -242.5t-244.5 -84.5t-244.5 84.5t-87 242.5zM281 1128q0 -115 86 -114q88 0 88 114q0 119 -88 119q-86 0 -86 -119z" />
<glyph unicode="&#xbb;" horiz-adv-x="1255" d="M41 291l209 213l-209 213l231 260l390 -391l-21 -185l-369 -370zM594 291l209 213l-209 213l231 260l389 -391l-20 -185l-369 -370z" />
<glyph unicode="&#xbc;" horiz-adv-x="1617" d="M41 635l14 194h170v379l-184 -67v211l233 86h189v-609h162l-13 -194h-571zM336 0l721 1438h260l-721 -1438h-260zM915 334q154 197 154 469h236q0 -147 -40 -252t-128 -217h120v125l240 12v-137h80l-12 -195h-68v-139h-240v139h-329z" />
<glyph unicode="&#xbd;" horiz-adv-x="1691" d="M41 635l14 194h170v379l-184 -67v211l233 86h189v-609h162l-13 -194h-571zM336 0l721 1438h260l-721 -1438h-260zM1014 774q182 41 286 41q315 0 316 -276q0 -186 -281 -344h316l-15 -195h-608l-12 195q184 111 273 194.5t89 149.5q0 80 -110 79q-86 0 -213 -36z" />
<glyph unicode="&#xbe;" horiz-adv-x="1622" d="M41 664l41 192q137 -39 231 -39q119 0 119 57q0 35 -41 66h-176l12 193h140q41 33 41 65q0 55 -109 55q-82 0 -213 -36l-41 192q182 41 287 41q143 0 228 -53.5t85 -165.5q0 -119 -125 -187q150 -74 150 -202q0 -109 -92.5 -163t-251.5 -54q-162 0 -285 39zM340 0 l721 1438h260l-721 -1438h-260zM920 334q154 197 153 469h236q0 -147 -40 -252t-128 -217h121v125l239 12v-137h80l-12 -195h-68v-139h-239v139h-330z" />
<glyph unicode="&#xbf;" horiz-adv-x="1064" d="M41 -59q0 125 82 229t246 172l4 184l348 21l8 -373q-143 -16 -220 -66.5t-77 -107.5q0 -102 176 -102q129 0 350 67l66 -344q-272 -72 -469 -72q-111 0 -200 20.5t-161.5 64.5t-112.5 122.5t-40 184.5zM354 836q0 82 54.5 137t138.5 55t138 -55t54 -137t-54 -137.5 t-138 -55.5t-138.5 55.5t-54.5 137.5z" />
<glyph unicode="&#xc0;" horiz-adv-x="1366" d="M10 0l400 1427l538 21l408 -1448h-402l-57 236h-428l-57 -236h-402zM250 1843h467l233 -303h-368zM553 584h258l-129 526z" />
<glyph unicode="&#xc1;" horiz-adv-x="1366" d="M10 0l400 1427l538 21l408 -1448h-402l-57 236h-428l-57 -236h-402zM393 1540l234 303h467l-332 -303h-369zM553 584h258l-129 526z" />
<glyph unicode="&#xc2;" horiz-adv-x="1366" d="M10 0l400 1427l538 21l408 -1448h-402l-57 236h-428l-57 -236h-402zM250 1540l215 303h434l215 -303h-354l-82 123l-82 -123h-346zM553 584h258l-129 526z" />
<glyph unicode="&#xc3;" horiz-adv-x="1366" d="M10 0l400 1427l538 21l408 -1448h-402l-57 236h-428l-57 -236h-402zM295 1571q6 141 81 222t171 81q70 0 123 -27.5t83.5 -56.5t41.5 -29q47 0 55 88l219 -37q-6 -141 -81 -222t-171 -81q-70 0 -123 28t-83.5 56.5t-41.5 28.5q-47 0 -55 -88zM553 584h258l-129 526z" />
<glyph unicode="&#xc4;" horiz-adv-x="1366" d="M10 0l400 1427l538 21l408 -1448h-402l-57 236h-428l-57 -236h-402zM272 1693.5q0 71.5 46.5 118t118 46.5t117.5 -46.5t46 -118t-46 -117.5t-117.5 -46t-118 46t-46.5 117.5zM553 584h258l-129 526zM764 1693.5q0 71.5 46 118t117.5 46.5t118 -46.5t46.5 -118 t-46.5 -117.5t-118 -46t-117.5 46t-46 117.5z" />
<glyph unicode="&#xc5;" horiz-adv-x="1366" d="M10 0l400 1427l172 7q-70 25 -111 84t-41 139q0 106 70.5 172.5t181.5 66.5t181.5 -66.5t70.5 -172.5q0 -154 -131 -215l145 6l408 -1448h-402l-57 236h-428l-57 -236h-402zM553 584h258l-129 526zM614 1657q0 -72 68 -72t68 72t-68 72t-68 -72z" />
<glyph unicode="&#xc6;" horiz-adv-x="1961" d="M-20 0l727 1438h1194l-21 -348h-567v-197h465l-21 -348h-444v-197h588l-21 -348h-956v236h-400l-106 -236h-438zM680 584h244v540z" />
<glyph unicode="&#xc7;" horiz-adv-x="1218" d="M82 719q0 389 181 564t489 175q205 0 405 -51l-65 -344q-207 47 -310 47q-150 0 -220 -86t-70 -305t70.5 -305t219.5 -86q102 0 310 47l65 -344q-154 -39 -330 -49l-49 -56q10 2 27 2q76 0 124 -54t48 -124q0 -80 -67.5 -136t-202.5 -56q-86 0 -172 24l32 168 q82 -25 135 -24q55 0 56 22q0 33 -47 33q-27 0 -62 -14l-74 127l48 94q-541 72 -541 731z" />
<glyph unicode="&#xc8;" horiz-adv-x="1140" d="M102 0v1438h977l-20 -348h-567v-197h464l-20 -348h-444v-197h587l-20 -348h-957zM178 1843h467l234 -303h-369z" />
<glyph unicode="&#xc9;" horiz-adv-x="1140" d="M102 0v1438h977l-20 -348h-567v-197h464l-20 -348h-444v-197h587l-20 -348h-957zM301 1540l234 303h466l-331 -303h-369z" />
<glyph unicode="&#xca;" horiz-adv-x="1140" d="M102 0v1438h977l-20 -348h-567v-197h464l-20 -348h-444v-197h587l-20 -348h-957zM158 1540l215 303h434l215 -303h-354l-82 123l-82 -123h-346z" />
<glyph unicode="&#xcb;" horiz-adv-x="1140" d="M102 0v1438h977l-20 -348h-567v-197h464l-20 -348h-444v-197h587l-20 -348h-957zM180 1693.5q0 71.5 47 118t117 46.5t117 -46.5t47 -118t-47 -117.5t-117 -46t-117 46t-47 117.5zM672 1693.5q0 71.5 47 118t116.5 46.5t116.5 -46.5t47 -118t-47 -117.5t-116.5 -46 t-116.5 46t-47 117.5z" />
<glyph unicode="&#xcc;" horiz-adv-x="593" d="M-207 1843h467l234 -303h-369zM102 0v1438h390v-1438h-390z" />
<glyph unicode="&#xcd;" horiz-adv-x="593" d="M100 1540l234 303h467l-332 -303h-369zM102 0v1438h390v-1438h-390z" />
<glyph unicode="&#xce;" horiz-adv-x="593" d="M-135 1540l215 303h434l215 -303h-354l-82 123l-82 -123h-346zM102 0v1438h390v-1438h-390z" />
<glyph unicode="&#xcf;" horiz-adv-x="593" d="M-113 1693.5q0 71.5 46.5 118t118 46.5t117.5 -46.5t46 -118t-46 -117.5t-117.5 -46t-118 46t-46.5 117.5zM102 0v1438h390v-1438h-390zM379 1693.5q0 71.5 46 118t117.5 46.5t118 -46.5t46.5 -118t-46.5 -117.5t-118 -46t-117.5 46t-46 117.5z" />
<glyph unicode="&#xd0;" horiz-adv-x="1409" d="M0 596l20 246h82v596h557q319 0 493.5 -179.5t174.5 -545.5q0 -362 -193.5 -547.5t-560.5 -185.5q-225 0 -471 59v557h-102zM492 338q53 -10 120 -10q152 0 229 97t77 282q0 383 -263 383h-163v-248h186l-21 -246h-165v-258z" />
<glyph unicode="&#xd1;" horiz-adv-x="1392" d="M102 0v1427l359 21l450 -778v768h379v-1428l-358 -20l-451 778v-768h-379zM309 1571q6 141 81 222t171 81q70 0 123 -27.5t84 -56.5t41 -29q47 0 55 88l219 -37q-6 -141 -80.5 -222t-171.5 -81q-70 0 -123 28t-83.5 56.5t-40.5 28.5q-47 0 -56 -88z" />
<glyph unicode="&#xd2;" horiz-adv-x="1515" d="M82 719q0 739 676 739t676 -739t-676 -739t-676 739zM326 1843h467l233 -303h-369zM492 719q0 -213 65.5 -302t200.5 -89q133 0 199.5 90t66.5 301t-66.5 301t-199.5 90q-135 0 -200.5 -89t-65.5 -302z" />
<glyph unicode="&#xd3;" horiz-adv-x="1515" d="M82 719q0 739 676 739t676 -739t-676 -739t-676 739zM489 1540l234 303h467l-332 -303h-369zM492 719q0 -213 65.5 -302t200.5 -89q133 0 199.5 90t66.5 301t-66.5 301t-199.5 90q-135 0 -200.5 -89t-65.5 -302z" />
<glyph unicode="&#xd4;" horiz-adv-x="1515" d="M82 719q0 739 676 739t676 -739t-676 -739t-676 739zM326 1540l215 303h434l215 -303h-354l-82 123l-82 -123h-346zM492 719q0 -213 65.5 -302t200.5 -89q133 0 199.5 90t66.5 301t-66.5 301t-199.5 90q-135 0 -200.5 -89t-65.5 -302z" />
<glyph unicode="&#xd5;" horiz-adv-x="1515" d="M82 719q0 739 676 739t676 -739t-676 -739t-676 739zM371 1571q6 141 80.5 222t171.5 81q70 0 123 -27.5t83.5 -56.5t40.5 -29q47 0 56 88l219 -37q-6 -141 -81 -222t-171 -81q-70 0 -123 28t-84 56.5t-41 28.5q-47 0 -55 -88zM492 719q0 -213 65.5 -302t200.5 -89 q133 0 199.5 90t66.5 301t-66.5 301t-199.5 90q-135 0 -200.5 -89t-65.5 -302z" />
<glyph unicode="&#xd6;" horiz-adv-x="1515" d="M82 719q0 739 676 739t676 -739t-676 -739t-676 739zM348 1693.5q0 71.5 47 118t117 46.5t117 -46.5t47 -118t-47 -117.5t-117 -46t-117 46t-47 117.5zM492 719q0 -213 65.5 -302t200.5 -89q133 0 199.5 90t66.5 301t-66.5 301t-199.5 90q-135 0 -200.5 -89t-65.5 -302z M840 1693.5q0 71.5 47 118t116.5 46.5t116.5 -46.5t47 -118t-47 -117.5t-116.5 -46t-116.5 46t-47 117.5z" />
<glyph unicode="&#xd7;" d="M23 410l309 309l-309 309l245 217l295 -295l295 295l246 -217l-309 -309l309 -309l-246 -217l-295 294l-295 -294z" />
<glyph unicode="&#xd8;" horiz-adv-x="1515" d="M82 719q0 739 676 739q176 0 317 -55l137 221l170 -76l-151 -241q203 -182 203 -588q0 -739 -676 -739q-184 0 -318 53l-137 -219l-172 75l152 242q-201 182 -201 588zM492 719q0 -129 24 -213l363 581q-47 23 -121 23q-135 0 -200.5 -89t-65.5 -302zM637 350 q47 -23 121 -22q133 0 199.5 90t66.5 301q0 123 -27 213z" />
<glyph unicode="&#xd9;" horiz-adv-x="1392" d="M102 487v951h390v-906q0 -119 49 -161.5t155.5 -42.5t155.5 43t49 161v906h389v-951q0 -262 -159.5 -384.5t-434.5 -122.5q-276 0 -435 122.5t-159 384.5zM264 1843h467l234 -303h-369z" />
<glyph unicode="&#xda;" horiz-adv-x="1392" d="M102 487v951h390v-906q0 -119 49 -161.5t155.5 -42.5t155.5 43t49 161v906h389v-951q0 -262 -159.5 -384.5t-434.5 -122.5q-276 0 -435 122.5t-159 384.5zM428 1540l234 303h466l-331 -303h-369z" />
<glyph unicode="&#xdb;" horiz-adv-x="1392" d="M102 487v951h390v-906q0 -119 49 -161.5t155.5 -42.5t155.5 43t49 161v906h389v-951q0 -262 -159.5 -384.5t-434.5 -122.5q-276 0 -435 122.5t-159 384.5zM264 1540l215 303h434l215 -303h-354l-82 123l-82 -123h-346z" />
<glyph unicode="&#xdc;" horiz-adv-x="1392" d="M102 487v951h390v-906q0 -119 49 -161.5t155.5 -42.5t155.5 43t49 161v906h389v-951q0 -262 -159.5 -384.5t-434.5 -122.5q-276 0 -435 122.5t-159 384.5zM287 1693.5q0 71.5 47 118t116.5 46.5t116.5 -46.5t47 -118t-47 -117.5t-116.5 -46t-116.5 46t-47 117.5z M778 1693.5q0 71.5 47 118t117 46.5t117 -46.5t47 -118t-47 -117.5t-117 -46t-117 46t-47 117.5z" />
<glyph unicode="&#xdd;" horiz-adv-x="1363" d="M0 1427l451 21l231 -530l231 530l451 -21l-487 -888v-539h-390v539zM414 1540l233 303h467l-332 -303h-368z" />
<glyph unicode="&#xde;" horiz-adv-x="1236" d="M102 0v1438h390v-209q86 8 131 8q256 0 414.5 -135t158.5 -383q0 -246 -159.5 -382t-413.5 -136q-45 0 -131 8v-209h-390zM492 559q78 -10 100 -10q88 0 141 42t53 128t-53 128t-141 42q-23 0 -100 -10v-320z" />
<glyph unicode="&#xdf;" horiz-adv-x="1275" d="M102 0v1053q0 254 122 376.5t386 122.5q211 0 329 -107.5t118 -273.5q0 -143 -88 -282l-49 -82q135 -45 209.5 -160t74.5 -250q0 -170 -108.5 -293.5t-300.5 -123.5q-154 0 -250 51l49 282q49 -29 106 -28q61 0 100.5 41t39.5 114q0 76 -78 140.5t-176 78.5l-23 144 l127 215q33 53 33 108q0 51 -30.5 85t-82.5 34q-160 0 -159 -192v-1053h-349z" />
<glyph unicode="&#xe0;" horiz-adv-x="1026" d="M41 276q0 160 116.5 233t415.5 103v35q0 74 -92 74q-111 0 -340 -64l-49 297q242 74 469 74q178 0 270.5 -84t92.5 -278v-666h-262l-37 72q-147 -92 -289 -92q-125 0 -210 77.5t-85 218.5zM193 1458h385l172 -344h-287zM373 301q0 -61 71 -61q45 0 129 24v129 q-123 -16 -161.5 -32.5t-38.5 -59.5z" />
<glyph unicode="&#xe1;" horiz-adv-x="1026" d="M41 276q0 160 116.5 233t415.5 103v35q0 74 -92 74q-111 0 -340 -64l-49 297q242 74 469 74q178 0 270.5 -84t92.5 -278v-666h-262l-37 72q-147 -92 -289 -92q-125 0 -210 77.5t-85 218.5zM313 1114l172 344h385l-270 -344h-287zM373 301q0 -61 71 -61q45 0 129 24v129 q-123 -16 -161.5 -32.5t-38.5 -59.5z" />
<glyph unicode="&#xe2;" horiz-adv-x="1026" d="M41 276q0 160 116.5 233t415.5 103v35q0 74 -92 74q-111 0 -340 -64l-49 297q242 74 469 74q178 0 270.5 -84t92.5 -278v-666h-262l-37 72q-147 -92 -289 -92q-125 0 -210 77.5t-85 218.5zM131 1114l195 344h372l195 -344h-313l-72 158l-72 -158h-305zM373 301 q0 -61 71 -61q45 0 129 24v129q-123 -16 -161.5 -32.5t-38.5 -59.5z" />
<glyph unicode="&#xe3;" horiz-adv-x="1026" d="M41 276q0 160 116.5 233t415.5 103v35q0 74 -92 74q-111 0 -340 -64l-49 297q242 74 469 74q178 0 270.5 -84t92.5 -278v-666h-262l-37 72q-147 -92 -289 -92q-125 0 -210 77.5t-85 218.5zM139 1155q6 141 81 222t171 81q70 0 118 -28.5t73.5 -56t35.5 -27.5q47 0 56 88 l219 -37q-6 -141 -81 -222t-171 -81q-70 0 -118 28.5t-73.5 56t-35.5 27.5q-47 0 -56 -88zM373 301q0 -61 71 -61q45 0 129 24v129q-123 -16 -161.5 -32.5t-38.5 -59.5z" />
<glyph unicode="&#xe4;" horiz-adv-x="1026" d="M41 276q0 160 116.5 233t415.5 103v35q0 74 -92 74q-111 0 -340 -64l-49 297q242 74 469 74q178 0 270.5 -84t92.5 -278v-666h-262l-37 72q-147 -92 -289 -92q-125 0 -210 77.5t-85 218.5zM102 1300.5q0 71.5 47.5 117.5t117 46t116.5 -46t47 -117.5t-47 -117.5 t-116.5 -46t-117 46t-47.5 117.5zM373 301q0 -61 71 -61q45 0 129 24v129q-123 -16 -161.5 -32.5t-38.5 -59.5zM594 1300.5q0 71.5 47 117.5t116.5 46t117 -46t47.5 -117.5t-47.5 -117.5t-117 -46t-116.5 46t-47 117.5z" />
<glyph unicode="&#xe5;" horiz-adv-x="1026" d="M41 276q0 160 116.5 233t415.5 103v35q0 74 -92 74q-111 0 -340 -64l-49 297q242 74 469 74q178 0 270.5 -84t92.5 -278v-666h-262l-37 72q-147 -92 -289 -92q-125 0 -210 77.5t-85 218.5zM281 1308.5q0 106.5 70.5 173t181 66.5t181 -66.5t70.5 -173t-70.5 -173 t-181 -66.5t-181 66.5t-70.5 173zM373 301q0 -61 71 -61q45 0 129 24v129q-123 -16 -161.5 -32.5t-38.5 -59.5zM465 1308.5q0 -71.5 67.5 -71.5t67.5 71.5t-67.5 71.5t-67.5 -71.5z" />
<glyph unicode="&#xe6;" horiz-adv-x="1560" d="M41 276q0 160 116.5 233t415.5 103v35q0 74 -92 74q-111 0 -340 -64l-49 297q225 74 434 74q178 0 260 -96q111 96 281 96q211 0 336 -160.5t84 -478.5h-567q0 -123 176 -123q43 0 89 7.5t109.5 20.5t96.5 19l45 -268q-180 -66 -371 -65q-254 0 -373 131 q-201 -131 -356 -131q-125 0 -210 77.5t-85 218.5zM373 301q0 -61 71 -61q76 0 156 43q-14 43 -20 108q-123 -12 -165 -29.5t-42 -60.5zM922 625h229q6 131 -109 131q-102 0 -120 -131z" />
<glyph unicode="&#xe7;" horiz-adv-x="923" d="M61 504q0 266 136.5 395t369.5 129q141 0 316 -35l-43 -299q-139 27 -232 27q-109 0 -149.5 -52.5t-40.5 -165t41 -164.5t149 -52q92 0 232 26l43 -299q-147 -27 -248 -32l-49 -56q10 2 26 2q76 0 124 -54t48 -124q0 -80 -67.5 -136t-202.5 -56q-86 0 -172 24l33 168 q82 -25 135 -24q55 0 55 22q0 33 -47 33q-27 0 -61 -14l-74 127l49 98q-174 33 -272.5 159t-98.5 353z" />
<glyph unicode="&#xe8;" horiz-adv-x="1048" d="M61 502q0 266 136.5 396t357.5 130q231 0 347 -157.5t73 -481.5h-567q0 -123 176 -123q43 0 89 7.5t109.5 20.5t96.5 19l45 -268q-180 -66 -371 -65q-244 0 -368 125t-124 397zM184 1458h385l172 -344h-286zM410 625h229q6 131 -109 131q-102 0 -120 -131z" />
<glyph unicode="&#xe9;" horiz-adv-x="1048" d="M61 502q0 266 136.5 396t357.5 130q231 0 347 -157.5t73 -481.5h-567q0 -123 176 -123q43 0 89 7.5t109.5 20.5t96.5 19l45 -268q-180 -66 -371 -65q-244 0 -368 125t-124 397zM328 1114l172 344h385l-271 -344h-286zM410 625h229q6 131 -109 131q-102 0 -120 -131z" />
<glyph unicode="&#xea;" horiz-adv-x="1048" d="M61 502q0 266 136.5 396t357.5 130q231 0 347 -157.5t73 -481.5h-567q0 -123 176 -123q43 0 89 7.5t109.5 20.5t96.5 19l45 -268q-180 -66 -371 -65q-244 0 -368 125t-124 397zM164 1114l194 344h373l195 -344h-314l-71 158l-72 -158h-305zM410 625h229q6 131 -109 131 q-102 0 -120 -131z" />
<glyph unicode="&#xeb;" horiz-adv-x="1048" d="M61 502q0 266 136.5 396t357.5 130q231 0 347 -157.5t73 -481.5h-567q0 -123 176 -123q43 0 89 7.5t109.5 20.5t96.5 19l45 -268q-180 -66 -371 -65q-244 0 -368 125t-124 397zM123 1300.5q0 71.5 47 117.5t116.5 46t117 -46t47.5 -117.5t-47.5 -117.5t-117 -46 t-116.5 46t-47 117.5zM410 625h229q6 131 -109 131q-102 0 -120 -131zM614 1300.5q0 71.5 47.5 117.5t117 46t116.5 -46t47 -117.5t-47 -117.5t-116.5 -46t-117 46t-47.5 117.5z" />
<glyph unicode="&#xec;" horiz-adv-x="552" d="M-104 1458h385l172 -344h-287zM102 0v997l349 21v-1018h-349z" />
<glyph unicode="&#xed;" horiz-adv-x="552" d="M100 1114l172 344h385l-270 -344h-287zM102 0v997l349 21v-1018h-349z" />
<glyph unicode="&#xee;" horiz-adv-x="552" d="M-104 1114l194 344h373l194 -344h-313l-72 158l-71 -158h-305zM102 0v997l349 21v-1018h-349z" />
<glyph unicode="&#xef;" horiz-adv-x="552" d="M-133 1300.5q0 71.5 46 117.5t117.5 46t118 -46t46.5 -117.5t-46.5 -117.5t-118 -46t-117.5 46t-46 117.5zM102 0v997l349 21v-1018h-349zM358 1300.5q0 71.5 46.5 117.5t118 46t117.5 -46t46 -117.5t-46 -117.5t-117.5 -46t-118 46t-46.5 117.5z" />
<glyph unicode="&#xf0;" horiz-adv-x="1187" d="M61 504q0 260 125 392t314 132q68 0 149 -20q-31 70 -82 149l-278 -100l-58 219l191 67q-100 111 -234 209h424q61 -45 113 -98l272 100l58 -219l-176 -65q227 -332 227 -709q0 -264 -140.5 -422.5t-381.5 -158.5q-248 0 -385.5 133t-137.5 391zM418 504q0 -217 166 -217 q63 0 104 42t53.5 108.5t12.5 131t-11 125.5q-88 27 -155 27q-170 0 -170 -217z" />
<glyph unicode="&#xf1;" horiz-adv-x="1187" d="M102 0v997l349 21v-98q209 109 356 108q123 0 200.5 -79t77.5 -253v-696h-348v575q0 66 -25.5 92.5t-78.5 26.5q-49 0 -182 -37v-657h-349zM217 1155q6 141 81 222t171 81q70 0 118 -28.5t73.5 -56t35.5 -27.5q47 0 56 88l219 -37q-6 -141 -81 -222t-171 -81 q-70 0 -118 28.5t-73.5 56t-35.5 27.5q-47 0 -56 -88z" />
<glyph unicode="&#xf2;" horiz-adv-x="1167" d="M61 504q0 258 137.5 391t385 133t385 -133t137.5 -391t-137.5 -391t-385 -133t-385 133t-137.5 391zM244 1458h385l172 -344h-287zM418 504q0 -217 166 -217t166 217t-166 217t-166 -217z" />
<glyph unicode="&#xf3;" horiz-adv-x="1167" d="M61 504q0 258 137.5 391t385 133t385 -133t137.5 -391t-137.5 -391t-385 -133t-385 133t-137.5 391zM367 1114l172 344h385l-271 -344h-286zM418 504q0 -217 166 -217t166 217t-166 217t-166 -217z" />
<glyph unicode="&#xf4;" horiz-adv-x="1167" d="M61 504q0 258 137.5 391t385 133t385 -133t137.5 -391t-137.5 -391t-385 -133t-385 133t-137.5 391zM203 1114l194 344h373l195 -344h-314l-71 158l-72 -158h-305zM418 504q0 -217 166 -217t166 217t-166 217t-166 -217z" />
<glyph unicode="&#xf5;" horiz-adv-x="1167" d="M61 504q0 258 137.5 391t385 133t385 -133t137.5 -391t-137.5 -391t-385 -133t-385 133t-137.5 391zM207 1155q6 141 80.5 222t171.5 81q70 0 118 -28.5t73.5 -56t35.5 -27.5q47 0 55 88l220 -37q-6 -141 -81 -222t-171 -81q-70 0 -118 28.5t-73.5 56t-36.5 27.5 q-47 0 -55 -88zM418 504q0 -217 166 -217t166 217t-166 217t-166 -217z" />
<glyph unicode="&#xf6;" horiz-adv-x="1167" d="M61 504q0 258 137.5 391t385 133t385 -133t137.5 -391t-137.5 -391t-385 -133t-385 133t-137.5 391zM176 1300.5q0 71.5 47 117.5t117 46t117 -46t47 -117.5t-47 -117.5t-117 -46t-117 46t-47 117.5zM418 504q0 -217 166 -217t166 217t-166 217t-166 -217zM668 1300.5 q0 71.5 47 117.5t116.5 46t116.5 -46t47 -117.5t-47 -117.5t-116.5 -46t-116.5 46t-47 117.5z" />
<glyph unicode="&#xf7;" d="M20 565l21 307h1065l-21 -307h-1065zM371 266q0 82 54 137.5t138 55.5t138.5 -55.5t54.5 -137.5t-54.5 -137t-138.5 -55t-138 55t-54 137zM371 1171.5q0 81.5 54 137t138 55.5t138.5 -55.5t54.5 -137t-54.5 -137t-138.5 -55.5t-138 55.5t-54 137z" />
<glyph unicode="&#xf8;" horiz-adv-x="1167" d="M61 504q0 258 137.5 391t385.5 133q125 0 227 -37l115 183l129 -56l-123 -192q174 -133 174 -422q0 -258 -137.5 -391t-384.5 -133q-127 0 -228 34l-114 -180l-129 57l120 191q-172 133 -172 422zM418 504q0 -68 12 -111l205 322q-25 6 -51 6q-166 0 -166 -217zM530 291 q16 -4 54 -4q166 0 166 217q0 57 -15 110z" />
<glyph unicode="&#xf9;" horiz-adv-x="1187" d="M102 311v686l349 21v-586q0 -66 25.5 -92.5t78.5 -26.5q49 0 182 37v647l348 21v-1018h-327l-21 88q-209 -109 -356 -108q-123 0 -201 78.5t-78 252.5zM254 1458h385l172 -344h-287z" />
<glyph unicode="&#xfa;" horiz-adv-x="1187" d="M102 311v686l349 21v-586q0 -66 25.5 -92.5t78.5 -26.5q49 0 182 37v647l348 21v-1018h-327l-21 88q-209 -109 -356 -108q-123 0 -201 78.5t-78 252.5zM377 1114l172 344h385l-270 -344h-287z" />
<glyph unicode="&#xfb;" horiz-adv-x="1187" d="M102 311v686l349 21v-586q0 -66 25.5 -92.5t78.5 -26.5q49 0 182 37v647l348 21v-1018h-327l-21 88q-209 -109 -356 -108q-123 0 -201 78.5t-78 252.5zM213 1114l195 344h372l195 -344h-313l-72 158l-72 -158h-305z" />
<glyph unicode="&#xfc;" horiz-adv-x="1187" d="M102 311v686l349 21v-586q0 -66 25.5 -92.5t78.5 -26.5q49 0 182 37v647l348 21v-1018h-327l-21 88q-209 -109 -356 -108q-123 0 -201 78.5t-78 252.5zM184 1300.5q0 71.5 47.5 117.5t117 46t116.5 -46t47 -117.5t-47 -117.5t-116.5 -46t-117 46t-47.5 117.5zM676 1300.5 q0 71.5 47 117.5t116.5 46t117 -46t47.5 -117.5t-47.5 -117.5t-117 -46t-116.5 46t-47 117.5z" />
<glyph unicode="&#xfd;" horiz-adv-x="1073" d="M0 997l381 21l156 -645l155 645l381 -21l-446 -1429l-381 20l129 412h-64zM322 1114l172 344h385l-271 -344h-286z" />
<glyph unicode="&#xfe;" horiz-adv-x="1177" d="M102 -432v1964l349 20v-634q164 111 303 110q160 0 261 -137t101 -387q0 -260 -125 -392t-313 -132q-109 0 -227 45v-437zM451 307q94 -20 139 -20q170 0 170 223q0 104 -34 144t-95 40q-43 0 -180 -37v-350z" />
<glyph unicode="&#xff;" horiz-adv-x="1073" d="M0 997l381 21l156 -645l155 645l381 -21l-446 -1429l-381 20l129 412h-64zM127 1300.5q0 71.5 47 117.5t116.5 46t117 -46t47.5 -117.5t-47.5 -117.5t-117 -46t-116.5 46t-47 117.5zM618 1300.5q0 71.5 47.5 117.5t117 46t116.5 -46t47 -117.5t-47 -117.5t-116.5 -46 t-117 46t-47.5 117.5z" />
<glyph unicode="&#x152;" horiz-adv-x="2062" d="M82 719q0 201 47 348t131 230t182.5 122t214.5 39q227 0 367 -119v99h977l-21 -348h-567v-197h465l-20 -348h-445v-197h588l-21 -348h-956v96q-139 -117 -367 -116q-117 0 -215 38.5t-182 121.5t-131 230.5t-47 348.5zM492 719q0 -213 65.5 -302t200.5 -89 q133 0 199.5 90t66.5 301t-66.5 301t-199.5 90q-135 0 -200.5 -89t-65.5 -302z" />
<glyph unicode="&#x153;" horiz-adv-x="1736" d="M61 504q0 250 148.5 387t374.5 137q223 0 342 -135q115 135 317 135q213 0 337 -160.5t83 -478.5h-567q12 -102 176 -102q43 0 89 7t109.5 20.5t96.5 19.5l45 -289q-180 -66 -371 -65q-221 0 -323 126q-119 -127 -334 -126q-227 0 -375 136t-148 388zM418 504 q0 -217 166 -217t166 217t-166 217t-166 -217zM1098 625h229q6 131 -108 131q-103 0 -121 -131z" />
<glyph unicode="&#x178;" horiz-adv-x="1363" d="M0 1427l451 21l231 -530l231 530l451 -21l-487 -888v-539h-390v539zM272 1693.5q0 71.5 46.5 118t118 46.5t117.5 -46.5t46 -118t-46 -117.5t-117.5 -46t-118 46t-46.5 117.5zM764 1693.5q0 71.5 46 118t117.5 46.5t118 -46.5t46.5 -118t-46.5 -117.5t-118 -46t-117.5 46 t-46 117.5z" />
<glyph unicode="&#x2c6;" horiz-adv-x="966" d="M102 1114l195 344h373l194 -344h-313l-72 158l-71 -158h-306z" />
<glyph unicode="&#x2dc;" horiz-adv-x="958" d="M102 1155q6 141 81 222t171 81q70 0 118 -28.5t73.5 -56t36.5 -27.5q47 0 55 88l219 -37q-6 -141 -81 -222t-171 -81q-70 0 -118 28.5t-73.5 56t-35.5 27.5q-47 0 -55 -88z" />
<glyph unicode="&#x2000;" horiz-adv-x="948" />
<glyph unicode="&#x2001;" horiz-adv-x="1896" />
<glyph unicode="&#x2002;" horiz-adv-x="948" />
<glyph unicode="&#x2003;" horiz-adv-x="1896" />
<glyph unicode="&#x2004;" horiz-adv-x="630" />
<glyph unicode="&#x2005;" horiz-adv-x="473" />
<glyph unicode="&#x2006;" horiz-adv-x="315" />
<glyph unicode="&#x2007;" horiz-adv-x="315" />
<glyph unicode="&#x2008;" horiz-adv-x="235" />
<glyph unicode="&#x2009;" horiz-adv-x="378" />
<glyph unicode="&#x200a;" horiz-adv-x="104" />
<glyph unicode="&#x2010;" horiz-adv-x="686" d="M61 350l21 307h543l-21 -307h-543z" />
<glyph unicode="&#x2011;" horiz-adv-x="686" d="M61 350l21 307h543l-21 -307h-543z" />
<glyph unicode="&#x2013;" horiz-adv-x="1134" d="M41 350l20 307h1033l-21 -307h-1032z" />
<glyph unicode="&#x2014;" horiz-adv-x="2152" d="M41 350l20 307h2030l-20 -307h-2030z" />
<glyph unicode="&#x2018;" horiz-adv-x="552" d="M86 1321q0 125 29.5 234.5t91.5 244.5l280 -28q-84 -188 -90 -334t62 -334l-330 -29q-43 121 -43 246z" />
<glyph unicode="&#x2019;" horiz-adv-x="552" d="M82 1104q84 188 90 333.5t-61 334.5l329 28q43 -121 43 -245.5t-29.5 -234.5t-91.5 -245z" />
<glyph unicode="&#x201a;" horiz-adv-x="552" d="M82 -334q84 188 90 333.5t-61 334.5l329 28q43 -121 43 -245.5t-29.5 -234t-91.5 -244.5z" />
<glyph unicode="&#x201c;" horiz-adv-x="1024" d="M86 1321q0 125 29.5 234.5t91.5 244.5l280 -28q-84 -188 -90 -334t62 -334l-330 -29q-43 121 -43 246zM557 1321q0 125 29.5 234.5t91.5 244.5l280 -28q-84 -188 -90 -334t62 -334l-330 -29q-43 121 -43 246z" />
<glyph unicode="&#x201d;" horiz-adv-x="1024" d="M82 1104q84 188 90 333.5t-61 334.5l329 28q43 -121 43 -245.5t-29.5 -234.5t-91.5 -245zM553 1104q84 188 90 333.5t-61 334.5l329 28q43 -121 43 -245.5t-29.5 -234.5t-90.5 -245z" />
<glyph unicode="&#x201e;" horiz-adv-x="1024" d="M82 -334q84 188 90 333.5t-61 334.5l329 28q43 -121 43 -245.5t-29.5 -234t-91.5 -244.5zM553 -334q84 188 90 333.5t-61 334.5l329 28q43 -121 43 -245.5t-29.5 -234t-90.5 -244.5z" />
<glyph unicode="&#x2022;" horiz-adv-x="761" d="M61 719q0 141 89.5 230t230.5 89t230 -89t89 -230t-89 -230.5t-230 -89.5t-230.5 89.5t-89.5 230.5z" />
<glyph unicode="&#x2026;" horiz-adv-x="2084" d="M82 172q0 82 55.5 137.5t137 55.5t137 -55.5t55.5 -137.5t-55.5 -137t-137 -55t-137 55t-55.5 137zM850 172q0 82 54 137.5t138 55.5t138.5 -55.5t54.5 -137.5t-54.5 -137t-138.5 -55t-138 55t-54 137zM1618 172q0 82 55.5 137.5t137 55.5t137 -55.5t55.5 -137.5 t-55.5 -137t-137 -55t-137 55t-55.5 137z" />
<glyph unicode="&#x202f;" horiz-adv-x="378" />
<glyph unicode="&#x2039;" horiz-adv-x="702" d="M41 422l20 184l369 371l232 -260l-209 -213l209 -213l-232 -260z" />
<glyph unicode="&#x203a;" horiz-adv-x="702" d="M41 291l209 213l-209 213l231 260l390 -391l-21 -185l-369 -370z" />
<glyph unicode="&#x205f;" horiz-adv-x="473" />
<glyph unicode="&#x20ac;" horiz-adv-x="1218" d="M0 412l20 266h123v43v39h-143l20 266h160q119 432 594 432q195 0 383 -51l-61 -344q-190 45 -279 45q-139 0 -199 -82h359l-21 -266h-403v-39v-43h342l-21 -266h-256q59 -84 199 -84q88 0 279 45l61 -342q-188 -51 -383 -51q-477 0 -594 432h-180z" />
<glyph unicode="&#x2122;" horiz-adv-x="1253" d="M0 1284l8 154h473l-8 -154h-145v-383h-174v383h-154zM492 901l71 531l225 10l64 -324l41 314l244 10l75 -541h-174l-26 338l-56 -332l-206 -10l-60 342l-24 -338h-174z" />
<glyph horiz-adv-x="0" />
</font>
</defs>
</svg>
